{"glyphs":{"0":{"ha":592,"x_min":0,"x_max":0,"o":"m 521 679 b 521 680 521 680 521 680 b 470 808 515 706 497 760 b 421 871 454 834 438 855 b 421 871 421 871 421 871 b 310 922 387 905 349 922 b 137 782 244 922 182 872 b 69 454 94 694 69 578 b 137 127 69 331 94 215 b 310 -14 182 36 244 -14 b 483 127 376 -14 437 36 b 532 273 504 170 521 219 b 550 454 544 330 550 391 b 521 679 550 534 540 611 z m 505 281 b 504 280 504 280 504 280 b 333 35 470 135 399 35 b 151 459 224 35 151 205 b 341 876 151 701 231 876 b 409 842 366 876 389 863 b 410 841 409 842 409 842 b 457 769 427 822 443 798 b 493 673 471 740 484 708 b 493 673 493 673 493 673 b 494 671 494 673 494 672 b 494 670 494 671 494 670 b 522 454 512 605 522 531 b 505 281 522 394 516 335 z "},"1":{"ha":194,"x_min":0,"x_max":0,"o":"m 119 917 b 79 885 103 918 84 909 b 79 1 70 832 63 135 b 112 -34 82 -23 98 -34 b 114 -34 113 -34 113 -34 b 145 5 128 -33 144 -21 b 148 332 145 26 146 168 b 153 882 149 557 152 836 b 119 917 153 900 139 915 z "},"2":{"ha":569,"x_min":0,"x_max":0,"o":"m 521 64 b 359 79 489 83 429 85 b 171 50 300 73 234 62 b 246 187 184 79 215 134 b 469 852 367 396 550 712 b 315 922 443 898 391 922 b 70 687 147 922 77 782 b 70 686 70 687 70 686 b 70 681 70 684 70 683 b 69 677 70 680 70 678 b 83 662 69 669 75 662 b 98 676 91 662 98 668 b 98 684 98 679 98 681 b 99 687 98 685 98 686 b 294 880 108 786 202 880 b 403 835 350 880 386 865 b 232 311 461 740 334 502 b 104 15 164 184 106 74 b 111 1 104 10 107 4 b 125 -3 115 -2 119 -3 b 194 13 138 -3 157 2 b 361 50 240 26 303 45 b 363 50 362 50 362 50 b 506 40 424 56 480 56 b 525 44 512 35 521 37 b 521 64 529 51 527 59 z "},"3":{"ha":465,"x_min":0,"x_max":0,"o":"m 375 402 b 270 464 348 433 313 454 b 340 545 296 481 320 508 b 390 740 372 601 390 674 b 359 865 390 791 379 834 b 252 922 335 902 298 922 b 111 838 193 922 145 893 b 71 713 84 795 73 746 b 71 713 71 713 71 713 b 71 706 71 711 71 708 b 85 691 71 698 77 691 b 99 706 93 691 99 698 b 100 712 99 708 99 710 b 100 716 100 713 100 715 b 100 719 100 717 100 718 b 231 880 107 786 164 880 b 297 839 260 880 282 866 b 319 731 311 813 319 775 b 207 473 319 605 261 473 b 193 460 200 473 194 467 b 193 460 193 460 193 460 b 193 459 193 460 193 459 b 193 458 193 459 193 458 b 193 457 193 458 193 457 b 193 455 193 456 193 456 b 207 442 193 448 199 442 b 223 442 212 442 218 442 b 317 383 262 438 294 418 b 352 244 340 348 352 298 b 228 36 352 142 306 36 b 160 69 199 36 175 54 b 98 206 121 108 99 168 b 98 210 98 208 98 209 b 84 225 98 218 92 225 b 84 225 84 225 84 225 b 70 211 76 225 70 218 b 70 209 70 210 70 209 b 69 207 70 208 69 208 b 138 34 69 157 91 82 b 250 -12 169 3 206 -12 b 424 250 350 -12 424 126 b 375 402 424 311 407 364 z "},"4":{"ha":531,"x_min":0,"x_max":0,"o":"m 455 917 b 415 885 438 918 419 909 b 415 884 415 884 415 884 b 408 840 413 875 411 860 b 367 637 401 794 389 713 b 250 476 335 533 293 476 b 189 502 225 476 205 484 b 154 869 143 554 131 677 b 156 890 155 878 156 885 b 127 918 157 903 145 915 b 83 894 106 921 87 912 b 126 485 76 868 40 597 b 227 435 152 451 186 435 b 401 654 321 435 372 543 b 402 657 402 655 402 656 b 402 658 402 658 402 658 b 407 678 404 665 406 672 b 415 1 403 446 403 93 b 448 -34 418 -23 434 -34 b 449 -34 448 -34 449 -34 b 480 5 464 -33 479 -21 b 483 332 481 26 482 168 b 488 882 485 557 487 836 b 455 917 489 900 474 915 z "},"5":{"ha":482,"x_min":0,"x_max":0,"o":"m 433 920 b 414 916 427 924 418 923 b 188 913 396 889 320 888 b 186 913 188 913 187 913 l 186 913 b 173 917 182 915 178 916 b 161 916 169 917 165 917 b 133 885 148 914 136 904 b 132 544 124 836 116 675 b 161 510 135 522 148 512 b 162 510 161 510 162 510 b 164 510 162 510 163 510 b 165 510 165 510 165 510 b 170 510 167 510 169 510 b 172 510 171 510 172 510 b 312 437 232 508 279 483 b 357 271 341 395 357 336 b 228 36 357 157 305 36 b 160 69 199 36 175 54 b 98 206 121 108 99 168 b 98 210 98 208 98 209 b 84 225 98 218 92 225 l 84 225 b 70 211 76 225 70 218 b 70 209 70 210 70 210 b 69 207 70 208 69 208 b 138 34 69 157 91 82 b 250 -12 169 3 206 -12 b 430 279 351 -12 430 144 b 370 458 430 351 409 413 b 197 537 329 504 271 531 b 198 547 197 540 198 543 b 200 618 198 561 199 586 b 206 881 201 701 204 825 b 336 867 250 873 296 867 b 437 900 382 867 421 875 b 433 920 442 907 440 916 z "},"6":{"ha":479,"x_min":0,"x_max":0,"o":"m 416 406 b 416 407 416 407 416 407 b 416 409 416 407 416 408 b 334 530 407 437 380 499 b 253 559 310 549 282 559 b 212 552 239 559 225 557 b 315 806 246 645 288 742 b 348 884 331 841 343 869 b 326 929 355 902 342 921 b 280 913 308 937 290 931 b 91 410 257 872 131 539 b 91 406 91 409 91 407 b 69 273 77 366 69 321 b 253 -14 69 115 152 -14 b 422 157 329 -14 393 57 b 423 162 422 159 423 160 b 424 165 424 163 424 164 b 437 273 433 198 437 234 b 416 406 437 321 430 366 z m 396 171 b 396 170 396 171 396 170 b 271 26 371 86 319 26 b 153 273 161 26 153 215 b 154 314 153 287 153 301 b 277 520 161 446 205 520 b 325 502 295 520 311 513 b 388 403 351 479 373 445 b 388 401 388 402 388 401 b 389 398 389 400 389 399 b 389 398 389 398 389 398 b 409 273 402 361 409 318 b 396 171 409 236 404 202 z "},"7":{"ha":501,"x_min":0,"x_max":0,"o":"m 423 917 b 410 916 419 917 414 917 b 395 913 407 915 402 914 b 96 916 159 879 106 900 b 76 920 91 923 82 924 b 72 900 69 916 67 907 b 195 867 87 878 126 867 b 386 883 243 867 307 872 b 386 883 386 883 386 883 b 317 592 384 851 353 731 b 189 3 259 367 187 88 b 221 -34 190 -21 205 -34 l 221 -34 b 243 -24 229 -34 237 -30 b 255 5 250 -17 254 -8 b 341 370 255 26 299 201 b 460 882 399 600 459 837 b 423 917 460 902 441 916 z "},"8":{"ha":479,"x_min":0,"x_max":0,"o":"m 415 356 b 335 462 407 381 380 434 b 323 469 331 464 327 466 b 437 686 390 504 437 588 b 253 922 437 816 355 922 b 174 899 225 922 198 913 b 174 898 174 899 174 898 b 92 798 128 873 100 822 b 91 797 91 798 91 798 b 69 686 77 764 69 727 b 83 598 69 655 74 625 b 83 597 83 598 83 597 b 84 595 83 597 83 596 b 85 592 84 594 84 593 b 184 469 104 536 140 492 b 69 237 117 431 69 341 b 253 -14 69 98 152 -14 b 422 137 329 -14 394 48 b 423 139 423 138 423 139 b 424 142 423 140 424 141 b 437 237 433 171 437 203 b 416 355 437 279 430 320 b 415 356 416 355 416 355 z m 111 604 b 98 686 102 629 98 657 b 184 871 98 767 133 837 b 230 885 197 879 213 885 b 362 686 309 885 362 805 b 236 489 362 563 315 489 b 111 604 187 489 137 535 z m 396 149 b 396 149 396 149 396 149 b 271 25 371 75 320 25 b 153 237 168 25 153 158 b 277 450 153 394 217 450 b 324 435 294 450 310 444 b 324 434 324 435 324 435 b 388 347 351 415 373 384 l 388 347 l 389 347 b 409 237 402 314 409 277 b 396 149 409 206 404 176 z "},"9":{"ha":479,"x_min":0,"x_max":0,"o":"m 253 933 b 85 761 178 933 114 862 b 84 757 85 760 84 758 b 83 754 83 756 83 755 b 69 646 74 721 69 684 b 91 512 69 598 77 552 l 91 512 b 91 510 91 511 91 511 b 173 388 100 481 127 419 b 173 388 173 388 173 388 b 253 359 198 370 225 359 b 288 364 265 359 277 361 b 199 137 258 286 224 201 b 159 35 180 90 166 53 b 181 -10 152 16 165 -3 b 197 -14 186 -13 191 -14 b 227 5 209 -14 220 -7 b 416 509 250 46 376 379 b 416 512 416 510 416 511 b 437 646 430 552 437 598 b 253 933 437 804 355 933 z m 339 507 b 328 480 336 497 332 488 b 230 398 311 443 280 398 b 183 416 212 398 197 405 b 119 516 156 439 134 474 b 119 518 119 517 119 517 b 118 520 118 519 118 520 b 118 520 118 520 118 520 b 98 646 105 558 98 600 b 110 748 98 682 102 716 b 111 748 111 748 111 748 b 236 892 136 833 188 892 b 362 646 274 892 362 868 b 339 507 362 599 354 549 z "},"\u0000":{"ha":0,"x_min":0,"x_max":0,"o":""},"\n":{"ha":0,"x_min":0,"x_max":0,"o":""},"\r":{"ha":0,"x_min":0,"x_max":0,"o":""}," ":{"ha":354,"x_min":0,"x_max":0,"o":""},"!":{"ha":239,"x_min":0,"x_max":0,"o":"m 120 55 b 69 1 92 55 69 31 b 120 -54 69 -29 92 -54 b 170 1 147 -54 170 -29 b 120 55 170 31 147 55 z m 122 78 b 123 79 122 78 123 78 b 144 88 130 79 138 82 b 154 117 150 95 154 104 b 157 399 155 138 156 259 b 162 882 159 594 161 836 b 129 917 163 900 148 915 b 89 885 112 918 93 909 b 89 113 80 835 72 249 b 122 78 92 89 108 78 z "},"\"":{"ha":325,"x_min":0,"x_max":0,"o":"m 240 922 b 209 922 231 922 220 922 b 182 922 199 922 189 922 b 172 917 178 922 174 920 b 168 906 169 914 168 910 b 177 824 168 902 172 862 b 206 752 185 765 190 752 b 243 819 219 752 229 763 b 256 900 249 846 256 883 b 240 922 256 920 245 922 z m 141 922 b 110 922 133 922 121 922 b 84 922 100 922 91 922 b 73 917 80 922 76 920 b 69 906 70 914 69 910 b 79 824 70 902 73 862 b 107 752 87 765 92 752 b 144 819 120 752 131 763 b 158 900 151 846 158 883 b 141 922 158 920 146 922 z "},"#":{"ha":904,"x_min":0,"x_max":0,"o":"m 806 630 b 718 636 796 632 764 634 b 779 876 748 757 773 853 b 754 916 783 892 772 910 b 710 896 739 922 720 917 b 640 638 704 882 675 774 b 370 640 558 640 459 641 b 429 876 400 759 423 853 b 405 916 434 892 423 910 b 361 896 390 922 370 917 b 291 639 355 882 326 775 b 162 630 235 637 189 634 b 130 594 140 627 130 610 b 140 573 131 587 134 579 b 165 563 146 568 154 564 b 271 562 176 563 216 562 b 216 338 253 489 234 412 b 101 330 166 337 125 334 b 69 294 79 327 69 310 b 79 273 70 287 73 279 b 104 263 85 268 93 264 b 198 262 114 263 149 263 b 145 3 170 144 149 44 b 170 -38 142 -22 156 -36 b 175 -38 171 -38 173 -38 b 194 -32 181 -38 188 -36 b 207 -10 199 -27 204 -20 b 275 261 211 7 240 123 b 339 260 296 261 317 261 b 546 258 406 260 480 259 b 494 3 519 141 498 44 b 519 -38 491 -22 505 -36 b 524 -38 521 -38 522 -38 b 543 -32 530 -38 537 -36 b 556 -10 549 -27 553 -20 b 623 257 560 7 589 120 b 741 255 681 256 725 255 b 742 255 742 255 742 255 b 773 287 758 255 771 268 b 745 330 776 308 764 326 b 643 336 734 332 696 335 b 698 557 661 409 680 485 b 802 555 749 556 787 555 b 803 555 803 555 803 555 b 834 587 819 555 832 568 b 806 630 837 608 825 626 z m 565 339 b 295 340 482 340 382 341 b 350 561 313 413 332 489 b 400 560 366 561 383 560 b 620 558 472 559 550 559 b 565 339 601 486 583 411 z "},"$":{"ha":618,"x_min":0,"x_max":0,"o":"m 358 458 b 354 873 356 620 354 779 b 386 875 364 874 375 875 b 470 777 460 875 469 793 b 470 776 470 777 470 777 b 464 726 471 756 468 739 b 472 708 461 719 465 711 b 491 716 480 705 488 709 b 499 776 496 731 499 752 b 499 779 499 777 499 778 b 498 783 499 780 498 782 b 498 784 498 784 498 784 b 469 875 496 815 488 848 b 362 928 445 909 408 928 b 353 928 359 928 356 928 b 353 952 353 939 353 947 b 319 986 353 970 338 984 b 282 954 303 987 286 978 b 280 912 281 949 281 934 b 70 606 158 863 77 715 b 283 396 62 477 174 432 b 284 301 283 364 284 332 b 281 304 284 302 283 303 b 261 303 275 309 266 309 b 147 6 162 188 117 72 b 223 -39 160 -23 187 -39 b 225 -39 224 -39 224 -39 b 230 -39 226 -39 228 -39 b 233 -39 231 -39 232 -39 b 237 -38 235 -39 236 -39 b 241 -38 239 -38 240 -38 b 247 -37 243 -38 245 -38 b 296 -24 261 -35 278 -31 b 300 -57 298 -38 299 -49 b 332 -90 303 -80 319 -90 b 334 -90 333 -90 334 -90 b 363 -53 348 -89 363 -77 b 363 -53 363 -53 363 -53 b 362 6 363 -46 363 -25 b 408 37 378 15 393 25 b 548 293 467 82 540 163 b 358 458 554 386 458 424 z m 129 622 b 280 849 129 680 180 796 b 281 484 279 759 280 624 b 129 622 198 515 129 550 z m 258 -6 b 257 -6 257 -6 257 -6 b 230 -10 247 -8 238 -10 b 228 -11 230 -11 229 -11 b 225 -11 227 -11 226 -11 b 173 18 199 -11 182 -1 b 283 284 153 62 179 164 b 285 287 283 285 284 286 b 294 8 287 175 290 74 b 258 -6 282 2 269 -3 z m 495 239 b 362 50 491 177 430 101 b 360 278 361 109 361 188 b 359 372 359 308 359 340 b 495 239 439 344 500 311 z "},"%":{"ha":449,"x_min":0,"x_max":0,"o":"m 342 916 b 298 896 327 922 308 917 b 82 3 282 858 96 135 b 107 -38 79 -22 93 -36 b 112 -38 109 -38 110 -38 b 144 -10 124 -38 139 -30 b 219 289 149 8 181 138 b 367 876 280 531 355 833 b 342 916 371 892 360 910 z m 301 216 b 300 216 301 216 300 216 b 298 216 299 216 299 216 b 298 216 298 216 298 216 b 221 102 255 214 221 165 b 298 -12 221 39 255 -11 b 298 -12 298 -12 298 -12 b 300 -12 299 -12 299 -12 b 301 -12 300 -12 301 -12 b 379 102 345 -11 379 38 b 301 216 379 165 345 215 z m 301 16 b 260 105 281 20 259 52 b 301 187 260 143 273 183 b 350 102 328 186 350 148 b 301 16 350 56 328 17 z m 146 693 b 146 693 146 693 146 693 b 148 692 147 692 148 692 b 149 692 149 692 149 692 b 227 806 193 693 227 743 b 149 920 227 870 193 920 b 148 921 149 920 148 921 b 146 920 147 921 147 920 b 146 920 146 920 146 920 b 69 806 103 919 69 870 b 146 693 69 744 103 694 z m 149 892 b 198 806 176 891 198 852 b 149 721 198 761 176 722 b 108 810 129 725 108 757 b 149 892 108 848 121 888 z "},"&":{"ha":563,"x_min":0,"x_max":0,"o":"m 420 402 b 459 444 433 421 446 437 b 465 464 466 448 469 457 b 446 469 461 471 452 473 b 364 363 413 452 388 406 b 322 297 349 336 335 311 b 322 277 316 291 316 282 b 332 273 325 274 328 273 b 342 278 336 273 339 275 b 388 349 358 294 373 321 b 404 376 393 358 399 367 b 411 374 406 375 408 374 b 412 374 411 374 411 374 b 465 269 447 374 464 320 b 442 153 465 234 458 192 b 281 38 405 73 357 39 b 278 38 280 38 279 38 b 145 201 160 38 146 152 b 255 443 144 312 199 430 b 262 443 258 443 260 443 b 263 443 263 443 263 443 b 264 443 264 443 264 443 b 278 457 272 443 278 449 b 278 457 278 457 278 457 b 278 458 278 457 278 458 b 264 472 278 466 272 472 b 264 472 264 472 264 472 b 264 472 264 472 264 472 b 255 472 261 472 258 472 b 215 506 240 475 226 486 b 218 816 170 580 172 734 b 298 872 238 853 265 872 b 330 860 311 873 322 868 b 351 773 345 844 353 813 b 351 772 351 773 351 772 b 332 703 349 741 341 714 b 334 683 327 696 328 687 b 354 685 341 678 350 679 b 379 764 366 700 376 731 b 380 771 379 766 379 768 b 380 772 380 771 380 772 b 380 773 380 772 380 772 b 364 866 381 796 380 834 b 273 920 347 902 315 920 b 144 834 221 919 175 888 b 142 515 93 742 92 599 b 201 457 158 489 178 469 b 112 367 166 440 136 410 b 101 73 60 274 55 150 b 257 -10 124 35 169 -10 b 261 -10 259 -10 260 -10 b 471 146 367 -9 438 60 b 493 270 486 185 494 228 b 420 402 492 346 464 396 z "},"'":{"ha":226,"x_min":0,"x_max":0,"o":"m 141 922 b 110 922 133 922 121 922 b 84 922 100 922 91 922 b 73 917 80 922 76 920 b 69 906 71 914 69 910 b 79 824 70 902 73 862 b 107 752 87 765 92 752 b 144 819 120 752 131 763 b 158 900 151 846 158 883 b 141 922 158 920 146 922 z "},"(":{"ha":328,"x_min":0,"x_max":0,"o":"m 245 922 b 109 772 204 922 148 896 b 69 458 84 690 69 578 b 230 -10 69 232 120 -10 b 244 4 238 -10 244 -4 b 230 18 244 12 238 18 b 229 18 230 18 229 18 b 171 145 212 20 189 54 b 146 449 155 225 146 336 b 173 761 146 569 155 680 b 242 894 191 843 216 891 b 245 894 243 894 244 894 b 259 908 252 894 259 900 b 245 922 259 916 252 922 z "},")":{"ha":328,"x_min":0,"x_max":0,"o":"m 219 772 b 84 922 180 896 124 922 b 69 908 76 922 69 916 b 84 894 69 900 76 894 b 86 894 85 894 85 894 b 155 761 113 891 138 843 b 183 449 173 680 183 569 b 158 145 183 336 174 225 b 100 18 139 54 116 20 b 98 18 99 18 99 18 b 84 4 90 18 84 12 b 98 -10 84 -4 90 -10 b 101 -10 99 -10 100 -10 b 221 142 151 -8 192 44 b 259 458 245 225 259 340 b 219 772 259 578 245 690 z "},"*":{"ha":843,"x_min":0,"x_max":0,"o":"m 745 630 b 515 639 727 634 630 638 b 698 870 602 749 680 848 b 692 919 711 885 705 907 b 645 920 679 932 660 933 b 428 655 628 906 531 786 b 236 914 350 768 273 875 b 192 920 221 931 202 929 b 187 871 180 911 174 891 l 209 840 b 343 640 258 766 303 700 b 101 630 239 640 145 637 b 69 594 79 627 69 610 b 79 573 70 587 73 579 b 104 563 85 568 93 564 b 340 560 122 563 223 562 b 354 560 344 560 349 560 b 171 309 270 452 195 350 b 178 260 159 288 166 269 b 195 255 183 257 189 255 b 222 269 204 255 214 259 b 401 495 234 284 311 381 b 423 522 408 504 415 513 b 589 275 519 379 575 296 b 614 262 595 267 604 262 b 632 267 620 262 626 264 b 648 318 647 276 659 295 b 493 558 640 336 572 440 b 741 555 609 557 714 556 b 742 555 742 555 742 555 b 773 587 758 555 771 568 b 745 630 776 608 764 626 z "},"+":{"ha":760,"x_min":0,"x_max":0,"o":"m 662 483 b 417 493 639 488 520 492 b 420 753 418 611 419 721 b 388 787 421 770 407 785 b 350 756 372 788 354 779 b 341 493 346 733 343 619 b 101 483 262 493 155 491 b 69 447 79 480 69 463 b 79 426 70 440 73 432 b 104 416 85 421 93 416 b 306 413 122 416 207 415 b 341 413 317 413 329 413 b 350 127 341 296 343 181 b 382 93 353 103 368 93 b 383 93 382 93 382 93 b 413 130 397 93 412 105 b 415 357 413 150 414 246 b 416 412 415 375 416 393 b 658 408 525 410 629 409 b 659 408 658 408 659 408 b 690 440 675 408 688 421 b 662 483 693 461 681 479 z "},",":{"ha":240,"x_min":0,"x_max":0,"o":"m 170 1 b 170 1 170 1 170 1 b 120 55 169 31 147 55 b 69 1 92 55 69 31 b 120 -54 69 -29 92 -54 b 127 -53 122 -54 125 -54 b 114 -88 125 -72 118 -86 b 113 -88 114 -88 113 -88 b 99 -103 105 -88 99 -95 b 113 -117 99 -110 105 -117 b 116 -117 114 -117 115 -117 b 118 -116 117 -117 118 -117 b 120 -116 119 -116 119 -116 b 122 -116 120 -116 121 -116 b 123 -115 122 -115 123 -115 b 125 -114 124 -115 125 -115 b 141 -102 130 -112 136 -108 b 170 1 161 -79 174 -35 z "},"-":{"ha":760,"x_min":0,"x_max":0,"o":"m 662 483 b 410 493 638 488 515 492 b 101 483 341 494 173 494 b 69 447 79 480 69 463 b 79 426 70 440 73 432 b 104 416 85 421 93 416 b 306 413 122 416 207 415 b 658 408 445 411 619 409 b 659 408 658 408 659 408 b 690 440 675 408 688 421 b 662 483 693 461 681 479 z "},".":{"ha":239,"x_min":0,"x_max":0,"o":"m 120 55 b 69 1 92 55 69 31 b 120 -54 69 -29 92 -54 b 170 1 147 -54 170 -29 b 120 55 170 31 147 55 z "},"/":{"ha":425,"x_min":0,"x_max":0,"o":"m 330 916 b 286 896 315 922 296 917 b 70 3 270 858 84 135 b 95 -38 67 -22 81 -36 b 100 -38 97 -38 98 -38 b 119 -32 106 -38 113 -36 b 132 -10 124 -27 129 -20 b 207 289 137 8 169 138 b 355 876 268 531 343 833 b 330 916 359 892 348 910 z "},":":{"ha":239,"x_min":0,"x_max":0,"o":"m 120 562 b 170 617 147 562 170 587 b 120 672 170 647 147 672 b 69 617 92 672 69 647 b 120 562 69 587 92 562 z m 120 56 b 69 2 92 56 69 32 b 120 -53 69 -28 92 -53 b 170 2 147 -53 170 -28 b 120 56 170 32 147 56 z "},";":{"ha":240,"x_min":0,"x_max":0,"o":"m 170 1 b 170 1 170 1 170 1 b 120 55 169 31 147 55 b 69 1 92 55 69 31 b 120 -54 69 -29 92 -54 b 127 -53 122 -54 125 -54 b 114 -88 125 -72 118 -86 b 113 -88 114 -88 114 -88 b 99 -103 106 -88 99 -95 b 113 -117 99 -110 106 -117 b 116 -117 114 -117 115 -117 b 118 -116 117 -117 118 -117 b 120 -116 119 -116 119 -116 b 122 -116 120 -116 121 -116 b 123 -115 122 -115 123 -115 b 125 -114 124 -115 125 -115 b 141 -102 130 -112 136 -108 b 170 1 161 -79 174 -35 z m 120 562 b 170 617 148 562 170 587 b 120 672 170 647 148 672 b 70 617 92 672 70 647 b 120 562 70 587 92 562 z "},"<":{"ha":621,"x_min":0,"x_max":0,"o":"m 540 134 b 150 450 516 159 277 371 b 293 575 183 480 237 526 b 528 780 395 662 500 753 b 527 830 542 793 538 817 b 481 836 515 845 497 847 b 81 477 444 810 156 579 b 71 451 75 469 72 460 b 86 411 67 439 71 423 b 264 265 102 399 181 334 b 499 73 365 182 469 95 b 516 67 504 69 510 67 b 541 79 525 67 534 71 b 540 134 553 93 557 116 z "},"=":{"ha":760,"x_min":0,"x_max":0,"o":"m 79 515 b 104 505 85 509 93 505 b 306 502 122 504 207 503 b 658 496 446 500 619 498 b 659 496 658 496 659 496 b 690 529 675 496 688 510 b 662 571 693 550 681 567 b 410 581 638 576 515 580 b 101 572 341 582 173 582 b 69 536 79 568 69 551 b 79 515 70 528 73 521 z m 662 412 b 410 422 638 417 515 421 b 101 412 341 422 173 423 b 69 376 79 409 69 391 b 79 355 70 369 73 361 b 104 345 85 349 93 345 b 306 342 122 344 207 343 b 658 336 446 340 619 338 b 659 336 658 336 659 336 b 690 369 675 336 688 350 b 662 412 693 390 681 407 z "},">":{"ha":621,"x_min":0,"x_max":0,"o":"m 550 451 b 540 477 549 460 546 469 b 140 836 465 579 177 810 b 94 830 124 847 106 845 b 93 780 83 817 79 793 b 328 575 121 753 226 662 b 440 477 369 539 409 505 b 471 450 452 467 462 458 b 81 134 345 371 105 159 b 80 79 64 116 68 93 b 105 67 87 71 96 67 b 122 73 111 67 117 69 b 357 265 152 95 256 182 b 471 359 399 300 439 333 b 535 411 503 386 527 405 b 550 451 550 423 554 439 z "},"?":{"ha":479,"x_min":0,"x_max":0,"o":"m 390 869 b 259 922 366 904 323 922 b 105 830 190 922 137 890 b 76 743 90 802 81 771 b 69 676 72 722 69 699 b 83 662 69 668 76 662 b 98 676 91 662 98 668 b 104 737 98 694 100 715 b 246 884 122 824 177 884 b 336 852 292 884 322 874 b 262 531 373 797 319 668 b 144 121 207 399 144 248 b 184 89 144 101 164 89 b 219 123 204 89 219 103 b 319 478 219 222 270 352 b 390 869 383 639 443 791 z m 186 55 b 136 1 159 55 136 31 b 186 -54 136 -29 159 -54 b 236 1 214 -54 236 -29 b 186 55 236 31 214 55 z "},"@":{"ha":799,"x_min":0,"x_max":0,"o":"m 434 922 b 180 813 335 922 244 884 b 69 481 108 735 69 620 b 202 154 69 335 114 225 b 477 67 290 82 400 67 b 491 81 485 67 491 73 b 477 96 491 89 485 96 b 129 459 236 96 129 278 b 416 869 129 741 297 869 b 631 755 510 869 582 830 b 687 564 672 692 687 615 b 571 236 687 315 596 236 b 542 250 559 236 550 241 b 540 667 486 318 523 580 b 530 694 542 677 538 687 b 487 702 519 704 501 707 b 463 672 474 697 465 686 l 462 669 b 462 668 462 669 462 669 b 456 649 460 663 458 656 b 435 583 451 633 444 610 b 423 618 432 594 428 606 b 422 619 423 618 423 619 b 414 635 420 624 418 630 b 413 638 414 636 413 637 b 338 684 397 663 374 684 b 244 610 300 684 267 657 b 215 469 225 571 215 520 b 298 319 215 378 247 319 b 409 435 340 319 377 366 b 442 516 420 460 431 487 b 440 478 441 503 440 490 b 485 233 434 359 449 276 b 560 198 505 210 530 198 b 729 555 661 198 729 383 b 434 922 729 733 626 922 z m 380 441 b 380 441 380 441 380 441 b 317 363 341 365 320 363 b 303 381 310 363 305 374 b 295 445 298 396 295 418 b 364 643 295 541 330 643 b 393 614 373 643 386 629 b 394 613 394 614 394 614 b 416 543 404 593 410 568 b 418 534 417 540 418 537 b 380 441 407 503 394 470 z "},"A":{"ha":1047,"x_min":0,"x_max":0,"o":"m 1014 277 b 995 284 1010 284 1002 287 b 791 224 919 247 852 230 b 742 614 764 339 752 484 b 703 914 732 740 724 849 b 703 914 703 914 703 914 b 675 943 700 927 688 939 b 637 926 659 949 643 942 b 630 896 636 923 635 919 b 488 402 613 823 564 602 b 443 294 475 367 460 330 b 167 283 353 322 265 336 b 74 84 95 244 55 158 b 212 -14 90 22 141 -14 b 502 245 319 -14 416 73 b 770 194 581 218 667 190 b 948 -14 802 73 855 -14 b 962 0 956 -14 962 -8 b 948 14 962 8 956 14 b 798 196 873 14 827 89 b 1007 258 861 202 930 220 b 1014 277 1014 261 1017 270 z m 196 30 b 121 62 165 30 138 41 b 104 161 101 86 95 120 b 104 162 104 161 104 162 b 181 258 114 199 139 236 b 431 268 268 306 347 294 b 196 30 369 141 288 30 z m 514 270 b 551 355 527 297 539 325 b 690 842 623 537 669 742 b 714 612 701 779 707 697 b 762 223 724 483 735 340 b 514 270 668 220 588 245 z "},"À":{"ha":1047,"x_min":0,"x_max":0,"o":"m 1014 277 b 995 284 1010 284 1002 287 b 791 224 919 247 852 230 b 742 614 764 339 752 484 b 703 914 732 740 724 849 b 703 914 703 914 703 914 b 675 943 700 927 688 939 b 637 926 659 949 643 942 b 630 896 636 923 635 919 b 488 402 613 823 564 602 b 443 294 475 367 460 330 b 167 283 353 322 265 336 b 74 84 95 244 55 158 b 212 -14 90 22 141 -14 b 502 245 319 -14 416 73 b 770 194 581 218 667 190 b 948 -14 802 73 855 -14 b 962 0 956 -14 962 -8 b 948 14 962 8 956 14 b 798 196 873 14 827 89 b 1007 258 861 202 930 220 b 1014 277 1014 261 1017 270 z m 196 30 b 121 62 165 30 138 41 b 104 161 101 86 95 120 b 104 162 104 161 104 162 b 181 258 114 199 139 236 b 431 268 268 306 347 294 b 196 30 369 141 288 30 z m 514 270 b 551 355 527 297 539 325 b 690 842 623 537 669 742 b 714 612 701 779 707 697 b 762 223 724 483 735 340 b 514 270 668 220 588 245 z "},"Á":{"ha":1047,"x_min":0,"x_max":0,"o":"m 1014 277 b 995 284 1010 284 1002 287 b 791 224 919 247 852 230 b 742 614 764 339 752 484 b 703 914 732 740 724 849 b 703 914 703 914 703 914 b 675 943 700 927 688 939 b 637 926 659 949 643 942 b 630 896 636 923 635 919 b 488 402 613 823 564 602 b 443 294 475 367 460 330 b 167 283 353 322 265 336 b 74 84 95 244 55 158 b 212 -14 90 22 141 -14 b 502 245 319 -14 416 73 b 770 194 581 218 667 190 b 948 -14 802 73 855 -14 b 962 0 956 -14 962 -8 b 948 14 962 8 956 14 b 798 196 873 14 827 89 b 1007 258 861 202 930 220 b 1014 277 1014 261 1017 270 z m 196 30 b 121 62 165 30 138 41 b 104 161 101 86 95 120 b 104 162 104 161 104 162 b 181 258 114 199 139 236 b 431 268 268 306 347 294 b 196 30 369 141 288 30 z m 514 270 b 551 355 527 297 539 325 b 690 842 623 537 669 742 b 714 612 701 779 707 697 b 762 223 724 483 735 340 b 514 270 668 220 588 245 z "},"Â":{"ha":1047,"x_min":0,"x_max":0,"o":"m 1014 277 b 995 284 1010 284 1002 287 b 791 224 919 247 852 230 b 742 614 764 339 752 484 b 703 914 732 740 724 849 b 703 914 703 914 703 914 b 675 943 700 927 688 939 b 637 926 659 949 643 942 b 630 896 636 923 635 919 b 488 402 613 823 564 602 b 443 294 475 367 460 330 b 167 283 353 322 265 336 b 74 84 95 244 55 158 b 212 -14 90 22 141 -14 b 502 245 319 -14 416 73 b 770 194 581 218 667 190 b 948 -14 802 73 855 -14 b 962 0 956 -14 962 -8 b 948 14 962 8 956 14 b 798 196 873 14 827 89 b 1007 258 861 202 930 220 b 1014 277 1014 261 1017 270 z m 196 30 b 121 62 165 30 138 41 b 104 161 101 86 95 120 b 104 162 104 161 104 162 b 181 258 114 199 139 236 b 431 268 268 306 347 294 b 196 30 369 141 288 30 z m 514 270 b 551 355 527 297 539 325 b 690 842 623 537 669 742 b 714 612 701 779 707 697 b 762 223 724 483 735 340 b 514 270 668 220 588 245 z "},"Ã":{"ha":1047,"x_min":0,"x_max":0,"o":"m 1014 277 b 995 284 1010 284 1002 287 b 791 224 919 247 852 230 b 742 614 764 339 752 484 b 703 914 732 740 724 849 b 703 914 703 914 703 914 b 675 943 700 927 688 939 b 637 926 659 949 643 942 b 630 896 636 923 635 919 b 488 402 613 823 564 602 b 443 294 475 367 460 330 b 167 283 353 322 265 336 b 74 84 95 244 55 158 b 212 -14 90 22 141 -14 b 502 245 319 -14 416 73 b 770 194 581 218 667 190 b 948 -14 802 73 855 -14 b 962 0 956 -14 962 -8 b 948 14 962 8 956 14 b 798 196 873 14 827 89 b 1007 258 861 202 930 220 b 1014 277 1014 261 1017 270 z m 196 30 b 121 62 165 30 138 41 b 104 161 101 86 95 120 b 104 162 104 161 104 162 b 181 258 114 199 139 236 b 431 268 268 306 347 294 b 196 30 369 141 288 30 z m 514 270 b 551 355 527 297 539 325 b 690 842 623 537 669 742 b 714 612 701 779 707 697 b 762 223 724 483 735 340 b 514 270 668 220 588 245 z "},"Ä":{"ha":1047,"x_min":0,"x_max":0,"o":"m 1014 277 b 995 284 1010 284 1002 287 b 791 224 919 247 852 230 b 742 614 764 339 752 484 b 703 914 732 740 724 849 b 703 914 703 914 703 914 b 675 943 700 927 688 939 b 637 926 659 949 643 942 b 630 896 636 923 635 919 b 488 402 613 823 564 602 b 443 294 475 367 460 330 b 167 283 353 322 265 336 b 74 84 95 244 55 158 b 212 -14 90 22 141 -14 b 502 245 319 -14 416 73 b 770 194 581 218 667 190 b 948 -14 802 73 855 -14 b 962 0 956 -14 962 -8 b 948 14 962 8 956 14 b 798 196 873 14 827 89 b 1007 258 861 202 930 220 b 1014 277 1014 261 1017 270 z m 196 30 b 121 62 165 30 138 41 b 104 161 101 86 95 120 b 104 162 104 161 104 162 b 181 258 114 199 139 236 b 431 268 268 306 347 294 b 196 30 369 141 288 30 z m 514 270 b 551 355 527 297 539 325 b 690 842 623 537 669 742 b 714 612 701 779 707 697 b 762 223 724 483 735 340 b 514 270 668 220 588 245 z "},"Å":{"ha":1047,"x_min":0,"x_max":0,"o":"m 1014 277 b 995 284 1010 284 1002 287 b 791 224 919 247 852 230 b 742 614 764 339 752 484 b 703 914 732 740 724 849 b 703 914 703 914 703 914 b 675 943 700 927 688 939 b 637 926 659 949 643 942 b 630 896 636 923 635 919 b 488 402 613 823 564 602 b 443 294 475 367 460 330 b 167 283 353 322 265 336 b 74 84 95 244 55 158 b 212 -14 90 22 141 -14 b 502 245 319 -14 416 73 b 770 194 581 218 667 190 b 948 -14 802 73 855 -14 b 962 0 956 -14 962 -8 b 948 14 962 8 956 14 b 798 196 873 14 827 89 b 1007 258 861 202 930 220 b 1014 277 1014 261 1017 270 z m 196 30 b 121 62 165 30 138 41 b 104 161 101 86 95 120 b 104 162 104 161 104 162 b 181 258 114 199 139 236 b 431 268 268 306 347 294 b 196 30 369 141 288 30 z m 514 270 b 551 355 527 297 539 325 b 690 842 623 537 669 742 b 714 612 701 779 707 697 b 762 223 724 483 735 340 b 514 270 668 220 588 245 z "},"B":{"ha":926,"x_min":0,"x_max":0,"o":"m 613 465 b 768 697 714 505 768 603 b 454 934 768 839 642 934 b 194 690 287 934 194 790 b 206 668 194 681 198 673 b 225 663 211 665 218 663 b 266 690 242 663 266 672 b 299 796 266 691 269 744 b 471 893 335 860 393 893 b 693 679 671 893 693 743 b 510 474 693 557 598 474 b 496 460 502 474 496 468 b 510 446 496 452 502 446 b 516 446 512 446 513 446 b 783 197 561 445 783 428 b 581 -39 783 88 695 -39 b 439 10 537 -39 476 -31 b 419 10 434 15 425 16 b 418 -10 413 5 413 -4 b 581 -68 453 -48 509 -68 b 586 -68 582 -68 584 -68 b 857 196 748 -65 857 40 b 613 465 857 336 764 434 z m 442 774 b 438 814 440 793 439 808 b 401 846 438 832 418 846 b 370 820 384 847 372 836 b 372 793 370 817 370 813 b 215 26 409 340 353 67 b 139 34 187 17 160 20 b 98 117 116 50 101 78 b 98 117 98 117 98 117 b 141 223 97 153 110 192 b 141 243 146 228 146 237 b 121 243 135 248 126 248 b 90 40 67 189 53 101 b 194 -18 113 2 150 -18 b 242 -11 209 -18 225 -16 b 442 774 505 68 457 599 z "},"C":{"ha":785,"x_min":0,"x_max":0,"o":"m 816 282 b 798 273 809 284 800 281 b 715 122 787 244 758 180 b 709 115 713 120 711 117 b 709 114 709 115 709 114 b 570 25 692 93 632 25 b 413 140 487 25 439 88 b 360 412 379 210 360 306 b 378 592 360 474 366 535 b 420 591 391 591 405 591 b 646 667 507 591 588 618 b 728 820 697 710 728 768 b 694 900 728 852 716 880 b 595 932 671 921 637 932 b 364 755 504 932 422 869 b 319 639 346 720 331 681 b 238 669 288 646 261 656 b 143 828 175 703 143 757 b 103 858 143 847 123 858 b 69 829 83 858 69 846 b 148 670 69 770 98 712 b 308 600 189 636 243 612 b 284 392 292 534 284 463 b 345 110 284 282 306 182 b 545 -17 391 27 460 -17 b 738 105 613 -17 677 24 b 824 263 783 166 813 233 b 816 282 827 271 823 279 z m 427 742 b 614 892 460 810 520 892 b 675 872 641 892 662 885 b 694 823 687 860 694 844 b 434 627 694 741 595 627 b 386 629 418 627 402 627 b 427 742 397 670 411 708 z "},"Ç":{"ha":785,"x_min":0,"x_max":0,"o":"m 816 282 b 798 273 809 284 800 281 b 715 122 787 244 758 180 b 709 115 713 120 711 117 b 709 114 709 115 709 114 b 570 25 692 93 632 25 b 413 140 487 25 439 88 b 360 412 379 210 360 306 b 378 592 360 474 366 535 b 420 591 391 591 405 591 b 646 667 507 591 588 618 b 728 820 697 710 728 768 b 694 900 728 852 716 880 b 595 932 671 921 637 932 b 364 755 504 932 422 869 b 319 639 346 720 331 681 b 238 669 288 646 261 656 b 143 828 175 703 143 757 b 103 858 143 847 123 858 b 69 829 83 858 69 846 b 148 670 69 770 98 712 b 308 600 189 636 243 612 b 284 392 292 534 284 463 b 345 110 284 282 306 182 b 545 -17 391 27 460 -17 b 738 105 613 -17 677 24 b 824 263 783 166 813 233 b 816 282 827 271 823 279 z m 427 742 b 614 892 460 810 520 892 b 675 872 641 892 662 885 b 694 823 687 860 694 844 b 434 627 694 741 595 627 b 386 629 418 627 402 627 b 427 742 397 670 411 708 z "},"D":{"ha":894,"x_min":0,"x_max":0,"o":"m 734 816 b 454 934 664 892 565 934 b 194 690 287 934 194 790 b 206 668 194 681 198 673 b 225 663 211 665 218 663 b 266 690 242 663 266 672 b 299 796 266 691 269 744 b 471 893 335 860 393 893 b 682 779 551 893 626 852 b 772 484 740 703 772 598 b 664 120 772 291 713 179 b 468 14 610 54 536 14 b 454 0 460 14 454 8 b 468 -14 454 -8 460 -14 b 751 131 584 -14 682 36 b 849 469 814 217 849 337 b 734 816 849 613 809 733 z m 442 774 b 438 814 440 793 439 807 b 401 846 438 832 418 846 b 370 820 384 847 372 836 b 372 793 370 817 370 813 b 215 26 409 340 353 67 b 139 34 187 17 160 20 b 98 117 116 50 101 78 b 98 117 98 117 98 117 b 141 223 97 153 110 192 b 141 243 146 228 146 237 b 121 243 135 248 126 248 b 90 40 67 189 53 101 b 194 -18 113 2 150 -18 b 242 -11 209 -18 225 -16 b 442 774 505 68 457 599 z "},"E":{"ha":786,"x_min":0,"x_max":0,"o":"m 820 283 b 801 278 814 287 805 285 b 681 120 784 251 740 180 b 664 103 675 114 669 108 b 664 103 664 103 664 103 l 662 102 b 516 26 595 39 546 26 b 356 264 406 26 356 150 b 402 442 356 331 373 396 b 535 521 425 478 466 521 b 550 535 543 521 550 527 b 535 549 550 543 543 549 b 446 584 496 549 467 561 b 419 657 431 602 421 627 b 420 657 420 657 420 657 b 728 843 621 657 728 765 b 693 909 728 869 716 893 b 595 934 670 926 637 934 b 350 699 472 934 366 811 b 238 735 307 706 268 718 b 143 894 175 770 143 823 b 103 924 143 913 123 924 b 69 896 83 924 69 913 b 148 736 69 836 98 778 b 349 661 197 696 265 670 b 393 565 351 622 366 589 b 450 533 408 551 428 540 b 284 239 341 488 284 360 b 333 65 284 171 301 110 b 489 -14 370 13 424 -14 b 675 74 556 -14 620 25 b 682 81 677 76 679 79 l 683 82 b 684 83 683 82 684 83 b 825 263 752 148 804 228 b 820 283 829 270 827 279 z m 614 894 b 677 879 641 894 663 889 b 694 844 688 870 694 858 b 434 693 694 790 607 693 b 420 693 429 693 425 693 b 614 894 431 784 503 894 z "},"È":{"ha":786,"x_min":0,"x_max":0,"o":"m 820 283 b 801 278 814 287 805 285 b 681 120 784 251 740 180 b 664 103 675 114 669 108 b 664 103 664 103 664 103 l 662 102 b 516 26 595 39 546 26 b 356 264 406 26 356 150 b 402 442 356 331 373 396 b 535 521 425 478 466 521 b 550 535 543 521 550 527 b 535 549 550 543 543 549 b 446 584 496 549 467 561 b 419 657 431 602 421 627 b 420 657 420 657 420 657 b 728 843 621 657 728 765 b 693 909 728 869 716 893 b 595 934 670 926 637 934 b 350 699 472 934 366 811 b 238 735 307 706 268 718 b 143 894 175 770 143 823 b 103 924 143 913 123 924 b 69 896 83 924 69 913 b 148 736 69 836 98 778 b 349 661 197 696 265 670 b 393 565 351 622 366 589 b 450 533 408 551 428 540 b 284 239 341 488 284 360 b 333 65 284 171 301 110 b 489 -14 370 13 424 -14 b 675 74 556 -14 620 25 b 682 81 677 76 679 79 l 683 82 b 684 83 683 82 684 83 b 825 263 752 148 804 228 b 820 283 829 270 827 279 z m 614 894 b 677 879 641 894 663 889 b 694 844 688 870 694 858 b 434 693 694 790 607 693 b 420 693 429 693 425 693 b 614 894 431 784 503 894 z "},"É":{"ha":786,"x_min":0,"x_max":0,"o":"m 820 283 b 801 278 814 287 805 285 b 681 120 784 251 740 180 b 664 103 675 114 669 108 b 664 103 664 103 664 103 l 662 102 b 516 26 595 39 546 26 b 356 264 406 26 356 150 b 402 442 356 331 373 396 b 535 521 425 478 466 521 b 550 535 543 521 550 527 b 535 549 550 543 543 549 b 446 584 496 549 467 561 b 419 657 431 602 421 627 b 420 657 420 657 420 657 b 728 843 621 657 728 765 b 693 909 728 869 716 893 b 595 934 670 926 637 934 b 350 699 472 934 366 811 b 238 735 307 706 268 718 b 143 894 175 770 143 823 b 103 924 143 913 123 924 b 69 896 83 924 69 913 b 148 736 69 836 98 778 b 349 661 197 696 265 670 b 393 565 351 622 366 589 b 450 533 408 551 428 540 b 284 239 341 488 284 360 b 333 65 284 171 301 110 b 489 -14 370 13 424 -14 b 675 74 556 -14 620 25 b 682 81 677 76 679 79 l 683 82 b 684 83 683 82 684 83 b 825 263 752 148 804 228 b 820 283 829 270 827 279 z m 614 894 b 677 879 641 894 663 889 b 694 844 688 870 694 858 b 434 693 694 790 607 693 b 420 693 429 693 425 693 b 614 894 431 784 503 894 z "},"Ê":{"ha":786,"x_min":0,"x_max":0,"o":"m 820 283 b 801 278 814 287 805 285 b 681 120 784 251 740 180 b 664 103 675 114 669 108 b 664 103 664 103 664 103 l 662 102 b 516 26 595 39 546 26 b 356 264 406 26 356 150 b 402 442 356 331 373 396 b 535 521 425 478 466 521 b 550 535 543 521 550 527 b 535 549 550 543 543 549 b 446 584 496 549 467 561 b 419 657 431 602 421 627 b 420 657 420 657 420 657 b 728 843 621 657 728 765 b 693 909 728 869 716 893 b 595 934 670 926 637 934 b 350 699 472 934 366 811 b 238 735 307 706 268 718 b 143 894 175 770 143 823 b 103 924 143 913 123 924 b 69 896 83 924 69 913 b 148 736 69 836 98 778 b 349 661 197 696 265 670 b 393 565 351 622 366 589 b 450 533 408 551 428 540 b 284 239 341 488 284 360 b 333 65 284 171 301 110 b 489 -14 370 13 424 -14 b 675 74 556 -14 620 25 b 682 81 677 76 679 79 l 683 82 b 684 83 683 82 684 83 b 825 263 752 148 804 228 b 820 283 829 270 827 279 z m 614 894 b 677 879 641 894 663 889 b 694 844 688 870 694 858 b 434 693 694 790 607 693 b 420 693 429 693 425 693 b 614 894 431 784 503 894 z "},"Ë":{"ha":786,"x_min":0,"x_max":0,"o":"m 820 283 b 801 278 814 287 805 285 b 681 120 784 251 740 180 b 664 103 675 114 669 108 b 664 103 664 103 664 103 l 662 102 b 516 26 595 39 546 26 b 356 264 406 26 356 150 b 402 442 356 331 373 396 b 535 521 425 478 466 521 b 550 535 543 521 550 527 b 535 549 550 543 543 549 b 446 584 496 549 467 561 b 419 657 431 602 421 627 b 420 657 420 657 420 657 b 728 843 621 657 728 765 b 693 909 728 869 716 893 b 595 934 670 926 637 934 b 350 699 472 934 366 811 b 238 735 307 706 268 718 b 143 894 175 770 143 823 b 103 924 143 913 123 924 b 69 896 83 924 69 913 b 148 736 69 836 98 778 b 349 661 197 696 265 670 b 393 565 351 622 366 589 b 450 533 408 551 428 540 b 284 239 341 488 284 360 b 333 65 284 171 301 110 b 489 -14 370 13 424 -14 b 675 74 556 -14 620 25 b 682 81 677 76 679 79 l 683 82 b 684 83 683 82 684 83 b 825 263 752 148 804 228 b 820 283 829 270 827 279 z m 614 894 b 677 879 641 894 663 889 b 694 844 688 870 694 858 b 434 693 694 790 607 693 b 420 693 429 693 425 693 b 614 894 431 784 503 894 z "},"F":{"ha":610,"x_min":0,"x_max":0,"o":"m 850 880 b 868 920 862 891 868 905 b 853 934 868 928 861 934 b 839 920 845 934 839 928 b 839 919 839 920 839 919 b 836 914 839 918 838 916 b 574 899 812 891 691 895 b 136 847 401 906 205 913 b 109 788 119 831 110 811 b 109 785 109 787 109 786 b 124 771 109 777 116 771 b 138 785 132 771 138 777 b 146 803 138 792 140 797 b 377 836 174 831 271 836 b 370 820 373 832 371 826 b 372 793 370 817 370 813 b 382 487 381 679 385 577 b 282 470 329 488 297 485 b 283 450 277 464 277 455 b 293 446 286 447 289 446 b 303 450 297 446 300 447 b 381 459 310 458 345 459 b 215 26 372 206 315 56 b 139 34 187 17 160 20 b 98 117 116 50 101 78 b 98 117 98 117 98 117 b 141 223 97 153 110 192 b 141 243 146 228 146 237 b 121 243 135 248 126 248 b 90 40 67 189 53 101 b 194 -18 113 2 150 -18 b 242 -11 209 -18 225 -16 b 454 456 403 37 447 255 b 614 474 519 454 581 454 b 619 493 621 478 623 486 b 600 498 615 500 606 502 b 455 485 573 483 513 483 b 442 774 457 602 447 711 b 439 814 440 793 439 807 b 427 836 438 823 434 831 b 480 835 445 836 463 836 b 850 880 645 833 800 830 z "},"G":{"ha":1040,"x_min":0,"x_max":0,"o":"m 1071 283 b 1053 274 1064 286 1056 282 b 859 80 1016 169 941 123 b 867 433 867 207 868 333 b 867 447 867 439 867 444 b 855 473 867 457 863 466 b 832 480 849 478 841 480 b 801 463 818 480 806 474 b 800 461 801 462 800 462 b 798 451 799 458 798 455 b 652 107 771 328 722 194 b 514 28 633 85 578 28 b 374 124 454 28 407 60 b 327 361 343 183 327 265 b 359 596 327 439 339 521 b 420 593 378 594 399 593 b 646 670 507 593 588 621 b 728 823 697 713 728 770 b 694 902 728 855 716 883 b 595 934 671 923 637 934 b 303 646 466 934 362 809 b 238 672 279 652 257 661 b 143 831 175 706 143 760 b 103 861 143 850 123 861 b 69 832 83 861 69 849 b 148 673 69 773 98 715 b 290 607 185 642 233 620 b 250 346 264 524 250 433 b 306 96 250 245 270 158 b 489 -14 347 24 411 -14 b 715 149 575 -14 651 41 b 801 350 755 215 782 288 b 788 43 801 270 798 158 b 583 -142 712 3 638 -46 b 542 -313 551 -198 539 -259 b 547 -357 542 -325 544 -340 b 569 -416 552 -380 560 -400 b 652 -470 589 -451 619 -470 b 729 -435 680 -470 706 -458 b 856 46 806 -358 841 -159 b 1080 265 950 94 1037 143 b 1071 283 1083 272 1079 280 z m 406 723 b 614 894 437 787 506 894 b 675 875 641 894 662 888 b 694 826 687 863 694 846 b 434 629 694 744 595 629 b 370 633 412 629 390 631 b 406 723 380 665 392 695 z m 679 -403 b 634 -426 665 -419 650 -426 b 605 -413 623 -426 613 -422 b 570 -310 578 -387 570 -332 b 570 -307 570 -309 570 -308 b 608 -156 569 -253 585 -196 b 785 9 655 -74 719 -28 b 679 -403 769 -166 737 -340 z "},"H":{"ha":1021,"x_min":0,"x_max":0,"o":"m 1054 284 b 1035 277 1047 287 1038 284 b 1030 265 1033 273 1032 269 b 939 93 997 192 967 134 b 862 31 924 73 894 31 b 840 43 854 31 847 35 b 782 476 801 88 781 241 b 896 479 822 478 860 479 b 910 493 904 479 910 485 b 896 507 910 501 904 507 b 782 504 856 507 818 506 b 782 515 782 508 782 511 b 802 917 785 721 801 910 b 773 952 805 933 792 949 b 732 922 756 955 736 947 b 710 498 731 919 711 715 b 370 417 564 484 453 452 b 378 876 382 534 386 685 b 378 894 378 884 378 890 b 340 926 377 912 357 926 b 309 899 323 927 311 916 b 310 875 309 897 309 894 b 295 380 315 679 310 512 b 252 354 279 371 265 363 b 77 139 148 285 96 205 b 77 138 77 139 77 139 b 71 111 74 130 73 121 b 69 86 70 103 69 94 b 150 -12 69 28 102 -12 b 251 34 188 -12 222 4 b 367 384 295 80 343 179 b 710 470 475 433 596 458 b 784 15 710 279 726 85 b 841 -14 801 -4 819 -14 b 963 78 885 -14 926 25 l 964 79 b 965 80 964 80 964 80 b 1056 253 1000 132 1031 197 b 1061 265 1058 258 1059 262 b 1054 284 1064 272 1061 281 z m 195 58 b 133 29 176 39 156 29 b 112 41 125 29 118 33 b 99 108 101 56 97 82 b 104 128 100 114 102 121 b 104 130 104 129 104 129 b 105 132 104 130 104 131 b 268 330 121 191 170 265 b 291 345 275 335 283 340 b 195 58 272 202 239 104 z "},"I":{"ha":381,"x_min":0,"x_max":0,"o":"m 413 284 b 395 277 406 287 398 284 b 389 265 393 273 391 269 b 298 93 357 192 327 134 b 221 31 284 73 253 31 b 199 43 214 31 206 35 b 142 515 159 90 138 258 b 162 917 144 721 161 910 b 133 952 165 933 152 949 b 92 922 116 955 96 947 b 144 15 90 915 17 167 b 200 -14 160 -4 179 -14 b 323 78 244 -14 286 25 l 323 79 b 324 80 324 80 324 80 b 415 253 360 132 391 197 b 421 265 417 258 419 262 b 413 284 424 272 421 281 z "},"Ì":{"ha":381,"x_min":0,"x_max":0,"o":"m 413 284 b 395 277 406 287 398 284 b 389 265 393 273 391 269 b 298 93 357 192 327 134 b 221 31 284 73 253 31 b 199 43 214 31 206 35 b 142 515 159 90 138 258 b 162 917 144 721 161 910 b 133 952 165 933 152 949 b 92 922 116 955 96 947 b 144 15 90 915 17 167 b 200 -14 160 -4 179 -14 b 323 78 244 -14 286 25 l 323 79 b 324 80 324 80 324 80 b 415 253 360 132 391 197 b 421 265 417 258 419 262 b 413 284 424 272 421 281 z "},"Í":{"ha":381,"x_min":0,"x_max":0,"o":"m 413 284 b 395 277 406 287 398 284 b 389 265 393 273 391 269 b 298 93 357 192 327 134 b 221 31 284 73 253 31 b 199 43 214 31 206 35 b 142 515 159 90 138 258 b 162 917 144 721 161 910 b 133 952 165 933 152 949 b 92 922 116 955 96 947 b 144 15 90 915 17 167 b 200 -14 160 -4 179 -14 b 323 78 244 -14 286 25 l 323 79 b 324 80 324 80 324 80 b 415 253 360 132 391 197 b 421 265 417 258 419 262 b 413 284 424 272 421 281 z "},"Î":{"ha":381,"x_min":0,"x_max":0,"o":"m 413 284 b 395 277 406 287 398 284 b 389 265 393 273 391 269 b 298 93 357 192 327 134 b 221 31 284 73 253 31 b 199 43 214 31 206 35 b 142 515 159 90 138 258 b 162 917 144 721 161 910 b 133 952 165 933 152 949 b 92 922 116 955 96 947 b 144 15 90 915 17 167 b 200 -14 160 -4 179 -14 b 323 78 244 -14 286 25 l 323 79 b 324 80 324 80 324 80 b 415 253 360 132 391 197 b 421 265 417 258 419 262 b 413 284 424 272 421 281 z "},"Ï":{"ha":381,"x_min":0,"x_max":0,"o":"m 413 284 b 395 277 406 287 398 284 b 389 265 393 273 391 269 b 298 93 357 192 327 134 b 221 31 284 73 253 31 b 199 43 214 31 206 35 b 142 515 159 90 138 258 b 162 917 144 721 161 910 b 133 952 165 933 152 949 b 92 922 116 955 96 947 b 144 15 90 915 17 167 b 200 -14 160 -4 179 -14 b 323 78 244 -14 286 25 l 323 79 b 324 80 324 80 324 80 b 415 253 360 132 391 197 b 421 265 417 258 419 262 b 413 284 424 272 421 281 z "},"J":{"ha":594,"x_min":0,"x_max":0,"o":"m 813 934 b 799 920 806 934 799 928 b 799 919 799 920 799 919 b 796 914 799 918 798 916 b 534 899 772 891 651 895 b 96 847 361 906 165 913 b 70 788 79 831 70 811 b 69 785 69 787 69 786 b 84 771 69 777 76 771 b 98 785 92 771 98 777 b 106 803 98 792 100 797 b 437 835 144 840 299 838 b 438 827 437 833 438 830 b 430 400 441 766 450 579 b 257 26 406 182 346 52 b 182 34 229 17 202 20 b 141 117 158 50 144 78 b 140 117 140 117 140 117 b 183 223 140 153 152 192 b 183 243 189 228 189 237 b 163 243 178 248 169 248 b 133 40 109 189 96 101 b 236 -18 155 2 192 -18 b 284 -11 252 -18 268 -16 b 501 382 400 24 473 156 b 507 820 523 559 512 742 b 506 834 507 825 506 830 b 810 880 645 833 767 837 b 828 920 822 891 828 905 b 813 934 828 928 821 934 z "},"K":{"ha":981,"x_min":0,"x_max":0,"o":"m 1014 283 b 995 277 1007 287 999 284 b 981 249 991 270 987 260 b 885 80 961 204 927 132 b 885 79 885 80 885 80 b 813 27 848 36 826 27 b 639 283 755 27 688 175 b 552 447 603 363 576 419 b 635 611 594 470 613 536 b 857 869 671 732 711 869 b 889 903 875 869 889 884 b 879 925 889 911 886 920 b 852 934 875 929 866 934 b 570 625 660 934 608 756 b 493 475 548 550 529 484 b 484 870 503 639 490 797 b 481 903 482 886 481 897 b 441 935 480 921 459 934 b 409 908 423 935 411 924 b 410 882 409 905 409 902 b 412 424 415 816 429 615 b 230 26 397 261 353 59 b 141 37 196 17 165 20 b 98 115 117 53 102 80 b 144 222 97 151 110 191 b 145 242 149 228 150 237 b 124 243 139 248 130 249 b 87 49 69 192 53 110 b 205 -19 112 5 154 -19 b 258 -11 222 -19 240 -16 b 487 403 384 23 461 163 b 489 427 488 411 489 419 b 565 282 509 406 541 335 b 786 -14 627 143 698 -14 b 907 61 832 -14 872 18 b 1007 237 950 115 984 188 b 1020 264 1012 248 1017 257 b 1014 283 1024 271 1021 280 z "},"L":{"ha":814,"x_min":0,"x_max":0,"o":"m 829 43 b 810 51 826 50 817 54 b 450 106 654 -11 555 46 b 378 145 427 119 403 133 b 424 887 437 292 452 540 b 421 921 422 904 421 915 b 404 944 421 926 418 936 b 353 944 390 951 367 954 b 341 919 345 939 340 930 b 342 911 341 918 341 915 b 357 519 358 737 359 602 b 311 174 354 373 338 257 b 187 196 273 187 233 196 b 69 91 110 196 69 143 b 190 -12 69 42 107 -12 b 320 47 240 -12 284 8 b 367 119 337 66 353 90 b 436 81 391 107 414 94 b 820 24 542 20 652 -42 b 829 43 828 27 831 35 z m 254 66 b 169 26 230 39 202 26 b 98 96 127 26 98 54 b 187 167 100 131 128 167 b 302 147 229 167 266 159 b 254 66 288 113 272 86 z "},"M":{"ha":1410,"x_min":0,"x_max":0,"o":"m 1442 284 b 1423 277 1435 287 1426 284 b 1409 244 1419 268 1414 257 b 1279 27 1383 183 1333 66 l 1279 27 b 1275 24 1278 27 1276 25 b 1244 14 1265 18 1254 14 b 1127 451 1145 14 1136 236 b 1098 776 1122 567 1117 686 b 971 934 1075 883 1034 934 b 849 782 925 934 885 884 b 790 550 828 722 808 645 b 766 407 781 502 773 454 b 668 901 764 597 745 822 b 598 933 648 922 624 933 b 475 755 535 933 500 862 b 475 754 475 755 475 754 b 445 583 463 704 454 645 b 445 597 445 588 445 592 b 425 828 445 686 438 768 b 357 934 410 900 387 934 b 208 838 281 934 234 882 b 163 691 177 786 163 727 b 196 658 163 672 177 658 b 235 692 215 658 235 671 b 327 882 235 733 251 882 b 359 802 331 882 346 868 b 375 586 370 747 375 670 b 332 208 375 447 360 309 b 201 27 310 126 269 27 b 102 120 146 27 111 74 b 101 121 102 120 102 121 b 134 261 91 171 104 226 b 133 281 140 267 139 276 b 113 280 127 287 118 286 b 86 75 67 228 56 142 b 224 -12 112 19 161 -12 b 247 -9 232 -12 240 -11 b 462 501 392 -9 427 250 b 507 765 475 595 488 691 b 580 887 521 818 549 887 b 613 871 592 887 603 881 b 686 134 678 802 705 534 b 685 119 686 125 685 120 b 721 77 685 90 704 77 b 760 116 740 77 759 92 b 760 117 760 116 760 117 b 879 781 777 325 820 617 b 880 784 879 782 880 783 b 960 892 914 873 942 892 b 1047 490 1033 892 1040 688 b 1208 -31 1056 234 1065 -31 b 1296 5 1247 -31 1280 -7 l 1296 5 b 1435 233 1356 49 1404 160 b 1449 265 1440 246 1445 256 b 1442 284 1452 272 1449 280 z "},"N":{"ha":1185,"x_min":0,"x_max":0,"o":"m 1217 284 b 1198 277 1210 287 1202 284 b 1184 244 1194 268 1190 257 b 1056 27 1158 183 1109 66 l 1056 27 b 1052 24 1055 26 1054 25 b 1022 14 1042 18 1032 14 b 896 470 900 14 898 246 b 878 783 895 582 894 697 b 753 934 858 885 817 934 b 537 668 654 934 591 820 b 474 470 515 607 495 539 b 418 289 456 409 437 347 b 445 597 435 382 445 489 b 425 828 445 686 438 768 b 357 934 410 900 387 934 b 208 838 281 934 234 882 b 163 691 177 786 163 727 b 196 658 163 672 177 658 b 235 692 215 658 235 671 b 327 882 235 733 251 882 b 359 802 331 882 346 868 b 375 586 370 747 375 670 b 332 208 375 447 360 309 b 208 28 311 129 272 34 b 201 27 206 28 203 27 b 102 120 146 27 111 74 b 101 121 102 120 102 121 b 134 261 92 171 104 226 b 133 281 140 267 139 276 b 113 280 127 287 118 286 b 86 75 67 228 56 142 b 212 -11 110 23 154 -7 b 215 -12 213 -11 214 -12 b 219 -11 216 -12 217 -12 b 224 -12 220 -12 222 -12 b 310 28 255 -12 284 2 b 311 29 311 28 311 29 b 502 462 395 106 447 280 b 564 659 522 529 542 597 b 569 671 566 662 567 666 b 737 889 589 725 651 889 b 819 495 819 889 819 689 b 839 144 819 371 819 243 b 987 -31 862 26 910 -31 b 1074 5 1026 -31 1058 -7 l 1074 5 b 1211 233 1133 49 1180 160 b 1224 265 1216 246 1220 256 b 1217 284 1228 272 1224 281 z "},"Ñ":{"ha":1185,"x_min":0,"x_max":0,"o":"m 1217 284 b 1198 277 1210 287 1202 284 b 1184 244 1194 268 1190 257 b 1056 27 1158 183 1109 66 l 1056 27 b 1052 24 1055 26 1054 25 b 1022 14 1042 18 1032 14 b 896 470 900 14 898 246 b 878 783 895 582 894 697 b 753 934 858 885 817 934 b 537 668 654 934 591 820 b 474 470 515 607 495 539 b 418 289 456 409 437 347 b 445 597 435 382 445 489 b 425 828 445 686 438 768 b 357 934 410 900 387 934 b 208 838 281 934 234 882 b 163 691 177 786 163 727 b 196 658 163 672 177 658 b 235 692 215 658 235 671 b 327 882 235 733 251 882 b 359 802 331 882 346 868 b 375 586 370 747 375 670 b 332 208 375 447 360 309 b 208 28 311 129 272 34 b 201 27 206 28 203 27 b 102 120 146 27 111 74 b 101 121 102 120 102 121 b 134 261 92 171 104 226 b 133 281 140 267 139 276 b 113 280 127 287 118 286 b 86 75 67 228 56 142 b 212 -11 110 23 154 -7 b 215 -12 213 -11 214 -12 b 219 -11 216 -12 217 -12 b 224 -12 220 -12 222 -12 b 310 28 255 -12 284 2 b 311 29 311 28 311 29 b 502 462 395 106 447 280 b 564 659 522 529 542 597 b 569 671 566 662 567 666 b 737 889 589 725 651 889 b 819 495 819 889 819 689 b 839 144 819 371 819 243 b 987 -31 862 26 910 -31 b 1074 5 1026 -31 1058 -7 l 1074 5 b 1211 233 1133 49 1180 160 b 1224 265 1216 246 1220 256 b 1217 284 1228 272 1224 281 z "},"O":{"ha":899,"x_min":0,"x_max":0,"o":"m 937 280 b 917 282 932 286 923 287 b 663 176 836 218 749 183 b 729 460 704 256 729 354 b 395 937 729 723 579 937 b 228 863 327 937 269 912 b 158 635 182 810 159 734 b 158 635 158 635 158 635 b 446 191 158 456 277 273 b 592 149 494 168 543 154 b 426 38 555 85 502 38 b 144 464 290 38 144 209 b 106 498 144 483 128 498 b 82 490 97 498 88 495 b 69 464 74 484 69 474 b 395 -17 69 194 213 -17 b 647 147 495 -17 585 47 b 934 260 744 150 843 188 b 937 280 940 264 942 273 z m 607 176 b 459 217 557 180 507 193 b 187 635 299 294 187 466 b 187 635 187 635 187 635 b 215 778 187 654 189 719 b 372 885 245 849 298 885 b 669 447 469 885 669 778 b 607 176 669 401 655 276 z "},"Ò":{"ha":899,"x_min":0,"x_max":0,"o":"m 937 280 b 917 282 932 286 923 287 b 663 176 836 218 749 183 b 729 460 704 256 729 354 b 395 937 729 723 579 937 b 228 863 327 937 269 912 b 158 635 182 810 159 734 b 158 635 158 635 158 635 b 446 191 158 456 277 273 b 592 149 494 168 543 154 b 426 38 555 85 502 38 b 144 464 290 38 144 209 b 106 498 144 483 128 498 b 82 490 97 498 88 495 b 69 464 74 484 69 474 b 395 -17 69 194 213 -17 b 647 147 495 -17 585 47 b 934 260 744 150 843 188 b 937 280 940 264 942 273 z m 607 176 b 459 217 557 180 507 193 b 187 635 299 294 187 466 b 187 635 187 635 187 635 b 215 778 187 654 189 719 b 372 885 245 849 298 885 b 669 447 469 885 669 778 b 607 176 669 401 655 276 z "},"Ó":{"ha":899,"x_min":0,"x_max":0,"o":"m 937 280 b 917 282 932 286 923 287 b 663 176 836 218 749 183 b 729 460 704 256 729 354 b 395 937 729 723 579 937 b 228 863 327 937 269 912 b 158 635 182 810 159 734 b 158 635 158 635 158 635 b 446 191 158 456 277 273 b 592 149 494 168 543 154 b 426 38 555 85 502 38 b 144 464 290 38 144 209 b 106 498 144 483 128 498 b 82 490 97 498 88 495 b 69 464 74 484 69 474 b 395 -17 69 194 213 -17 b 647 147 495 -17 585 47 b 934 260 744 150 843 188 b 937 280 940 264 942 273 z m 607 176 b 459 217 557 180 507 193 b 187 635 299 294 187 466 b 187 635 187 635 187 635 b 215 778 187 654 189 719 b 372 885 245 849 298 885 b 669 447 469 885 669 778 b 607 176 669 401 655 276 z "},"Ô":{"ha":899,"x_min":0,"x_max":0,"o":"m 937 280 b 917 282 932 286 923 287 b 663 176 836 218 749 183 b 729 460 704 256 729 354 b 395 937 729 723 579 937 b 228 863 327 937 269 912 b 158 635 182 810 159 734 b 158 635 158 635 158 635 b 446 191 158 456 277 273 b 592 149 494 168 543 154 b 426 38 555 85 502 38 b 144 464 290 38 144 209 b 106 498 144 483 128 498 b 82 490 97 498 88 495 b 69 464 74 484 69 474 b 395 -17 69 194 213 -17 b 647 147 495 -17 585 47 b 934 260 744 150 843 188 b 937 280 940 264 942 273 z m 607 176 b 459 217 557 180 507 193 b 187 635 299 294 187 466 b 187 635 187 635 187 635 b 215 778 187 654 189 719 b 372 885 245 849 298 885 b 669 447 469 885 669 778 b 607 176 669 401 655 276 z "},"Õ":{"ha":899,"x_min":0,"x_max":0,"o":"m 937 280 b 917 282 932 286 923 287 b 663 176 836 218 749 183 b 729 460 704 256 729 354 b 395 937 729 723 579 937 b 228 863 327 937 269 912 b 158 635 182 810 159 734 b 158 635 158 635 158 635 b 446 191 158 456 277 273 b 592 149 494 168 543 154 b 426 38 555 85 502 38 b 144 464 290 38 144 209 b 106 498 144 483 128 498 b 82 490 97 498 88 495 b 69 464 74 484 69 474 b 395 -17 69 194 213 -17 b 647 147 495 -17 585 47 b 934 260 744 150 843 188 b 937 280 940 264 942 273 z m 607 176 b 459 217 557 180 507 193 b 187 635 299 294 187 466 b 187 635 187 635 187 635 b 215 778 187 654 189 719 b 372 885 245 849 298 885 b 669 447 469 885 669 778 b 607 176 669 401 655 276 z "},"Ö":{"ha":899,"x_min":0,"x_max":0,"o":"m 937 280 b 917 282 932 286 923 287 b 663 176 836 218 749 183 b 729 460 704 256 729 354 b 395 937 729 723 579 937 b 228 863 327 937 269 912 b 158 635 182 810 159 734 b 158 635 158 635 158 635 b 446 191 158 456 277 273 b 592 149 494 168 543 154 b 426 38 555 85 502 38 b 144 464 290 38 144 209 b 106 498 144 483 128 498 b 82 490 97 498 88 495 b 69 464 74 484 69 474 b 395 -17 69 194 213 -17 b 647 147 495 -17 585 47 b 934 260 744 150 843 188 b 937 280 940 264 942 273 z m 607 176 b 459 217 557 180 507 193 b 187 635 299 294 187 466 b 187 635 187 635 187 635 b 215 778 187 654 189 719 b 372 885 245 849 298 885 b 669 447 469 885 669 778 b 607 176 669 401 655 276 z "},"Ø":{"ha":899,"x_min":0,"x_max":0,"o":"m 937 280 b 917 282 932 286 923 287 b 663 176 836 218 749 183 b 729 460 704 256 729 354 b 395 937 729 723 579 937 b 228 863 327 937 269 912 b 158 635 182 810 159 734 b 158 635 158 635 158 635 b 446 191 158 456 277 273 b 592 149 494 168 543 154 b 426 38 555 85 502 38 b 144 464 290 38 144 209 b 106 498 144 483 128 498 b 82 490 97 498 88 495 b 69 464 74 484 69 474 b 395 -17 69 194 213 -17 b 647 147 495 -17 585 47 b 934 260 744 150 843 188 b 937 280 940 264 942 273 z m 607 176 b 459 217 557 180 507 193 b 187 635 299 294 187 466 b 187 635 187 635 187 635 b 215 778 187 654 189 719 b 372 885 245 849 298 885 b 669 447 469 885 669 778 b 607 176 669 401 655 276 z "},"P":{"ha":661,"x_min":0,"x_max":0,"o":"m 455 934 b 194 690 287 934 194 790 b 206 668 194 681 198 673 b 225 663 211 665 218 663 b 266 690 242 663 266 672 b 299 796 266 691 269 744 b 471 893 335 860 393 893 b 693 679 671 893 693 743 b 510 474 693 557 598 474 b 496 460 502 474 496 468 b 510 446 496 452 502 446 b 768 697 678 446 768 575 b 455 934 768 839 642 934 z m 439 814 b 401 846 438 832 418 846 b 370 820 384 847 372 836 b 372 793 370 817 370 813 b 215 26 409 340 353 67 b 139 34 187 17 160 20 b 98 117 116 50 101 78 b 98 117 98 117 98 117 b 141 223 97 153 110 192 b 141 243 146 228 146 237 b 121 243 135 248 126 248 b 90 40 67 189 53 101 b 194 -18 113 2 150 -18 b 242 -11 209 -18 225 -16 b 442 774 505 68 457 599 b 439 814 440 793 439 808 z "},"Q":{"ha":819,"x_min":0,"x_max":0,"o":"m 741 13 b 536 17 715 25 632 24 b 741 457 656 89 741 259 b 407 933 741 720 591 933 b 240 860 339 933 281 908 b 170 632 194 807 170 730 b 170 632 170 632 170 632 b 330 340 170 491 229 385 b 648 403 431 296 559 321 b 649 424 654 409 654 418 b 629 424 644 429 635 430 b 342 366 548 350 433 326 b 199 632 250 407 199 501 b 199 632 199 632 199 632 b 227 775 199 650 201 715 b 384 882 257 846 310 882 b 681 443 481 882 681 775 b 438 34 681 362 638 34 b 156 460 302 34 156 205 b 112 495 156 480 138 495 b 85 487 102 495 92 492 b 69 460 75 481 69 471 b 167 123 69 334 104 214 b 322 -5 211 60 264 17 b 130 -35 220 -17 138 -30 b 125 -55 124 -39 121 -48 b 138 -62 128 -59 133 -62 b 144 -60 140 -62 142 -61 b 425 -22 158 -55 285 -36 b 433 -21 428 -22 430 -21 b 730 -13 594 -5 705 -2 b 748 -6 737 -16 745 -13 b 741 13 751 1 748 10 z "},"R":{"ha":928,"x_min":0,"x_max":0,"o":"m 907 14 b 901 14 905 14 903 14 b 694 254 769 18 731 138 b 583 455 669 335 642 418 b 768 697 704 486 768 594 b 454 934 768 839 642 934 b 194 690 287 934 194 790 b 206 668 194 681 198 673 b 225 663 211 665 218 663 b 266 690 242 663 266 672 b 299 796 266 691 269 744 b 471 893 335 860 393 893 b 693 679 671 893 693 743 b 510 474 693 557 598 474 b 496 460 502 474 496 468 b 510 446 496 452 502 446 b 611 289 560 446 584 373 b 890 -14 654 158 707 -4 b 900 -14 893 -14 896 -14 b 907 -14 902 -14 905 -14 b 921 0 915 -14 921 -8 b 907 14 921 8 915 14 z m 438 814 b 401 846 438 832 418 846 b 370 820 384 847 372 836 b 372 793 370 817 370 813 b 215 26 409 340 353 67 b 139 34 187 17 160 20 b 98 117 116 50 101 78 b 98 117 98 117 98 117 b 141 223 97 153 110 192 b 141 243 146 228 146 237 b 121 243 135 248 126 248 b 90 40 67 189 53 101 b 194 -18 113 2 150 -18 b 242 -11 209 -18 225 -16 b 442 774 505 68 457 599 b 438 814 440 793 439 808 z "},"S":{"ha":807,"x_min":0,"x_max":0,"o":"m 531 433 b 343 638 433 485 340 534 b 344 656 343 644 343 650 b 393 654 359 655 376 654 b 723 848 598 654 723 767 b 691 909 723 873 712 894 b 600 931 669 923 639 931 b 282 706 454 931 325 834 b 177 765 224 722 193 747 b 145 889 149 797 138 838 b 134 912 146 898 142 906 b 89 917 122 921 103 923 b 71 894 79 913 72 905 b 116 748 64 841 80 789 b 271 666 143 718 190 684 b 266 619 268 651 267 635 b 491 364 263 484 384 421 b 665 192 581 316 667 271 b 369 -30 662 69 484 -30 b 283 13 324 -30 295 -15 b 278 30 280 19 279 24 b 276 54 276 37 276 45 b 276 56 276 54 276 55 b 385 260 279 113 319 190 b 385 280 391 265 390 274 b 365 279 379 285 370 285 b 249 28 282 193 238 96 b 282 -43 253 0 265 -25 b 356 -73 301 -63 327 -73 b 632 16 463 -73 561 -41 b 737 200 696 67 735 135 b 531 433 739 323 634 379 z m 617 891 b 674 877 642 891 662 886 b 689 849 684 870 689 861 b 408 690 689 793 582 690 b 350 693 387 690 368 691 b 617 891 372 781 444 891 z "},"T":{"ha":753,"x_min":0,"x_max":0,"o":"m 891 905 b 908 943 902 915 908 928 b 894 957 908 951 902 957 b 880 943 886 957 880 951 b 880 942 880 943 880 942 b 877 938 879 941 879 940 b 583 922 851 913 715 918 b 95 867 388 929 167 937 b 70 811 79 851 70 833 b 69 808 69 810 69 809 b 84 794 69 800 76 794 b 98 808 92 794 98 800 b 105 824 98 814 100 819 b 466 859 144 862 312 861 b 446 491 460 806 448 651 b 519 16 443 236 468 77 b 577 -14 535 -4 555 -14 b 699 78 621 -14 662 25 l 700 79 b 701 80 700 80 700 80 b 792 253 736 132 767 197 b 797 265 794 258 795 262 b 790 284 800 272 797 281 b 771 277 782 287 774 284 b 766 265 769 273 768 269 b 675 93 733 192 703 134 b 598 31 660 73 630 31 b 574 44 589 31 582 35 b 537 858 484 148 526 754 b 891 905 700 856 845 858 z "},"U":{"ha":1017,"x_min":0,"x_max":0,"o":"m 1049 284 b 1030 277 1042 287 1033 284 b 1024 265 1028 274 1027 270 b 926 91 990 190 957 132 b 846 31 910 70 879 31 b 820 45 836 31 828 36 b 782 917 718 164 775 873 b 752 952 785 933 772 948 b 711 931 734 955 718 947 b 707 923 709 929 707 926 b 702 898 705 916 704 908 b 585 384 685 803 644 583 b 372 19 495 82 419 19 b 340 33 359 19 349 24 b 301 489 285 91 293 302 b 263 916 309 689 316 861 b 221 934 252 928 238 934 b 69 689 115 934 69 772 b 80 665 69 679 73 671 b 102 657 86 660 94 657 b 141 692 121 657 141 671 b 196 875 141 754 158 875 b 206 871 199 875 202 875 b 227 520 238 837 232 676 b 282 -1 218 300 210 73 b 341 -27 298 -18 318 -27 b 441 19 371 -27 399 -14 b 444 23 442 20 443 22 b 692 698 531 102 612 325 b 762 18 679 465 677 120 b 823 -14 779 -3 800 -14 b 1050 253 915 -14 997 138 b 1056 265 1052 258 1054 262 b 1049 284 1059 272 1056 280 z "},"Ù":{"ha":1017,"x_min":0,"x_max":0,"o":"m 1049 284 b 1030 277 1042 287 1033 284 b 1024 265 1028 274 1027 270 b 926 91 990 190 957 132 b 846 31 910 70 879 31 b 820 45 836 31 828 36 b 782 917 718 164 775 873 b 752 952 785 933 772 948 b 711 931 734 955 718 947 b 707 923 709 929 707 926 b 702 898 705 916 704 908 b 585 384 685 803 644 583 b 372 19 495 82 419 19 b 340 33 359 19 349 24 b 301 489 285 91 293 302 b 263 916 309 689 316 861 b 221 934 252 928 238 934 b 69 689 115 934 69 772 b 80 665 69 679 73 671 b 102 657 86 660 94 657 b 141 692 121 657 141 671 b 196 875 141 754 158 875 b 206 871 199 875 202 875 b 227 520 238 837 232 676 b 282 -1 218 300 210 73 b 341 -27 298 -18 318 -27 b 441 19 371 -27 399 -14 b 444 23 442 20 443 22 b 692 698 531 102 612 325 b 762 18 679 465 677 120 b 823 -14 779 -3 800 -14 b 1050 253 915 -14 997 138 b 1056 265 1052 258 1054 262 b 1049 284 1059 272 1056 280 z "},"Ú":{"ha":1017,"x_min":0,"x_max":0,"o":"m 1049 284 b 1030 277 1042 287 1033 284 b 1024 265 1028 274 1027 270 b 926 91 990 190 957 132 b 846 31 910 70 879 31 b 820 45 836 31 828 36 b 782 917 718 164 775 873 b 752 952 785 933 772 948 b 711 931 734 955 718 947 b 707 923 709 929 707 926 b 702 898 705 916 704 908 b 585 384 685 803 644 583 b 372 19 495 82 419 19 b 340 33 359 19 349 24 b 301 489 285 91 293 302 b 263 916 309 689 316 861 b 221 934 252 928 238 934 b 69 689 115 934 69 772 b 80 665 69 679 73 671 b 102 657 86 660 94 657 b 141 692 121 657 141 671 b 196 875 141 754 158 875 b 206 871 199 875 202 875 b 227 520 238 837 232 676 b 282 -1 218 300 210 73 b 341 -27 298 -18 318 -27 b 441 19 371 -27 399 -14 b 444 23 442 20 443 22 b 692 698 531 102 612 325 b 762 18 679 465 677 120 b 823 -14 779 -3 800 -14 b 1050 253 915 -14 997 138 b 1056 265 1052 258 1054 262 b 1049 284 1059 272 1056 280 z "},"Û":{"ha":1017,"x_min":0,"x_max":0,"o":"m 1049 284 b 1030 277 1042 287 1033 284 b 1024 265 1028 274 1027 270 b 926 91 990 190 957 132 b 846 31 910 70 879 31 b 820 45 836 31 828 36 b 782 917 718 164 775 873 b 752 952 785 933 772 948 b 711 931 734 955 718 947 b 707 923 709 929 707 926 b 702 898 705 916 704 908 b 585 384 685 803 644 583 b 372 19 495 82 419 19 b 340 33 359 19 349 24 b 301 489 285 91 293 302 b 263 916 309 689 316 861 b 221 934 252 928 238 934 b 69 689 115 934 69 772 b 80 665 69 679 73 671 b 102 657 86 660 94 657 b 141 692 121 657 141 671 b 196 875 141 754 158 875 b 206 871 199 875 202 875 b 227 520 238 837 232 676 b 282 -1 218 300 210 73 b 341 -27 298 -18 318 -27 b 441 19 371 -27 399 -14 b 444 23 442 20 443 22 b 692 698 531 102 612 325 b 762 18 679 465 677 120 b 823 -14 779 -3 800 -14 b 1050 253 915 -14 997 138 b 1056 265 1052 258 1054 262 b 1049 284 1059 272 1056 280 z "},"Ü":{"ha":1017,"x_min":0,"x_max":0,"o":"m 1049 284 b 1030 277 1042 287 1033 284 b 1024 265 1028 274 1027 270 b 926 91 990 190 957 132 b 846 31 910 70 879 31 b 820 45 836 31 828 36 b 782 917 718 164 775 873 b 752 952 785 933 772 948 b 711 931 734 955 718 947 b 707 923 709 929 707 926 b 702 898 705 916 704 908 b 585 384 685 803 644 583 b 372 19 495 82 419 19 b 340 33 359 19 349 24 b 301 489 285 91 293 302 b 263 916 309 689 316 861 b 221 934 252 928 238 934 b 69 689 115 934 69 772 b 80 665 69 679 73 671 b 102 657 86 660 94 657 b 141 692 121 657 141 671 b 196 875 141 754 158 875 b 206 871 199 875 202 875 b 227 520 238 837 232 676 b 282 -1 218 300 210 73 b 341 -27 298 -18 318 -27 b 441 19 371 -27 399 -14 b 444 23 442 20 443 22 b 692 698 531 102 612 325 b 762 18 679 465 677 120 b 823 -14 779 -3 800 -14 b 1050 253 915 -14 997 138 b 1056 265 1052 258 1054 262 b 1049 284 1059 272 1056 280 z "},"V":{"ha":843,"x_min":0,"x_max":0,"o":"m 986 934 b 986 934 986 934 986 934 b 683 391 812 934 744 646 b 523 19 640 208 595 19 b 372 491 430 19 399 270 b 221 934 342 729 317 934 b 69 689 115 934 69 772 b 80 665 69 679 73 671 b 102 657 86 660 94 657 b 141 692 121 657 141 671 b 197 875 141 754 158 875 b 287 528 245 875 267 691 b 506 -27 318 268 354 -27 b 771 465 665 -27 719 223 b 986 906 818 682 867 906 b 1000 920 994 906 1000 912 b 986 934 1000 928 994 934 z "},"W":{"ha":1268,"x_min":0,"x_max":0,"o":"m 1348 934 l 1348 934 b 1107 394 1189 934 1145 647 b 980 14 1078 207 1049 14 b 746 741 855 14 746 502 b 730 773 746 761 736 770 b 695 772 719 779 706 779 b 679 745 685 767 679 757 b 673 704 677 734 675 720 b 594 286 659 610 634 436 b 436 19 535 66 476 19 b 331 490 345 19 338 269 b 221 934 324 728 318 934 b 69 689 115 934 69 772 b 80 665 69 679 73 671 b 102 657 86 660 94 657 b 141 692 121 657 141 671 b 196 875 141 754 158 875 b 237 779 206 875 224 863 b 253 528 246 713 249 623 b 416 -27 263 268 274 -27 b 647 258 513 -27 591 69 b 702 513 669 331 688 419 b 743 307 712 446 726 375 b 966 -27 800 85 875 -27 b 1180 466 1112 -27 1147 224 b 1348 906 1210 682 1241 906 b 1362 920 1356 906 1362 912 b 1348 934 1362 928 1356 934 z "},"X":{"ha":876,"x_min":0,"x_max":0,"o":"m 910 283 b 891 278 903 287 895 285 b 880 261 887 273 884 267 b 791 125 858 223 827 172 b 791 125 791 125 791 125 b 641 14 729 51 679 14 b 441 405 555 14 494 205 b 463 431 448 414 456 422 b 786 899 624 620 776 799 b 773 915 787 907 781 914 b 758 902 765 915 758 910 b 441 450 748 810 592 627 b 432 439 438 446 435 442 b 413 513 426 463 419 488 b 221 934 356 739 306 934 b 69 689 115 934 69 772 b 102 657 69 670 83 657 b 141 692 121 657 141 671 b 196 875 141 754 158 875 b 261 776 207 875 230 862 b 333 525 285 710 308 620 b 374 370 346 474 359 421 b 135 0 243 215 135 76 b 149 -14 135 -8 141 -14 b 163 0 157 -14 163 -8 b 383 337 163 64 265 196 b 614 -27 439 142 508 -27 b 811 105 689 -27 757 35 b 812 106 812 106 812 106 b 813 108 813 107 813 107 b 905 246 851 156 882 208 b 915 263 908 252 912 258 b 910 283 919 270 917 279 z "},"Y":{"ha":947,"x_min":0,"x_max":0,"o":"m 983 281 b 963 279 976 286 968 285 b 691 130 890 186 794 156 b 718 747 718 361 720 604 b 718 761 718 754 718 759 b 706 786 718 771 713 780 b 683 794 700 791 692 794 b 661 788 675 794 667 792 b 649 777 655 787 650 783 l 643 754 b 425 208 609 607 536 289 b 423 207 424 208 423 207 b 418 203 421 206 419 204 b 372 189 403 194 388 189 b 334 205 357 189 344 194 b 301 569 285 256 294 422 b 268 915 309 721 316 864 b 221 934 255 928 240 934 b 69 689 115 934 69 772 b 80 665 69 679 73 671 b 102 657 86 660 94 657 b 141 692 121 657 141 671 b 196 875 141 754 158 875 b 209 870 201 875 205 874 b 227 590 238 839 232 712 b 275 171 219 417 210 239 b 341 143 293 152 315 143 b 436 181 370 143 398 154 b 648 652 539 250 605 476 b 613 110 647 508 638 303 b 315 -82 504 81 396 41 b 290 -403 255 -174 244 -318 b 398 -472 314 -448 352 -472 b 518 -417 442 -472 483 -453 b 688 99 610 -324 660 -120 b 985 261 795 126 904 158 b 983 281 990 267 989 276 z m 460 -394 b 387 -428 437 -417 413 -428 b 330 -406 364 -428 345 -421 b 290 -278 290 -365 290 -286 b 290 -275 290 -277 290 -276 b 339 -97 290 -213 307 -146 b 609 80 411 13 507 52 b 460 -394 581 -128 535 -318 z "},"Ý":{"ha":947,"x_min":0,"x_max":0,"o":"m 983 281 b 963 279 976 286 968 285 b 691 130 890 186 794 156 b 718 747 718 361 720 604 b 718 761 718 754 718 759 b 706 786 718 771 713 780 b 683 794 700 791 692 794 b 661 788 675 794 667 792 b 649 777 655 787 650 783 l 643 754 b 425 208 609 607 536 289 b 423 207 424 208 423 207 b 418 203 421 206 419 204 b 372 189 403 194 388 189 b 334 205 357 189 344 194 b 301 569 285 256 294 422 b 268 915 309 721 316 864 b 221 934 255 928 240 934 b 69 689 115 934 69 772 b 80 665 69 679 73 671 b 102 657 86 660 94 657 b 141 692 121 657 141 671 b 196 875 141 754 158 875 b 209 870 201 875 205 874 b 227 590 238 839 232 712 b 275 171 219 417 210 239 b 341 143 293 152 315 143 b 436 181 370 143 398 154 b 648 652 539 250 605 476 b 613 110 647 508 638 303 b 315 -82 504 81 396 41 b 290 -403 255 -174 244 -318 b 398 -472 314 -448 352 -472 b 518 -417 442 -472 483 -453 b 688 99 610 -324 660 -120 b 985 261 795 126 904 158 b 983 281 990 267 989 276 z m 460 -394 b 387 -428 437 -417 413 -428 b 330 -406 364 -428 345 -421 b 290 -278 290 -365 290 -286 b 290 -275 290 -277 290 -276 b 339 -97 290 -213 307 -146 b 609 80 411 13 507 52 b 460 -394 581 -128 535 -318 z "},"Ÿ":{"ha":947,"x_min":0,"x_max":0,"o":"m 983 281 b 963 279 976 286 968 285 b 691 130 890 186 794 156 b 718 747 718 361 720 604 b 718 761 718 754 718 759 b 706 786 718 771 713 780 b 683 794 700 791 692 794 b 661 788 675 794 667 792 b 649 777 655 787 650 783 l 643 754 b 425 208 609 607 536 289 b 423 207 424 208 423 207 b 418 203 421 206 419 204 b 372 189 403 194 388 189 b 334 205 357 189 344 194 b 301 569 285 256 294 422 b 268 915 309 721 316 864 b 221 934 255 928 240 934 b 69 689 115 934 69 772 b 80 665 69 679 73 671 b 102 657 86 660 94 657 b 141 692 121 657 141 671 b 196 875 141 754 158 875 b 209 870 201 875 205 874 b 227 590 238 839 232 712 b 275 171 219 417 210 239 b 341 143 293 152 315 143 b 436 181 370 143 398 154 b 648 652 539 250 605 476 b 613 110 647 508 638 303 b 315 -82 504 81 396 41 b 290 -403 255 -174 244 -318 b 398 -472 314 -448 352 -472 b 518 -417 442 -472 483 -453 b 688 99 610 -324 660 -120 b 985 261 795 126 904 158 b 983 281 990 267 989 276 z m 460 -394 b 387 -428 437 -417 413 -428 b 330 -406 364 -428 345 -421 b 290 -278 290 -365 290 -286 b 290 -275 290 -277 290 -276 b 339 -97 290 -213 307 -146 b 609 80 411 13 507 52 b 460 -394 581 -128 535 -318 z "},"Z":{"ha":778,"x_min":0,"x_max":0,"o":"m 702 95 b 683 92 696 100 687 98 b 367 -26 662 62 507 -2 b 366 -26 367 -26 367 -26 b 326 -32 355 -28 342 -30 b 325 -33 325 -33 325 -33 b 194 -28 274 -39 228 -38 b 139 40 157 -16 139 6 b 471 562 139 168 323 387 b 691 903 618 737 707 847 b 661 934 688 913 681 927 b 137 842 488 993 242 917 b 102 810 121 831 110 820 b 101 809 102 810 102 809 b 90 784 95 801 91 793 b 90 780 90 783 90 781 b 104 766 90 772 96 766 b 119 780 112 766 119 772 b 119 781 119 780 119 781 b 128 796 119 785 122 790 b 128 797 128 796 128 796 b 193 835 138 807 159 821 b 373 885 241 855 305 873 b 623 880 516 912 614 903 b 584 812 623 879 626 866 b 462 670 554 774 512 726 b 69 37 297 484 69 229 b 100 -33 69 8 80 -16 b 233 -68 131 -59 180 -68 b 344 -59 269 -68 307 -64 b 362 -56 350 -58 356 -57 b 380 -53 368 -55 374 -54 b 391 -51 384 -52 388 -52 b 395 -50 393 -51 394 -50 b 706 76 535 -22 681 39 b 702 95 710 82 709 91 z "},"[":{"ha":369,"x_min":0,"x_max":0,"o":"m 286 16 l 141 16 b 142 26 142 19 142 22 b 145 316 142 44 143 170 b 150 891 147 552 149 846 b 150 895 150 892 150 893 b 183 895 160 895 171 895 b 286 894 227 894 276 894 b 300 908 294 894 300 900 b 286 922 300 916 294 922 b 183 923 276 922 227 923 b 122 923 159 923 135 923 b 121 923 121 923 121 923 b 118 924 120 924 119 924 b 108 923 115 924 112 924 b 108 923 108 923 108 923 b 106 923 107 923 107 923 b 105 922 106 923 105 923 b 79 892 93 919 82 909 b 79 20 72 851 61 151 b 108 -12 82 -1 95 -11 b 110 -12 108 -12 109 -12 l 286 -12 b 300 2 294 -12 300 -6 b 286 16 300 10 294 16 z "},"\\":{"ha":539,"x_min":0,"x_max":0,"o":"m 465 103 b 370 322 459 119 419 209 b 135 858 279 529 154 813 b 95 874 129 873 112 880 b 71 825 78 868 65 849 b 411 69 84 776 343 178 b 440 51 419 56 430 51 b 453 54 445 51 449 52 b 465 103 467 61 475 80 z "},"]":{"ha":369,"x_min":0,"x_max":0,"o":"m 291 892 b 265 922 288 909 277 919 b 264 923 265 923 264 923 b 262 923 263 923 262 923 b 261 923 262 923 261 923 b 252 924 258 924 255 924 b 248 923 250 924 249 924 l 248 923 b 186 923 234 923 211 923 b 84 922 143 923 94 922 b 69 908 76 922 69 916 b 84 894 69 900 76 894 b 186 895 94 894 143 894 b 220 895 198 895 210 895 b 220 891 220 893 220 892 b 225 317 221 846 223 553 b 227 123 226 244 226 176 b 227 26 227 71 227 35 b 229 16 228 22 228 19 l 97 16 b 82 2 89 16 82 10 b 97 -12 82 -6 89 -12 l 273 -12 b 287 2 281 -12 287 -6 b 287 6 287 3 287 5 b 291 20 289 10 290 14 b 291 892 308 151 297 851 z "},"^":{"ha":672,"x_min":0,"x_max":0,"o":"m 600 406 b 475 683 585 442 529 565 b 413 822 452 734 430 783 b 378 900 395 861 382 889 b 344 920 369 921 354 924 b 342 920 343 920 343 920 b 322 906 335 918 328 914 b 73 415 251 813 91 461 b 91 357 63 389 74 365 b 101 355 94 355 98 355 b 123 368 110 355 118 359 b 265 656 141 402 204 531 b 345 819 295 718 324 778 b 547 366 400 666 529 397 b 571 350 554 354 563 350 b 583 352 575 350 579 351 b 600 406 599 361 608 387 z "},"`":{"ha":247,"x_min":0,"x_max":0,"o":"m 144 927 b 128 927 139 930 133 930 b 101 911 121 923 110 917 b 77 898 92 906 83 901 b 71 879 70 894 67 885 b 111 809 73 875 92 841 b 159 755 135 772 147 755 b 167 758 162 755 164 756 b 178 784 177 763 178 774 b 144 927 179 809 162 916 z "},"a":{"ha":585,"x_min":0,"x_max":0,"o":"m 617 284 b 599 276 610 287 602 283 b 594 262 598 273 596 268 b 510 83 565 184 537 125 b 509 83 510 83 510 83 l 507 79 b 445 28 496 63 471 28 b 429 36 441 28 435 29 b 393 260 415 51 393 101 b 402 446 393 358 402 445 b 392 467 403 453 399 461 b 353 472 383 474 366 478 b 340 459 347 469 342 465 b 337 455 339 458 338 457 b 331 433 336 452 334 445 b 312 370 325 413 319 392 b 200 474 296 418 262 474 b 44 371 137 474 83 439 b -7 169 12 314 -7 241 b 106 -14 -7 58 38 -14 b 200 46 138 -14 169 6 b 321 307 240 98 280 185 b 323 311 322 308 323 310 b 329 331 325 318 327 324 b 379 7 326 219 330 61 b 424 -14 392 -7 407 -14 b 620 252 512 -14 578 138 b 625 266 622 258 624 262 b 617 284 628 273 625 281 z m 179 66 b 178 64 179 65 178 65 b 125 24 168 52 145 24 b 82 59 107 24 93 36 b 66 156 71 83 66 116 b 210 434 66 288 125 434 b 284 362 251 434 273 395 l 285 360 b 285 360 285 360 285 360 b 294 317 291 342 294 326 b 179 66 263 223 223 124 z "},"à":{"ha":585,"x_min":0,"x_max":0,"o":"m 617 284 b 599 276 610 287 602 283 b 594 262 598 273 596 268 b 510 83 565 184 537 125 b 509 83 510 83 510 83 l 507 79 b 445 28 496 63 471 28 b 429 36 441 28 435 29 b 393 260 415 51 393 101 b 402 446 393 358 402 445 b 392 467 403 453 399 461 b 353 472 383 474 366 478 b 340 459 347 469 342 465 b 337 455 339 458 338 457 b 331 433 336 452 334 445 b 312 370 325 413 319 392 b 200 474 296 418 262 474 b 44 371 137 474 83 439 b -7 169 12 314 -7 241 b 106 -14 -7 58 38 -14 b 200 46 138 -14 169 6 b 321 307 240 98 280 185 b 323 311 322 308 323 310 b 329 331 325 318 327 324 b 379 7 326 219 330 61 b 424 -14 392 -7 407 -14 b 620 252 512 -14 578 138 b 625 266 622 258 624 262 b 617 284 628 273 625 281 z m 179 66 b 178 64 179 65 178 65 b 125 24 168 52 145 24 b 82 59 107 24 93 36 b 66 156 71 83 66 116 b 210 434 66 288 125 434 b 284 362 251 434 273 395 l 285 360 b 285 360 285 360 285 360 b 294 317 291 342 294 326 b 179 66 263 223 223 124 z "},"á":{"ha":585,"x_min":0,"x_max":0,"o":"m 617 284 b 599 276 610 287 602 283 b 594 262 598 273 596 268 b 510 83 565 184 537 125 b 509 83 510 83 510 83 l 507 79 b 445 28 496 63 471 28 b 429 36 441 28 435 29 b 393 260 415 51 393 101 b 402 446 393 358 402 445 b 392 467 403 453 399 461 b 353 472 383 474 366 478 b 340 459 347 469 342 465 b 337 455 339 458 338 457 b 331 433 336 452 334 445 b 312 370 325 413 319 392 b 200 474 296 418 262 474 b 44 371 137 474 83 439 b -7 169 12 314 -7 241 b 106 -14 -7 58 38 -14 b 200 46 138 -14 169 6 b 321 307 240 98 280 185 b 323 311 322 308 323 310 b 329 331 325 318 327 324 b 379 7 326 219 330 61 b 424 -14 392 -7 407 -14 b 620 252 512 -14 578 138 b 625 266 622 258 624 262 b 617 284 628 273 625 281 z m 179 66 b 178 64 179 65 178 65 b 125 24 168 52 145 24 b 82 59 107 24 93 36 b 66 156 71 83 66 116 b 210 434 66 288 125 434 b 284 362 251 434 273 395 l 285 360 b 285 360 285 360 285 360 b 294 317 291 342 294 326 b 179 66 263 223 223 124 z "},"â":{"ha":585,"x_min":0,"x_max":0,"o":"m 617 284 b 599 276 610 287 602 283 b 594 262 598 273 596 268 b 510 83 565 184 537 125 b 509 83 510 83 510 83 l 507 79 b 445 28 496 63 471 28 b 429 36 441 28 435 29 b 393 260 415 51 393 101 b 402 446 393 358 402 445 b 392 467 403 453 399 461 b 353 472 383 474 366 478 b 340 459 347 469 342 465 b 337 455 339 458 338 457 b 331 433 336 452 334 445 b 312 370 325 413 319 392 b 200 474 296 418 262 474 b 44 371 137 474 83 439 b -7 169 12 314 -7 241 b 106 -14 -7 58 38 -14 b 200 46 138 -14 169 6 b 321 307 240 98 280 185 b 323 311 322 308 323 310 b 329 331 325 318 327 324 b 379 7 326 219 330 61 b 424 -14 392 -7 407 -14 b 620 252 512 -14 578 138 b 625 266 622 258 624 262 b 617 284 628 273 625 281 z m 179 66 b 178 64 179 65 178 65 b 125 24 168 52 145 24 b 82 59 107 24 93 36 b 66 156 71 83 66 116 b 210 434 66 288 125 434 b 284 362 251 434 273 395 l 285 360 b 285 360 285 360 285 360 b 294 317 291 342 294 326 b 179 66 263 223 223 124 z "},"ã":{"ha":585,"x_min":0,"x_max":0,"o":"m 617 284 b 599 276 610 287 602 283 b 594 262 598 273 596 268 b 510 83 565 184 537 125 b 509 83 510 83 510 83 l 507 79 b 445 28 496 63 471 28 b 429 36 441 28 435 29 b 393 260 415 51 393 101 b 402 446 393 358 402 445 b 392 467 403 453 399 461 b 353 472 383 474 366 478 b 340 459 347 469 342 465 b 337 455 339 458 338 457 b 331 433 336 452 334 445 b 312 370 325 413 319 392 b 200 474 296 418 262 474 b 44 371 137 474 83 439 b -7 169 12 314 -7 241 b 106 -14 -7 58 38 -14 b 200 46 138 -14 169 6 b 321 307 240 98 280 185 b 323 311 322 308 323 310 b 329 331 325 318 327 324 b 379 7 326 219 330 61 b 424 -14 392 -7 407 -14 b 620 252 512 -14 578 138 b 625 266 622 258 624 262 b 617 284 628 273 625 281 z m 179 66 b 178 64 179 65 178 65 b 125 24 168 52 145 24 b 82 59 107 24 93 36 b 66 156 71 83 66 116 b 210 434 66 288 125 434 b 284 362 251 434 273 395 l 285 360 b 285 360 285 360 285 360 b 294 317 291 342 294 326 b 179 66 263 223 223 124 z "},"ä":{"ha":585,"x_min":0,"x_max":0,"o":"m 617 284 b 599 276 610 287 602 283 b 594 262 598 273 596 268 b 510 83 565 184 537 125 b 509 83 510 83 510 83 l 507 79 b 445 28 496 63 471 28 b 429 36 441 28 435 29 b 393 260 415 51 393 101 b 402 446 393 358 402 445 b 392 467 403 453 399 461 b 353 472 383 474 366 478 b 340 459 347 469 342 465 b 337 455 339 458 338 457 b 331 433 336 452 334 445 b 312 370 325 413 319 392 b 200 474 296 418 262 474 b 44 371 137 474 83 439 b -7 169 12 314 -7 241 b 106 -14 -7 58 38 -14 b 200 46 138 -14 169 6 b 321 307 240 98 280 185 b 323 311 322 308 323 310 b 329 331 325 318 327 324 b 379 7 326 219 330 61 b 424 -14 392 -7 407 -14 b 620 252 512 -14 578 138 b 625 266 622 258 624 262 b 617 284 628 273 625 281 z m 179 66 b 178 64 179 65 178 65 b 125 24 168 52 145 24 b 82 59 107 24 93 36 b 66 156 71 83 66 116 b 210 434 66 288 125 434 b 284 362 251 434 273 395 l 285 360 b 285 360 285 360 285 360 b 294 317 291 342 294 326 b 179 66 263 223 223 124 z "},"å":{"ha":585,"x_min":0,"x_max":0,"o":"m 617 284 b 599 276 610 287 602 283 b 594 262 598 273 596 268 b 510 83 565 184 537 125 b 509 83 510 83 510 83 l 507 79 b 445 28 496 63 471 28 b 429 36 441 28 435 29 b 393 260 415 51 393 101 b 402 446 393 358 402 445 b 392 467 403 453 399 461 b 353 472 383 474 366 478 b 340 459 347 469 342 465 b 337 455 339 458 338 457 b 331 433 336 452 334 445 b 312 370 325 413 319 392 b 200 474 296 418 262 474 b 44 371 137 474 83 439 b -7 169 12 314 -7 241 b 106 -14 -7 58 38 -14 b 200 46 138 -14 169 6 b 321 307 240 98 280 185 b 323 311 322 308 323 310 b 329 331 325 318 327 324 b 379 7 326 219 330 61 b 424 -14 392 -7 407 -14 b 620 252 512 -14 578 138 b 625 266 622 258 624 262 b 617 284 628 273 625 281 z m 179 66 b 178 64 179 65 178 65 b 125 24 168 52 145 24 b 82 59 107 24 93 36 b 66 156 71 83 66 116 b 210 434 66 288 125 434 b 284 362 251 434 273 395 l 285 360 b 285 360 285 360 285 360 b 294 317 291 342 294 326 b 179 66 263 223 223 124 z "},"b":{"ha":522,"x_min":0,"x_max":0,"o":"m 554 293 b 535 285 547 296 538 292 b 348 197 510 225 462 201 b 360 298 356 230 360 264 b 333 425 360 348 350 392 b 242 483 312 463 281 483 b 112 365 189 483 145 443 b 111 363 111 364 111 364 b 107 353 110 360 108 357 b 106 352 107 353 107 353 b 103 344 105 350 104 347 b 103 343 103 344 103 343 b 102 339 102 341 102 340 b 76 252 92 313 84 284 b 70 222 74 242 72 232 b 73 448 69 293 70 371 b 284 836 168 469 284 698 b 266 910 284 867 278 892 b 200 943 251 932 229 943 b 107 903 165 943 133 929 b 2 141 -7 787 -2 429 b 3 0 2 91 3 44 b 16 -26 3 -16 11 -24 b 29 -30 20 -29 24 -30 b 49 -24 36 -30 43 -28 b 72 9 60 -18 72 -6 b 72 9 72 9 72 9 b 72 9 72 9 72 9 b 76 74 72 24 74 47 b 143 365 84 156 104 281 b 145 369 144 367 144 368 b 227 437 163 405 190 437 b 273 403 247 437 262 426 b 290 308 284 380 290 347 b 276 195 290 271 285 232 b 140 153 207 191 164 171 b 86 73 108 131 89 103 b 85 69 86 72 86 71 b 85 68 85 69 85 68 b 85 64 85 66 85 65 b 162 -5 85 23 117 -5 b 340 168 247 -5 310 72 b 561 274 473 172 531 201 b 554 293 565 281 561 290 z m 166 865 b 222 890 183 882 201 890 b 242 881 231 890 237 887 b 237 728 261 856 253 787 b 237 727 237 728 237 728 b 74 477 203 616 129 497 b 166 865 83 646 106 804 z m 250 123 b 149 34 234 90 199 34 b 114 67 125 34 114 45 b 156 130 115 89 131 113 b 267 166 176 144 211 161 b 250 123 262 151 256 137 z "},"c":{"ha":389,"x_min":0,"x_max":0,"o":"m 422 284 b 403 277 415 287 406 284 b 291 102 391 252 349 168 b 284 94 289 99 287 97 b 157 25 256 64 211 25 b 95 77 131 25 110 43 b 71 207 79 110 71 156 b 189 434 71 317 112 434 b 258 368 227 434 248 400 b 260 362 259 366 260 364 l 261 361 b 269 314 267 341 269 323 b 283 299 269 306 275 299 b 297 313 291 299 297 305 b 289 367 298 322 295 343 b 289 367 289 367 289 367 b 288 369 288 368 288 369 l 288 370 b 285 377 287 373 286 375 b 284 381 285 379 285 380 b 283 385 284 382 283 383 b 247 445 275 406 263 428 b 180 474 228 464 205 474 b 43 390 123 474 75 445 b 0 215 15 343 0 281 b 35 60 0 156 12 101 b 146 -14 62 11 100 -14 b 307 77 206 -14 261 26 b 327 101 315 86 322 94 b 329 102 328 101 328 102 l 329 103 b 330 104 329 103 330 103 b 429 265 378 164 413 232 b 422 284 432 272 429 280 z "},"ç":{"ha":389,"x_min":0,"x_max":0,"o":"m 422 284 b 403 277 415 287 406 284 b 291 102 391 252 349 168 b 284 94 289 99 287 97 b 157 25 256 64 211 25 b 95 77 131 25 110 43 b 71 207 79 110 71 156 b 189 434 71 317 112 434 b 258 368 227 434 248 400 b 260 362 259 366 260 364 l 261 361 b 269 314 267 341 269 323 b 283 299 269 306 275 299 b 297 313 291 299 297 305 b 289 367 298 322 295 343 b 289 367 289 367 289 367 b 288 369 288 368 288 369 l 288 370 b 285 377 287 373 286 375 b 284 381 285 379 285 380 b 283 385 284 382 283 383 b 247 445 275 406 263 428 b 180 474 228 464 205 474 b 43 390 123 474 75 445 b 0 215 15 343 0 281 b 35 60 0 156 12 101 b 146 -14 62 11 100 -14 b 307 77 206 -14 261 26 b 327 101 315 86 322 94 b 329 102 328 101 328 102 l 329 103 b 330 104 329 103 330 103 b 429 265 378 164 413 232 b 422 284 432 272 429 280 z "},"d":{"ha":626,"x_min":0,"x_max":0,"o":"m 660 283 b 641 277 653 287 644 284 b 631 258 639 274 635 267 b 541 96 599 190 569 136 b 538 93 540 95 539 94 b 470 34 513 60 487 34 b 358 424 406 34 358 202 b 358 447 358 431 358 439 b 553 734 437 459 520 608 b 567 831 562 769 567 803 b 548 909 567 864 561 890 b 481 943 534 931 510 943 b 335 769 420 943 369 883 b 291 417 307 676 291 547 b 291 405 291 413 291 409 b 199 474 268 451 236 474 b -7 168 70 474 -7 319 b 18 43 -7 119 2 76 b 102 -14 38 6 67 -14 b 212 53 144 -14 180 13 b 303 229 250 103 281 171 b 324 124 308 190 315 155 b 436 -14 342 61 376 -14 b 571 89 485 -14 530 30 b 574 94 572 90 573 92 b 600 134 588 113 597 130 b 600 136 600 135 600 135 b 600 136 600 136 600 136 b 657 246 621 173 641 211 b 666 264 661 254 664 261 b 660 283 669 271 667 280 z m 397 747 b 503 890 424 839 462 890 b 525 880 513 890 520 887 b 525 741 533 871 548 839 b 524 736 524 739 524 738 b 359 476 493 619 416 491 b 397 747 363 578 376 674 z m 190 72 b 190 72 190 72 190 72 b 120 26 164 41 141 26 b 81 59 104 26 90 37 b 65 154 71 82 65 115 b 213 432 65 267 118 432 b 277 366 248 432 266 394 l 278 363 b 279 362 278 362 278 362 b 294 291 289 332 294 304 b 190 72 267 210 231 126 z "},"e":{"ha":374,"x_min":0,"x_max":0,"o":"m 406 284 b 387 276 398 287 390 283 b 302 121 385 270 354 191 b 301 120 302 121 301 120 b 297 114 300 118 298 116 b 292 109 295 113 294 111 b 159 25 270 82 217 25 b 96 77 133 25 112 43 b 73 207 81 110 73 156 b 75 257 73 223 74 240 b 207 304 142 260 183 283 b 247 359 225 319 239 338 b 247 359 247 359 247 359 b 248 361 247 360 247 360 b 248 363 248 362 248 362 b 249 365 249 363 249 364 b 255 399 253 376 255 388 b 181 474 255 444 225 474 b 43 387 124 474 76 444 b 0 209 15 340 0 276 b 32 58 0 151 11 97 b 135 -14 57 11 92 -14 b 308 84 195 -14 254 19 b 310 85 309 84 309 85 b 314 91 311 87 313 89 b 315 91 314 91 315 91 b 322 100 317 95 320 98 b 325 104 323 102 324 103 b 325 104 325 104 325 104 b 325 105 325 105 325 105 b 414 266 378 175 408 251 b 406 284 417 273 413 281 z m 190 434 b 221 422 205 434 215 430 b 222 374 230 409 225 385 b 221 370 222 373 221 371 b 188 325 214 354 203 338 b 80 286 169 308 135 289 b 190 434 94 366 132 434 z "},"è":{"ha":374,"x_min":0,"x_max":0,"o":"m 406 284 b 387 276 398 287 390 283 b 302 121 385 270 354 191 b 301 120 302 121 301 120 b 297 114 300 118 298 116 b 292 109 295 113 294 111 b 159 25 270 82 217 25 b 96 77 133 25 112 43 b 73 207 81 110 73 156 b 75 257 73 223 74 240 b 207 304 142 260 183 283 b 247 359 225 319 239 338 b 247 359 247 359 247 359 b 248 361 247 360 247 360 b 248 363 248 362 248 362 b 249 365 249 363 249 364 b 255 399 253 376 255 388 b 181 474 255 444 225 474 b 43 387 124 474 76 444 b 0 209 15 340 0 276 b 32 58 0 151 11 97 b 135 -14 57 11 92 -14 b 308 84 195 -14 254 19 b 310 85 309 84 309 85 b 314 91 311 87 313 89 b 315 91 314 91 315 91 b 322 100 317 95 320 98 b 325 104 323 102 324 103 b 325 104 325 104 325 104 b 325 105 325 105 325 105 b 414 266 378 175 408 251 b 406 284 417 273 413 281 z m 190 434 b 221 422 205 434 215 430 b 222 374 230 409 225 385 b 221 370 222 373 221 371 b 188 325 214 354 203 338 b 80 286 169 308 135 289 b 190 434 94 366 132 434 z "},"é":{"ha":374,"x_min":0,"x_max":0,"o":"m 406 284 b 387 276 398 287 390 283 b 302 121 385 270 354 191 b 301 120 302 121 301 120 b 297 114 300 118 298 116 b 292 109 295 113 294 111 b 159 25 270 82 217 25 b 96 77 133 25 112 43 b 73 207 81 110 73 156 b 75 257 73 223 74 240 b 207 304 142 260 183 283 b 247 359 225 319 239 338 b 247 359 247 359 247 359 b 248 361 247 360 247 360 b 248 363 248 362 248 362 b 249 365 249 363 249 364 b 255 399 253 376 255 388 b 181 474 255 444 225 474 b 43 387 124 474 76 444 b 0 209 15 340 0 276 b 32 58 0 151 11 97 b 135 -14 57 11 92 -14 b 308 84 195 -14 254 19 b 310 85 309 84 309 85 b 314 91 311 87 313 89 b 315 91 314 91 315 91 b 322 100 317 95 320 98 b 325 104 323 102 324 103 b 325 104 325 104 325 104 b 325 105 325 105 325 105 b 414 266 378 175 408 251 b 406 284 417 273 413 281 z m 190 434 b 221 422 205 434 215 430 b 222 374 230 409 225 385 b 221 370 222 373 221 371 b 188 325 214 354 203 338 b 80 286 169 308 135 289 b 190 434 94 366 132 434 z "},"ê":{"ha":374,"x_min":0,"x_max":0,"o":"m 406 284 b 387 276 398 287 390 283 b 302 121 385 270 354 191 b 301 120 302 121 301 120 b 297 114 300 118 298 116 b 292 109 295 113 294 111 b 159 25 270 82 217 25 b 96 77 133 25 112 43 b 73 207 81 110 73 156 b 75 257 73 223 74 240 b 207 304 142 260 183 283 b 247 359 225 319 239 338 b 247 359 247 359 247 359 b 248 361 247 360 247 360 b 248 363 248 362 248 362 b 249 365 249 363 249 364 b 255 399 253 376 255 388 b 181 474 255 444 225 474 b 43 387 124 474 76 444 b 0 209 15 340 0 276 b 32 58 0 151 11 97 b 135 -14 57 11 92 -14 b 308 84 195 -14 254 19 b 310 85 309 84 309 85 b 314 91 311 87 313 89 b 315 91 314 91 315 91 b 322 100 317 95 320 98 b 325 104 323 102 324 103 b 325 104 325 104 325 104 b 325 105 325 105 325 105 b 414 266 378 175 408 251 b 406 284 417 273 413 281 z m 190 434 b 221 422 205 434 215 430 b 222 374 230 409 225 385 b 221 370 222 373 221 371 b 188 325 214 354 203 338 b 80 286 169 308 135 289 b 190 434 94 366 132 434 z "},"ë":{"ha":374,"x_min":0,"x_max":0,"o":"m 406 284 b 387 276 398 287 390 283 b 302 121 385 270 354 191 b 301 120 302 121 301 120 b 297 114 300 118 298 116 b 292 109 295 113 294 111 b 159 25 270 82 217 25 b 96 77 133 25 112 43 b 73 207 81 110 73 156 b 75 257 73 223 74 240 b 207 304 142 260 183 283 b 247 359 225 319 239 338 b 247 359 247 359 247 359 b 248 361 247 360 247 360 b 248 363 248 362 248 362 b 249 365 249 363 249 364 b 255 399 253 376 255 388 b 181 474 255 444 225 474 b 43 387 124 474 76 444 b 0 209 15 340 0 276 b 32 58 0 151 11 97 b 135 -14 57 11 92 -14 b 308 84 195 -14 254 19 b 310 85 309 84 309 85 b 314 91 311 87 313 89 b 315 91 314 91 315 91 b 322 100 317 95 320 98 b 325 104 323 102 324 103 b 325 104 325 104 325 104 b 325 105 325 105 325 105 b 414 266 378 175 408 251 b 406 284 417 273 413 281 z m 190 434 b 221 422 205 434 215 430 b 222 374 230 409 225 385 b 221 370 222 373 221 371 b 188 325 214 354 203 338 b 80 286 169 308 135 289 b 190 434 94 366 132 434 z "},"f":{"ha":292,"x_min":0,"x_max":0,"o":"m 314 283 b 295 278 307 287 299 285 b 74 97 277 249 187 109 b 74 124 74 106 74 115 b 87 393 74 214 79 306 b 247 547 157 404 221 503 b 306 677 271 589 291 634 b 332 816 323 727 332 775 b 310 902 332 852 325 881 b 231 938 292 926 266 938 b 55 678 158 938 98 848 b 0 165 20 536 0 349 b 30 -169 0 34 11 -84 b 134 -320 53 -269 88 -320 b 199 -245 168 -320 188 -287 b 199 -244 199 -244 199 -244 b 205 -211 202 -234 204 -223 b 206 -203 205 -209 206 -206 b 207 -186 206 -197 207 -191 b 208 -168 207 -180 208 -174 b 208 -168 208 -168 208 -168 b 208 -163 208 -166 208 -165 b 173 7 208 -101 195 -39 b 117 78 158 39 139 63 b 319 263 199 106 273 187 b 314 283 323 270 321 279 z m 259 886 b 287 873 271 886 280 882 b 279 685 314 836 293 731 b 278 684 279 685 278 684 b 90 422 237 564 154 441 b 259 886 117 678 178 886 z m 147 -5 b 179 -163 168 -47 179 -105 b 179 -168 179 -164 179 -166 b 179 -168 179 -168 179 -168 b 147 -273 178 -231 165 -273 b 95 -163 132 -273 111 -244 b 75 66 84 -104 77 -24 b 147 -5 111 57 134 24 z "},"g":{"ha":579,"x_min":0,"x_max":0,"o":"m 611 284 b 592 276 603 287 595 283 b 410 79 555 169 486 123 b 407 417 413 179 412 291 b 406 448 406 432 406 444 b 394 474 406 459 402 468 b 371 482 388 479 380 482 b 337 454 353 482 339 470 b 331 433 336 451 334 444 b 312 370 325 413 319 392 b 200 474 296 418 262 474 b 44 371 137 474 83 439 b -7 169 12 314 -7 241 b 106 -14 -7 58 38 -14 b 200 46 138 -14 169 6 b 321 307 240 98 280 185 b 323 311 322 308 323 310 b 341 369 329 330 335 349 b 341 40 344 289 346 166 b 155 -140 274 0 207 -49 b 113 -312 122 -197 111 -258 b 119 -356 114 -324 115 -339 b 141 -415 124 -378 131 -399 b 223 -469 161 -450 190 -469 b 299 -434 252 -469 277 -457 b 409 46 363 -368 399 -207 b 619 266 495 94 576 143 b 611 284 622 273 618 282 z m 179 66 b 178 64 179 65 178 65 b 125 24 168 52 145 24 b 82 59 107 24 93 36 b 66 156 71 83 66 116 b 210 434 66 288 125 434 b 282 368 249 434 270 399 b 284 362 283 366 284 364 l 285 360 b 285 360 285 360 285 360 b 294 317 291 342 294 326 b 179 66 263 223 223 124 z m 248 -404 b 205 -425 235 -418 221 -425 b 176 -412 194 -425 185 -421 b 142 -309 150 -386 142 -330 b 142 -306 142 -308 142 -307 b 179 -155 140 -252 156 -195 b 339 5 224 -76 281 -31 b 248 -404 329 -169 305 -341 z "},"h":{"ha":557,"x_min":0,"x_max":0,"o":"m 589 284 b 571 276 581 287 573 283 b 441 38 549 215 490 90 b 440 37 441 38 440 37 b 423 21 434 31 428 26 b 404 14 416 17 410 14 b 358 212 358 14 358 115 b 260 474 357 335 357 474 b 110 277 205 474 156 410 l 110 275 l 110 275 b 107 267 109 273 108 270 b 71 140 93 223 80 179 b 73 448 69 230 68 340 b 284 836 168 469 284 698 b 266 910 284 867 278 892 b 200 943 251 932 229 943 b 107 903 165 943 133 929 b 2 141 -7 787 -2 429 b 3 0 2 91 3 44 b 16 -26 3 -16 11 -24 b 29 -30 20 -29 24 -30 b 50 -24 36 -30 43 -28 b 68 -5 56 -20 64 -13 b 69 -5 68 -5 68 -5 b 70 -1 69 -3 70 -2 b 70 0 70 -1 70 -1 b 72 9 72 3 72 6 b 72 9 72 9 72 9 b 139 271 86 89 109 187 b 144 286 140 276 142 281 b 249 429 177 374 217 429 b 290 234 289 429 289 325 b 300 61 290 173 290 110 b 383 -30 312 1 340 -30 b 444 2 400 -30 425 -14 b 444 2 444 2 444 2 b 449 6 446 4 447 5 b 455 12 451 8 453 10 b 460 17 457 14 458 15 b 527 113 481 38 503 70 b 597 266 561 176 590 244 b 589 284 600 273 596 282 z m 166 865 b 222 890 183 882 201 890 b 242 881 231 890 237 887 b 237 728 261 856 253 787 b 237 727 237 728 237 728 b 74 477 203 616 129 497 b 166 865 83 646 106 804 z "},"i":{"ha":261,"x_min":0,"x_max":0,"o":"m 293 284 b 275 276 286 287 278 283 b 270 262 274 273 272 268 b 186 83 241 184 213 125 b 185 83 186 83 186 83 l 183 79 b 121 28 172 63 147 28 b 105 36 117 28 111 29 b 69 260 91 51 69 101 b 78 446 69 358 78 445 b 68 467 79 453 75 461 b 29 472 59 474 42 478 b 13 449 20 468 14 459 b 55 7 11 434 -22 93 b 100 -14 68 -7 83 -14 b 296 252 188 -14 254 138 b 301 266 298 258 300 262 b 293 284 304 273 301 281 z m 52 494 b 104 547 81 494 104 518 b 52 599 104 575 81 599 b 0 547 23 599 0 575 b 52 494 0 518 23 494 z "},"ì":{"ha":261,"x_min":0,"x_max":0,"o":"m 293 284 b 275 276 286 287 278 283 b 270 262 274 273 272 268 b 186 83 241 184 213 125 b 185 83 186 83 186 83 l 183 79 b 121 28 172 63 147 28 b 105 36 117 28 111 29 b 69 260 91 51 69 101 b 78 446 69 358 78 445 b 68 467 79 453 75 461 b 29 472 59 474 42 478 b 13 449 20 468 14 459 b 55 7 11 434 -22 93 b 100 -14 68 -7 83 -14 b 296 252 188 -14 254 138 b 301 266 298 258 300 262 b 293 284 304 273 301 281 z m 52 494 b 104 547 81 494 104 518 b 52 599 104 575 81 599 b 0 547 23 599 0 575 b 52 494 0 518 23 494 z "},"í":{"ha":261,"x_min":0,"x_max":0,"o":"m 293 284 b 275 276 286 287 278 283 b 270 262 274 273 272 268 b 186 83 241 184 213 125 b 185 83 186 83 186 83 l 183 79 b 121 28 172 63 147 28 b 105 36 117 28 111 29 b 69 260 91 51 69 101 b 78 446 69 358 78 445 b 68 467 79 453 75 461 b 29 472 59 474 42 478 b 13 449 20 468 14 459 b 55 7 11 434 -22 93 b 100 -14 68 -7 83 -14 b 296 252 188 -14 254 138 b 301 266 298 258 300 262 b 293 284 304 273 301 281 z m 52 494 b 104 547 81 494 104 518 b 52 599 104 575 81 599 b 0 547 23 599 0 575 b 52 494 0 518 23 494 z "},"î":{"ha":261,"x_min":0,"x_max":0,"o":"m 293 284 b 275 276 286 287 278 283 b 270 262 274 273 272 268 b 186 83 241 184 213 125 b 185 83 186 83 186 83 l 183 79 b 121 28 172 63 147 28 b 105 36 117 28 111 29 b 69 260 91 51 69 101 b 78 446 69 358 78 445 b 68 467 79 453 75 461 b 29 472 59 474 42 478 b 13 449 20 468 14 459 b 55 7 11 434 -22 93 b 100 -14 68 -7 83 -14 b 296 252 188 -14 254 138 b 301 266 298 258 300 262 b 293 284 304 273 301 281 z m 52 494 b 104 547 81 494 104 518 b 52 599 104 575 81 599 b 0 547 23 599 0 575 b 52 494 0 518 23 494 z "},"ï":{"ha":261,"x_min":0,"x_max":0,"o":"m 293 284 b 275 276 286 287 278 283 b 270 262 274 273 272 268 b 186 83 241 184 213 125 b 185 83 186 83 186 83 l 183 79 b 121 28 172 63 147 28 b 105 36 117 28 111 29 b 69 260 91 51 69 101 b 78 446 69 358 78 445 b 68 467 79 453 75 461 b 29 472 59 474 42 478 b 13 449 20 468 14 459 b 55 7 11 434 -22 93 b 100 -14 68 -7 83 -14 b 296 252 188 -14 254 138 b 301 266 298 258 300 262 b 293 284 304 273 301 281 z m 52 494 b 104 547 81 494 104 518 b 52 599 104 575 81 599 b 0 547 23 599 0 575 b 52 494 0 518 23 494 z "},"j":{"ha":249,"x_min":0,"x_max":0,"o":"m 280 284 b 262 276 273 287 265 283 b 80 79 224 169 155 123 b 77 417 83 179 82 291 b 76 448 76 432 76 444 b 64 474 76 459 72 468 b 41 482 58 479 50 482 b 6 451 21 482 6 468 b 7 449 6 450 7 450 b 10 40 10 408 19 227 b -176 -140 -57 0 -123 -49 b -217 -312 -208 -197 -220 -258 b -211 -356 -217 -324 -215 -339 b -190 -415 -207 -378 -199 -399 b -107 -469 -169 -450 -140 -469 b -31 -434 -79 -469 -53 -457 b 79 46 32 -368 69 -207 b 289 266 165 94 245 143 b 280 284 292 273 288 282 z m -82 -404 b -125 -425 -95 -418 -110 -425 b -154 -412 -136 -425 -146 -421 b -189 -309 -180 -386 -189 -330 b -189 -306 -189 -308 -189 -307 b -151 -155 -190 -252 -174 -195 b 9 5 -106 -76 -50 -31 b -82 -404 -1 -169 -26 -341 z m 36 494 b 88 547 65 494 88 518 b 36 599 88 575 65 599 b -16 547 7 599 -16 575 b 36 494 -16 518 7 494 z "},"k":{"ha":461,"x_min":0,"x_max":0,"o":"m 493 284 b 474 277 486 287 478 284 l 470 268 b 393 123 456 238 428 177 b 392 123 393 123 393 123 b 387 115 391 121 389 118 b 296 35 370 91 330 35 b 161 208 239 35 171 161 b 261 275 197 220 232 243 b 322 410 298 316 322 369 b 261 474 322 450 299 474 b 134 341 214 474 173 431 b 131 334 133 339 132 337 l 131 333 b 106 267 122 313 114 291 b 91 218 101 251 96 235 b 71 141 83 192 77 165 b 73 448 69 231 68 340 b 284 836 168 469 284 698 b 266 910 284 867 278 892 b 200 943 251 932 229 943 b 107 903 165 943 133 929 b 2 141 -7 787 -2 429 b 3 0 2 91 3 44 b 16 -26 3 -16 11 -24 b 29 -30 20 -29 24 -30 b 50 -24 36 -30 43 -28 b 68 -6 56 -20 63 -14 b 71 1 69 -4 71 -2 b 72 4 71 2 71 3 b 72 6 72 4 72 5 b 107 170 81 61 93 117 b 261 -14 143 79 196 -14 b 415 106 320 -14 373 42 b 496 256 452 161 480 222 l 500 265 b 493 284 503 272 500 280 z m 166 865 b 222 890 183 882 201 890 b 242 881 231 890 237 887 b 237 728 261 856 253 787 b 237 727 237 728 237 728 b 74 477 203 616 129 497 b 166 865 83 646 106 804 z m 170 350 b 170 352 170 351 170 351 b 248 426 194 399 222 426 b 257 422 254 426 256 423 b 260 407 259 419 260 414 b 124 230 260 355 197 247 b 170 350 138 275 153 316 z "},"l":{"ha":336,"x_min":0,"x_max":0,"o":"m 369 283 b 350 277 362 287 354 284 b 341 258 348 274 345 267 b 250 96 308 190 278 136 b 248 93 249 95 248 94 b 179 34 223 60 196 34 b 68 424 116 34 68 202 b 68 447 68 431 68 439 b 262 734 146 459 229 608 b 276 831 271 769 276 803 b 258 909 276 864 270 890 b 191 943 243 931 220 943 b 44 769 129 943 79 883 b 0 417 16 676 0 547 b 34 124 0 304 12 200 b 146 -14 51 61 85 -14 b 277 85 193 -14 238 28 b 283 94 279 88 281 91 b 309 134 297 113 306 130 b 310 136 309 135 310 136 b 366 246 331 173 350 211 b 375 264 370 254 373 261 b 369 283 379 271 376 280 z m 107 747 b 213 890 134 839 171 890 b 235 880 223 890 229 887 b 234 741 242 871 257 839 b 234 736 234 739 233 738 b 69 476 202 619 125 491 b 107 747 72 578 85 674 z "},"m":{"ha":756,"x_min":0,"x_max":0,"o":"m 788 284 b 769 277 781 287 773 284 l 763 262 b 640 42 741 210 688 90 b 636 39 638 41 637 40 b 625 29 632 35 629 32 b 602 21 617 23 610 21 b 556 215 557 21 557 119 b 459 474 556 337 555 474 b 347 339 414 474 377 429 b 328 274 335 304 329 275 b 328 270 328 273 328 271 b 311 187 322 245 316 217 b 242 447 304 288 285 401 b 194 469 228 462 212 469 b 67 246 127 469 89 359 b 66 372 67 292 66 337 b 66 447 66 415 66 444 b 32 477 66 465 51 477 b 11 471 24 477 17 475 b 0 447 4 465 0 457 l 0 0 b 11 -24 0 -10 4 -19 b 34 -32 17 -29 25 -32 b 68 -2 53 -32 68 -19 b 68 0 68 -1 68 -1 b 111 310 68 61 82 203 b 111 311 111 311 111 311 l 112 312 b 178 429 144 420 171 429 b 196 420 184 429 190 426 b 250 14 234 382 254 233 b 250 5 250 10 250 7 b 281 -26 250 -13 263 -26 b 282 -26 282 -26 282 -26 b 315 3 300 -26 314 -14 b 315 3 315 3 315 3 l 315 4 l 316 10 b 371 320 331 157 351 255 b 371 322 371 321 371 321 b 447 429 389 373 416 429 b 490 234 489 429 489 325 b 581 -23 491 108 491 -23 b 645 9 599 -23 625 -8 b 789 251 698 49 746 152 l 796 265 b 788 284 799 272 795 281 z "},"n":{"ha":579,"x_min":0,"x_max":0,"o":"m 611 284 b 592 277 604 287 596 284 l 586 263 b 459 42 560 206 508 90 b 454 39 457 41 455 40 b 442 29 450 35 446 32 b 418 21 434 23 426 21 b 370 215 371 21 370 119 b 270 474 370 337 369 474 b 117 288 207 474 156 387 l 116 286 l 116 284 b 115 283 116 284 115 283 b 68 132 96 232 80 179 b 66 372 67 212 67 308 b 66 447 66 415 66 444 b 32 477 66 465 51 477 b 11 471 24 477 17 475 b 0 447 4 465 0 457 l 0 0 b 11 -24 0 -10 4 -19 b 34 -32 17 -29 25 -32 b 68 -2 53 -32 68 -19 b 68 -2 68 -2 68 -2 b 148 288 73 41 104 177 b 150 293 149 290 149 291 b 257 429 197 405 234 429 b 302 234 301 429 302 330 b 396 -23 303 108 304 -23 b 462 9 413 -23 440 -10 b 612 251 516 48 567 152 l 618 265 b 611 284 622 272 618 280 z "},"ñ":{"ha":579,"x_min":0,"x_max":0,"o":"m 611 284 b 592 277 604 287 596 284 l 586 263 b 459 42 560 206 508 90 b 454 39 457 41 455 40 b 442 29 450 35 446 32 b 418 21 434 23 426 21 b 370 215 371 21 370 119 b 270 474 370 337 369 474 b 117 288 207 474 156 387 l 116 286 l 116 284 b 115 283 116 284 115 283 b 68 132 96 232 80 179 b 66 372 67 212 67 308 b 66 447 66 415 66 444 b 32 477 66 465 51 477 b 11 471 24 477 17 475 b 0 447 4 465 0 457 l 0 0 b 11 -24 0 -10 4 -19 b 34 -32 17 -29 25 -32 b 68 -2 53 -32 68 -19 b 68 -2 68 -2 68 -2 b 148 288 73 41 104 177 b 150 293 149 290 149 291 b 257 429 197 405 234 429 b 302 234 301 429 302 330 b 396 -23 303 108 304 -23 b 462 9 413 -23 440 -10 b 612 251 516 48 567 152 l 618 265 b 611 284 622 272 618 280 z "},"o":{"ha":496,"x_min":0,"x_max":0,"o":"m 528 284 b 510 276 521 287 513 283 b 370 42 466 157 419 46 b 309 81 352 41 332 54 b 312 85 311 82 312 84 b 314 88 313 86 313 87 b 346 227 334 128 346 175 b 329 330 346 264 340 299 b 329 331 329 330 329 330 b 323 345 329 331 327 336 b 321 349 323 346 322 347 b 319 353 321 350 320 352 b 173 466 289 421 235 466 b 0 227 78 466 0 359 b 173 -12 0 95 78 -12 b 293 56 220 -12 262 14 b 367 14 319 27 343 14 b 372 14 369 14 370 14 b 537 266 434 18 479 110 b 528 284 539 273 535 281 z m 291 106 b 261 154 281 120 272 136 b 242 160 258 161 249 164 b 236 141 235 156 233 148 b 274 80 249 117 262 97 b 204 34 259 60 234 34 b 112 85 167 34 135 52 b 75 227 88 120 75 169 b 192 428 75 322 123 428 b 271 380 220 428 247 412 b 297 334 283 363 292 346 b 298 333 297 334 297 333 b 301 323 299 330 300 326 b 302 321 301 322 302 322 b 317 227 312 293 317 261 b 291 106 317 182 307 140 z "},"ò":{"ha":496,"x_min":0,"x_max":0,"o":"m 528 284 b 510 276 521 287 513 283 b 370 42 466 157 419 46 b 309 81 352 41 332 54 b 312 85 311 82 312 84 b 314 88 313 86 313 87 b 346 227 334 128 346 175 b 329 330 346 264 340 299 b 329 331 329 330 329 330 b 323 345 329 331 327 336 b 321 349 323 346 322 347 b 319 353 321 350 320 352 b 173 466 289 421 235 466 b 0 227 78 466 0 359 b 173 -12 0 95 78 -12 b 293 56 220 -12 262 14 b 367 14 319 27 343 14 b 372 14 369 14 370 14 b 537 266 434 18 479 110 b 528 284 539 273 535 281 z m 291 106 b 261 154 281 120 272 136 b 242 160 258 161 249 164 b 236 141 235 156 233 148 b 274 80 249 117 262 97 b 204 34 259 60 234 34 b 112 85 167 34 135 52 b 75 227 88 120 75 169 b 192 428 75 322 123 428 b 271 380 220 428 247 412 b 297 334 283 363 292 346 b 298 333 297 334 297 333 b 301 323 299 330 300 326 b 302 321 301 322 302 322 b 317 227 312 293 317 261 b 291 106 317 182 307 140 z "},"ó":{"ha":496,"x_min":0,"x_max":0,"o":"m 528 284 b 510 276 521 287 513 283 b 370 42 466 157 419 46 b 309 81 352 41 332 54 b 312 85 311 82 312 84 b 314 88 313 86 313 87 b 346 227 334 128 346 175 b 329 330 346 264 340 299 b 329 331 329 330 329 330 b 323 345 329 331 327 336 b 321 349 323 346 322 347 b 319 353 321 350 320 352 b 173 466 289 421 235 466 b 0 227 78 466 0 359 b 173 -12 0 95 78 -12 b 293 56 220 -12 262 14 b 367 14 319 27 343 14 b 372 14 369 14 370 14 b 537 266 434 18 479 110 b 528 284 539 273 535 281 z m 291 106 b 261 154 281 120 272 136 b 242 160 258 161 249 164 b 236 141 235 156 233 148 b 274 80 249 117 262 97 b 204 34 259 60 234 34 b 112 85 167 34 135 52 b 75 227 88 120 75 169 b 192 428 75 322 123 428 b 271 380 220 428 247 412 b 297 334 283 363 292 346 b 298 333 297 334 297 333 b 301 323 299 330 300 326 b 302 321 301 322 302 322 b 317 227 312 293 317 261 b 291 106 317 182 307 140 z "},"ô":{"ha":496,"x_min":0,"x_max":0,"o":"m 528 284 b 510 276 521 287 513 283 b 370 42 466 157 419 46 b 309 81 352 41 332 54 b 312 85 311 82 312 84 b 314 88 313 86 313 87 b 346 227 334 128 346 175 b 329 330 346 264 340 299 b 329 331 329 330 329 330 b 323 345 329 331 327 336 b 321 349 323 346 322 347 b 319 353 321 350 320 352 b 173 466 289 421 235 466 b 0 227 78 466 0 359 b 173 -12 0 95 78 -12 b 293 56 220 -12 262 14 b 367 14 319 27 343 14 b 372 14 369 14 370 14 b 537 266 434 18 479 110 b 528 284 539 273 535 281 z m 291 106 b 261 154 281 120 272 136 b 242 160 258 161 249 164 b 236 141 235 156 233 148 b 274 80 249 117 262 97 b 204 34 259 60 234 34 b 112 85 167 34 135 52 b 75 227 88 120 75 169 b 192 428 75 322 123 428 b 271 380 220 428 247 412 b 297 334 283 363 292 346 b 298 333 297 334 297 333 b 301 323 299 330 300 326 b 302 321 301 322 302 322 b 317 227 312 293 317 261 b 291 106 317 182 307 140 z "},"õ":{"ha":496,"x_min":0,"x_max":0,"o":"m 528 284 b 510 276 521 287 513 283 b 370 42 466 157 419 46 b 309 81 352 41 332 54 b 312 85 311 82 312 84 b 314 88 313 86 313 87 b 346 227 334 128 346 175 b 329 330 346 264 340 299 b 329 331 329 330 329 330 b 323 345 329 331 327 336 b 321 349 323 346 322 347 b 319 353 321 350 320 352 b 173 466 289 421 235 466 b 0 227 78 466 0 359 b 173 -12 0 95 78 -12 b 293 56 220 -12 262 14 b 367 14 319 27 343 14 b 372 14 369 14 370 14 b 537 266 434 18 479 110 b 528 284 539 273 535 281 z m 291 106 b 261 154 281 120 272 136 b 242 160 258 161 249 164 b 236 141 235 156 233 148 b 274 80 249 117 262 97 b 204 34 259 60 234 34 b 112 85 167 34 135 52 b 75 227 88 120 75 169 b 192 428 75 322 123 428 b 271 380 220 428 247 412 b 297 334 283 363 292 346 b 298 333 297 334 297 333 b 301 323 299 330 300 326 b 302 321 301 322 302 322 b 317 227 312 293 317 261 b 291 106 317 182 307 140 z "},"ö":{"ha":496,"x_min":0,"x_max":0,"o":"m 528 284 b 510 276 521 287 513 283 b 370 42 466 157 419 46 b 309 81 352 41 332 54 b 312 85 311 82 312 84 b 314 88 313 86 313 87 b 346 227 334 128 346 175 b 329 330 346 264 340 299 b 329 331 329 330 329 330 b 323 345 329 331 327 336 b 321 349 323 346 322 347 b 319 353 321 350 320 352 b 173 466 289 421 235 466 b 0 227 78 466 0 359 b 173 -12 0 95 78 -12 b 293 56 220 -12 262 14 b 367 14 319 27 343 14 b 372 14 369 14 370 14 b 537 266 434 18 479 110 b 528 284 539 273 535 281 z m 291 106 b 261 154 281 120 272 136 b 242 160 258 161 249 164 b 236 141 235 156 233 148 b 274 80 249 117 262 97 b 204 34 259 60 234 34 b 112 85 167 34 135 52 b 75 227 88 120 75 169 b 192 428 75 322 123 428 b 271 380 220 428 247 412 b 297 334 283 363 292 346 b 298 333 297 334 297 333 b 301 323 299 330 300 326 b 302 321 301 322 302 322 b 317 227 312 293 317 261 b 291 106 317 182 307 140 z "},"ø":{"ha":496,"x_min":0,"x_max":0,"o":"m 528 284 b 510 276 521 287 513 283 b 370 42 466 157 419 46 b 309 81 352 41 332 54 b 312 85 311 82 312 84 b 314 88 313 86 313 87 b 346 227 334 128 346 175 b 329 330 346 264 340 299 b 329 331 329 330 329 330 b 323 345 329 331 327 336 b 321 349 323 346 322 347 b 319 353 321 350 320 352 b 173 466 289 421 235 466 b 0 227 78 466 0 359 b 173 -12 0 95 78 -12 b 293 56 220 -12 262 14 b 367 14 319 27 343 14 b 372 14 369 14 370 14 b 537 266 434 18 479 110 b 528 284 539 273 535 281 z m 291 106 b 261 154 281 120 272 136 b 242 160 258 161 249 164 b 236 141 235 156 233 148 b 274 80 249 117 262 97 b 204 34 259 60 234 34 b 112 85 167 34 135 52 b 75 227 88 120 75 169 b 192 428 75 322 123 428 b 271 380 220 428 247 412 b 297 334 283 363 292 346 b 298 333 297 334 297 333 b 301 323 299 330 300 326 b 302 321 301 322 302 322 b 317 227 312 293 317 261 b 291 106 317 182 307 140 z "},"p":{"ha":546,"x_min":0,"x_max":0,"o":"m 578 283 b 559 277 571 287 563 284 b 365 188 528 216 480 192 b 379 294 374 222 379 259 b 352 418 379 344 369 387 b 261 474 331 455 300 474 b 69 251 172 474 106 397 b 66 238 68 246 67 242 b 66 286 66 255 66 271 b 66 447 66 380 66 444 b 32 477 66 465 51 477 b 11 471 24 477 17 475 b 0 447 4 465 0 457 l 0 -460 b 11 -484 0 -470 4 -478 b 34 -492 17 -489 25 -492 b 68 -460 53 -492 68 -478 b 67 -6 68 -421 68 -212 b 68 0 68 -4 68 -2 b 88 202 68 11 69 103 b 88 202 88 202 88 202 l 89 206 b 245 428 110 307 155 428 b 291 396 265 428 280 418 b 308 304 302 374 308 342 b 291 186 308 265 302 224 b 151 144 221 182 177 162 b 95 60 118 122 98 91 b 95 59 95 60 95 59 b 95 54 95 57 95 55 b 172 -14 95 14 127 -14 b 357 159 260 -14 325 63 b 585 264 490 163 548 191 b 578 283 588 271 585 280 z m 159 25 b 124 58 135 25 124 36 b 124 58 124 58 124 58 b 167 121 125 80 142 103 b 282 157 188 135 224 152 b 159 25 255 83 211 25 z "},"q":{"ha":640,"x_min":0,"x_max":0,"o":"m 674 283 b 654 278 667 287 658 285 b 636 247 649 269 643 259 b 391 14 587 161 504 18 b 408 447 388 181 399 353 b 408 448 408 447 408 448 b 371 486 408 472 389 486 b 339 459 357 486 343 477 b 337 455 339 458 338 457 b 331 433 336 452 334 445 b 312 370 325 413 319 392 b 200 474 296 418 262 474 b 44 371 137 474 83 439 b -7 169 12 314 -7 241 b 106 -14 -7 58 38 -14 b 200 46 138 -14 169 6 b 321 307 240 98 280 185 b 323 311 322 308 323 310 b 332 338 326 320 329 329 b 417 -436 319 122 303 -314 b 492 -470 438 -459 463 -470 b 584 -334 550 -470 584 -421 b 582 -302 584 -324 583 -313 b 582 -299 582 -301 582 -300 b 582 -297 582 -298 582 -298 b 443 -5 571 -189 516 -53 b 661 233 544 31 615 154 b 679 263 667 244 673 254 b 674 283 683 270 681 279 z m 179 66 b 178 64 179 65 178 65 b 125 24 168 52 145 24 b 82 59 107 24 93 36 b 66 156 71 83 66 116 b 210 434 66 288 125 434 b 282 368 249 434 270 399 b 284 362 283 366 284 364 l 285 360 b 285 360 285 360 285 360 b 294 317 291 342 294 326 b 179 66 263 223 223 124 z m 554 -300 b 554 -301 554 -301 554 -301 b 535 -416 558 -356 551 -398 b 509 -427 528 -423 520 -427 b 469 -407 494 -427 481 -420 b 392 -14 417 -349 397 -187 b 554 -300 467 -21 542 -174 z "},"r":{"ha":500,"x_min":0,"x_max":0,"o":"m 533 284 b 514 276 525 287 517 284 b 504 251 512 271 508 262 b 426 82 490 213 462 137 b 425 81 426 82 426 81 b 422 75 424 79 423 77 b 363 28 411 60 388 28 b 344 38 356 28 350 31 b 316 373 296 92 310 317 b 316 374 316 373 316 373 b 317 375 316 374 317 375 b 317 376 317 375 317 375 b 317 377 317 376 317 376 b 318 386 317 379 318 383 b 316 432 322 417 323 425 b 304 436 313 435 308 437 b 100 494 230 428 149 458 b 105 530 102 507 104 519 b 106 531 106 530 106 531 b 106 532 106 531 106 532 b 108 566 107 544 108 556 b 57 628 108 622 73 628 b -4 563 28 628 -4 602 b 64 456 -4 527 23 488 b 12 276 48 385 24 308 b 20 257 9 268 13 260 b 25 257 22 257 23 257 b 38 266 31 257 36 260 b 88 438 50 297 72 369 b 251 381 135 408 194 386 b 293 9 246 328 226 83 b 343 -14 307 -6 324 -14 b 531 241 436 -14 500 158 b 540 265 535 252 538 260 b 533 284 543 272 540 281 z m 77 534 b 77 533 77 533 77 533 b 75 516 77 528 76 522 b 48 571 58 535 48 554 b 66 594 48 579 51 594 b 72 591 69 594 71 593 b 77 534 81 581 78 545 z "},"s":{"ha":421,"x_min":0,"x_max":0,"o":"m 461 274 b 444 285 459 282 452 286 b 202 179 338 259 259 218 b 170 211 192 190 181 201 b 76 363 121 258 76 301 b 196 467 76 383 97 467 b 241 449 214 467 230 461 b 264 390 257 433 264 408 b 264 390 264 390 264 390 b 265 384 263 387 264 385 b 266 381 265 383 265 382 b 267 380 266 381 266 381 b 273 376 268 378 270 377 b 274 375 273 376 274 375 b 275 375 274 375 275 375 b 277 375 276 375 276 375 b 277 375 277 375 277 375 b 280 375 278 375 279 375 b 284 376 282 375 283 376 l 284 376 b 285 377 285 377 285 377 b 288 379 286 378 287 378 b 290 382 289 380 289 381 b 291 383 290 382 291 383 b 291 385 291 384 291 384 b 292 387 291 385 292 386 b 292 388 292 388 292 388 b 292 389 292 388 292 388 b 258 480 293 412 285 450 b 172 515 236 503 207 515 b 0 343 89 515 3 456 b 112 160 -2 270 56 214 b 142 130 122 150 132 140 b 138 126 141 129 139 128 b 44 -49 74 66 38 -1 b 102 -98 47 -80 69 -98 b 105 -98 103 -98 104 -98 b 106 -98 105 -98 106 -98 b 124 -96 111 -98 117 -98 b 126 -96 125 -96 126 -96 b 132 -95 128 -96 130 -95 b 138 -93 134 -94 136 -94 b 268 49 192 -80 268 -35 b 222 158 268 91 249 126 b 451 257 281 198 357 234 b 461 274 458 259 463 266 z m 205 17 b 140 -63 204 -7 183 -48 b 117 -69 131 -66 123 -68 b 114 -69 116 -69 115 -69 b 102 -70 110 -69 106 -70 b 72 -45 83 -70 74 -62 b 162 110 68 -10 98 50 b 205 17 189 79 207 49 z "},"t":{"ha":267,"x_min":0,"x_max":0,"o":"m 299 284 b 281 276 292 287 284 283 b 276 262 279 273 278 268 b 192 83 247 184 219 125 b 191 83 192 83 192 83 l 190 81 b 132 38 179 66 159 38 b 116 47 128 38 123 39 b 81 696 69 98 57 331 b 231 695 142 696 199 695 b 265 695 246 695 258 695 b 279 709 273 695 279 701 b 265 723 279 717 273 723 b 231 723 258 723 247 723 b 83 724 183 724 132 724 b 97 896 87 778 92 836 b 99 919 98 909 99 917 b 67 950 100 936 87 948 b 26 922 45 952 28 940 l 26 920 b 10 723 23 891 16 817 b -180 708 -80 722 -154 718 b -188 690 -187 706 -191 698 b -175 681 -186 684 -181 681 b -170 682 -173 681 -172 681 b 8 695 -147 690 -73 693 b -2 498 4 634 0 567 b 61 8 -9 227 12 62 b 106 -14 74 -7 89 -14 b 302 252 194 -14 260 138 b 307 266 304 258 306 262 b 299 284 310 273 306 281 z "},"u":{"ha":544,"x_min":0,"x_max":0,"o":"m 576 284 b 558 276 569 287 561 283 b 553 262 557 273 555 268 b 469 83 524 184 496 125 b 469 83 469 83 469 83 l 466 79 b 404 28 455 63 430 28 b 390 35 401 28 396 29 b 367 446 338 94 362 404 b 357 466 368 453 364 460 b 312 471 347 473 327 478 b 296 450 303 467 297 460 b 290 423 294 444 293 434 b 192 97 260 273 227 164 b 192 95 192 96 192 96 l 189 91 b 123 28 179 72 154 28 b 107 36 120 28 114 29 b 72 260 94 51 71 101 b 81 446 72 358 81 445 b 71 466 82 453 78 460 b 26 471 61 473 41 478 b 10 449 17 467 11 459 l 10 448 b 52 9 1 366 -20 90 b 103 -14 66 -6 83 -14 b 253 165 160 -14 209 44 b 287 279 266 202 278 242 b 338 7 287 175 296 53 b 383 -14 351 -7 366 -14 b 579 252 471 -14 537 138 b 584 266 581 258 583 262 b 576 284 587 273 584 281 z "},"ù":{"ha":544,"x_min":0,"x_max":0,"o":"m 576 284 b 558 276 569 287 561 283 b 553 262 557 273 555 268 b 469 83 524 184 496 125 b 469 83 469 83 469 83 l 466 79 b 404 28 455 63 430 28 b 390 35 401 28 396 29 b 367 446 338 94 362 404 b 357 466 368 453 364 460 b 312 471 347 473 327 478 b 296 450 303 467 297 460 b 290 423 294 444 293 434 b 192 97 260 273 227 164 b 192 95 192 96 192 96 l 189 91 b 123 28 179 72 154 28 b 107 36 120 28 114 29 b 72 260 94 51 71 101 b 81 446 72 358 81 445 b 71 466 82 453 78 460 b 26 471 61 473 41 478 b 10 449 17 467 11 459 l 10 448 b 52 9 1 366 -20 90 b 103 -14 66 -6 83 -14 b 253 165 160 -14 209 44 b 287 279 266 202 278 242 b 338 7 287 175 296 53 b 383 -14 351 -7 366 -14 b 579 252 471 -14 537 138 b 584 266 581 258 583 262 b 576 284 587 273 584 281 z "},"ú":{"ha":544,"x_min":0,"x_max":0,"o":"m 576 284 b 558 276 569 287 561 283 b 553 262 557 273 555 268 b 469 83 524 184 496 125 b 469 83 469 83 469 83 l 466 79 b 404 28 455 63 430 28 b 390 35 401 28 396 29 b 367 446 338 94 362 404 b 357 466 368 453 364 460 b 312 471 347 473 327 478 b 296 450 303 467 297 460 b 290 423 294 444 293 434 b 192 97 260 273 227 164 b 192 95 192 96 192 96 l 189 91 b 123 28 179 72 154 28 b 107 36 120 28 114 29 b 72 260 94 51 71 101 b 81 446 72 358 81 445 b 71 466 82 453 78 460 b 26 471 61 473 41 478 b 10 449 17 467 11 459 l 10 448 b 52 9 1 366 -20 90 b 103 -14 66 -6 83 -14 b 253 165 160 -14 209 44 b 287 279 266 202 278 242 b 338 7 287 175 296 53 b 383 -14 351 -7 366 -14 b 579 252 471 -14 537 138 b 584 266 581 258 583 262 b 576 284 587 273 584 281 z "},"û":{"ha":544,"x_min":0,"x_max":0,"o":"m 576 284 b 558 276 569 287 561 283 b 553 262 557 273 555 268 b 469 83 524 184 496 125 b 469 83 469 83 469 83 l 466 79 b 404 28 455 63 430 28 b 390 35 401 28 396 29 b 367 446 338 94 362 404 b 357 466 368 453 364 460 b 312 471 347 473 327 478 b 296 450 303 467 297 460 b 290 423 294 444 293 434 b 192 97 260 273 227 164 b 192 95 192 96 192 96 l 189 91 b 123 28 179 72 154 28 b 107 36 120 28 114 29 b 72 260 94 51 71 101 b 81 446 72 358 81 445 b 71 466 82 453 78 460 b 26 471 61 473 41 478 b 10 449 17 467 11 459 l 10 448 b 52 9 1 366 -20 90 b 103 -14 66 -6 83 -14 b 253 165 160 -14 209 44 b 287 279 266 202 278 242 b 338 7 287 175 296 53 b 383 -14 351 -7 366 -14 b 579 252 471 -14 537 138 b 584 266 581 258 583 262 b 576 284 587 273 584 281 z "},"ü":{"ha":544,"x_min":0,"x_max":0,"o":"m 576 284 b 558 276 569 287 561 283 b 553 262 557 273 555 268 b 469 83 524 184 496 125 b 469 83 469 83 469 83 l 466 79 b 404 28 455 63 430 28 b 390 35 401 28 396 29 b 367 446 338 94 362 404 b 357 466 368 453 364 460 b 312 471 347 473 327 478 b 296 450 303 467 297 460 b 290 423 294 444 293 434 b 192 97 260 273 227 164 b 192 95 192 96 192 96 l 189 91 b 123 28 179 72 154 28 b 107 36 120 28 114 29 b 72 260 94 51 71 101 b 81 446 72 358 81 445 b 71 466 82 453 78 460 b 26 471 61 473 41 478 b 10 449 17 467 11 459 l 10 448 b 52 9 1 366 -20 90 b 103 -14 66 -6 83 -14 b 253 165 160 -14 209 44 b 287 279 266 202 278 242 b 338 7 287 175 296 53 b 383 -14 351 -7 366 -14 b 579 252 471 -14 537 138 b 584 266 581 258 583 262 b 576 284 587 273 584 281 z "},"v":{"ha":471,"x_min":0,"x_max":0,"o":"m 497 285 b 343 332 433 285 382 305 b 347 392 346 354 347 374 b 284 516 347 500 308 516 b 246 499 268 516 255 510 b 234 459 238 489 234 475 b 313 319 234 419 260 362 b 269 149 305 262 290 201 b 250 107 263 134 257 120 b 250 106 250 107 250 106 b 180 32 215 39 189 32 b 156 44 172 32 164 36 b 67 447 87 114 67 423 b 55 467 67 451 66 460 b 7 470 43 474 21 478 b -7 448 -2 466 -7 458 b 12 261 -7 438 -3 353 b 100 18 33 139 62 57 b 159 -10 118 -1 138 -10 b 339 300 252 -10 317 161 b 497 257 380 274 433 257 b 512 271 505 257 512 263 b 497 285 512 279 505 285 z m 317 354 b 262 459 281 389 262 430 b 268 481 262 469 264 476 b 284 488 272 486 277 488 b 319 392 310 488 319 438 b 317 354 319 380 318 367 z "},"w":{"ha":679,"x_min":0,"x_max":0,"o":"m 706 285 b 567 326 649 285 603 302 b 569 369 568 341 569 355 b 555 469 569 410 564 444 b 502 516 541 508 519 516 b 465 499 486 516 473 510 b 453 459 457 489 453 475 b 538 312 453 417 481 356 b 495 123 532 246 516 177 b 492 117 494 121 493 119 b 426 32 467 61 445 32 b 404 43 418 32 411 36 b 335 387 345 104 334 365 b 323 407 335 392 334 400 b 277 411 311 415 290 418 b 263 391 269 407 264 400 b 263 391 263 391 263 391 b 255 342 261 381 258 364 b 204 110 247 285 233 185 b 136 28 183 58 158 28 b 123 35 134 28 130 28 b 71 446 70 93 68 410 b 61 466 72 453 69 461 b 18 472 51 474 32 478 b 2 449 9 467 3 459 b 4 256 1 437 -2 350 b 68 9 13 129 34 46 b 116 -14 82 -6 98 -14 b 272 262 212 -14 251 139 b 351 15 282 174 304 63 b 406 -10 367 -1 386 -10 b 527 127 465 -10 504 64 b 564 294 545 176 558 236 b 706 257 602 271 649 257 b 721 271 714 257 721 263 b 706 285 721 279 714 285 z m 540 348 b 481 459 501 384 481 428 b 487 481 481 469 483 476 b 502 488 489 484 493 488 b 529 459 513 488 522 478 b 540 369 536 438 540 407 b 540 348 540 362 540 355 z "},"x":{"ha":399,"x_min":0,"x_max":0,"o":"m 431 284 b 412 277 424 287 416 284 b 403 256 410 273 407 266 b 323 99 389 224 360 155 l 322 98 b 239 29 281 38 252 29 b 127 197 224 29 184 46 b 163 269 139 221 151 245 b 290 427 240 412 277 427 b 304 441 297 427 304 434 b 290 456 304 449 297 456 b 113 234 245 456 189 386 b 51 453 76 342 52 448 b 30 479 49 465 42 475 b -11 475 16 485 -1 483 b -20 449 -19 469 -22 459 b 72 147 -20 446 15 280 b 25 40 57 114 42 78 b 13 11 19 25 15 15 b 19 -8 9 3 12 -5 b 25 -10 21 -9 23 -10 b 38 -2 31 -10 36 -7 b 51 28 41 3 45 13 b 88 113 60 49 73 79 b 216 -14 124 41 167 -14 b 336 70 261 -14 302 22 b 345 82 339 74 342 78 l 347 84 b 348 86 347 85 347 85 b 429 245 385 143 414 209 b 438 265 433 254 436 261 b 431 284 441 272 438 280 z "},"y":{"ha":528,"x_min":0,"x_max":0,"o":"m 559 284 b 541 276 552 287 543 283 b 359 79 503 169 434 123 b 355 417 361 179 360 291 b 354 448 355 432 354 444 b 343 474 354 459 350 468 b 320 482 337 479 328 482 b 287 462 305 482 292 474 b 285 453 286 459 286 456 b 281 434 284 448 283 442 b 214 179 271 382 248 273 b 181 100 203 149 192 123 b 178 97 179 100 178 98 l 175 93 b 108 28 165 75 139 28 b 92 36 105 28 99 29 b 57 260 79 51 56 101 b 66 446 57 358 66 445 b 56 466 67 453 63 460 b 11 471 46 473 26 478 b -5 449 2 467 -4 459 b -14 258 -6 439 -15 352 b 38 11 -12 132 5 48 b 87 -14 52 -5 68 -14 b 90 -14 88 -14 89 -14 b 291 343 188 -14 250 171 b 289 40 293 264 294 153 b 103 -140 222 0 156 -49 b 62 -312 71 -197 59 -258 b 67 -356 62 -324 64 -339 b 89 -415 72 -378 80 -399 b 172 -469 109 -450 139 -469 b 248 -434 200 -469 226 -457 b 358 46 311 -368 348 -207 b 568 266 444 94 524 143 b 559 284 570 273 566 282 z m 197 -404 b 154 -425 183 -418 169 -425 b 125 -412 143 -425 133 -421 b 90 -309 98 -386 90 -330 b 90 -306 90 -308 90 -307 b 128 -155 89 -252 105 -195 b 287 5 173 -76 229 -31 b 197 -404 278 -169 253 -341 z "},"ý":{"ha":528,"x_min":0,"x_max":0,"o":"m 559 284 b 541 276 552 287 543 283 b 359 79 503 169 434 123 b 355 417 361 179 360 291 b 354 448 355 432 354 444 b 343 474 354 459 350 468 b 320 482 337 479 328 482 b 287 462 305 482 292 474 b 285 453 286 459 286 456 b 281 434 284 448 283 442 b 214 179 271 382 248 273 b 181 100 203 149 192 123 b 178 97 179 100 178 98 l 175 93 b 108 28 165 75 139 28 b 92 36 105 28 99 29 b 57 260 79 51 56 101 b 66 446 57 358 66 445 b 56 466 67 453 63 460 b 11 471 46 473 26 478 b -5 449 2 467 -4 459 b -14 258 -6 439 -15 352 b 38 11 -12 132 5 48 b 87 -14 52 -5 68 -14 b 90 -14 88 -14 89 -14 b 291 343 188 -14 250 171 b 289 40 293 264 294 153 b 103 -140 222 0 156 -49 b 62 -312 71 -197 59 -258 b 67 -356 62 -324 64 -339 b 89 -415 72 -378 80 -399 b 172 -469 109 -450 139 -469 b 248 -434 200 -469 226 -457 b 358 46 311 -368 348 -207 b 568 266 444 94 524 143 b 559 284 570 273 566 282 z m 197 -404 b 154 -425 183 -418 169 -425 b 125 -412 143 -425 133 -421 b 90 -309 98 -386 90 -330 b 90 -306 90 -308 90 -307 b 128 -155 89 -252 105 -195 b 287 5 173 -76 229 -31 b 197 -404 278 -169 253 -341 z "},"ÿ":{"ha":528,"x_min":0,"x_max":0,"o":"m 559 284 b 541 276 552 287 543 283 b 359 79 503 169 434 123 b 355 417 361 179 360 291 b 354 448 355 432 354 444 b 343 474 354 459 350 468 b 320 482 337 479 328 482 b 287 462 305 482 292 474 b 285 453 286 459 286 456 b 281 434 284 448 283 442 b 214 179 271 382 248 273 b 181 100 203 149 192 123 b 178 97 179 100 178 98 l 175 93 b 108 28 165 75 139 28 b 92 36 105 28 99 29 b 57 260 79 51 56 101 b 66 446 57 358 66 445 b 56 466 67 453 63 460 b 11 471 46 473 26 478 b -5 449 2 467 -4 459 b -14 258 -6 439 -15 352 b 38 11 -12 132 5 48 b 87 -14 52 -5 68 -14 b 90 -14 88 -14 89 -14 b 291 343 188 -14 250 171 b 289 40 293 264 294 153 b 103 -140 222 0 156 -49 b 62 -312 71 -197 59 -258 b 67 -356 62 -324 64 -339 b 89 -415 72 -378 80 -399 b 172 -469 109 -450 139 -469 b 248 -434 200 -469 226 -457 b 358 46 311 -368 348 -207 b 568 266 444 94 524 143 b 559 284 570 273 566 282 z m 197 -404 b 154 -425 183 -418 169 -425 b 125 -412 143 -425 133 -421 b 90 -309 98 -386 90 -330 b 90 -306 90 -308 90 -307 b 128 -155 89 -252 105 -195 b 287 5 173 -76 229 -31 b 197 -404 278 -169 253 -341 z "},"z":{"ha":379,"x_min":0,"x_max":0,"o":"m 406 285 b 210 106 345 285 273 209 b 154 132 193 119 174 128 b 240 426 213 202 265 349 b 169 479 229 461 204 479 b 17 327 85 479 36 392 b 17 326 17 327 17 326 b 15 321 16 324 15 322 b 15 318 15 320 15 319 b 7 271 9 299 7 282 b 21 257 7 263 13 257 b 35 271 29 257 35 263 b 42 313 35 281 38 296 b 42 313 42 313 42 313 b 138 434 55 355 92 434 b 179 409 159 434 172 426 b 113 131 210 337 131 153 b 111 130 112 131 112 131 b 111 130 111 130 111 130 b 108 128 110 129 109 129 b 106 123 107 126 106 125 b 105 122 106 123 106 122 b 105 122 105 122 105 122 b 105 119 105 121 105 120 b 105 118 105 119 105 119 b 105 116 105 118 105 117 b 105 116 105 116 105 116 b 106 114 105 116 106 115 b 107 112 106 113 106 113 b 107 111 107 112 107 111 b 108 110 108 110 108 110 b 109 109 108 110 109 109 b 114 105 110 107 112 106 b 116 105 115 105 116 105 b 118 104 117 105 117 105 b 118 104 118 104 118 104 b 119 104 119 104 119 104 b 187 67 143 104 167 93 b 48 -358 108 -75 48 -253 b 48 -366 48 -361 48 -364 b 48 -367 48 -366 48 -366 b 49 -379 48 -370 48 -374 b 66 -438 51 -403 56 -423 b 128 -472 79 -460 101 -472 b 251 -360 176 -472 220 -432 b 294 -136 279 -298 294 -216 b 256 49 294 -84 288 -11 b 231 85 248 63 240 75 b 406 257 296 192 360 257 b 421 271 414 257 421 263 b 406 285 421 279 414 285 z m 233 -122 b 197 -330 233 -197 220 -272 b 109 -422 183 -364 153 -422 b 92 -415 102 -422 97 -419 b 77 -376 83 -405 79 -389 b 77 -375 77 -376 77 -375 b 77 -365 77 -372 77 -369 l 77 -365 b 77 -364 77 -365 77 -364 b 77 -358 77 -362 77 -360 b 197 24 77 -267 125 -113 b 205 39 200 29 202 34 b 233 -122 222 3 233 -49 z "},"{":{"ha":310,"x_min":0,"x_max":0,"o":"m 226 23 b 219 26 223 23 221 24 b 204 175 202 43 203 110 b 155 445 206 277 207 392 b 138 459 150 450 144 455 b 155 473 144 463 150 467 b 204 742 207 525 206 641 b 219 891 203 807 202 874 b 225 894 221 893 222 894 b 226 894 225 894 225 894 b 240 908 234 894 240 900 b 226 922 240 916 234 922 b 171 901 204 922 185 915 b 131 668 129 858 130 761 b 106 481 131 589 132 508 b 88 473 101 476 95 474 b 88 473 88 473 88 473 b 84 473 86 473 85 473 b 70 460 76 473 70 467 b 69 459 69 460 69 459 b 70 457 69 458 69 458 b 84 444 70 450 76 444 b 87 444 85 444 86 444 b 88 444 87 444 87 444 b 88 444 88 444 88 444 b 88 444 88 444 88 444 b 106 436 95 444 101 441 b 131 250 132 409 131 328 b 171 17 130 156 129 59 b 226 -5 185 2 204 -5 b 240 9 234 -5 240 1 b 226 23 240 17 234 23 z "},"|":{"ha":219,"x_min":0,"x_max":0,"o":"m 140 892 b 101 924 136 916 117 925 b 69 891 83 922 69 908 b 75 317 70 846 73 553 b 77 26 76 171 77 44 b 108 -12 77 2 93 -11 b 109 -12 108 -12 109 -12 b 140 20 123 -12 137 -3 b 140 892 158 151 147 851 z "},"}":{"ha":310,"x_min":0,"x_max":0,"o":"m 240 460 b 226 473 239 467 233 473 b 222 473 224 473 223 473 b 221 473 222 473 221 473 b 204 481 214 474 209 476 b 179 668 178 508 178 589 b 138 901 180 761 180 858 b 84 922 124 915 106 922 b 69 908 76 922 69 916 b 84 894 69 900 76 894 b 85 894 84 894 84 894 b 90 891 87 894 89 893 b 105 742 107 874 106 807 b 154 473 104 641 102 525 b 172 459 160 467 166 463 b 154 445 166 455 160 450 b 105 175 102 392 104 277 b 90 26 106 110 107 43 b 84 23 88 24 87 23 b 69 9 76 23 69 17 b 84 -5 69 1 76 -5 b 138 17 106 -5 124 2 b 179 250 180 59 180 156 b 204 436 178 328 178 409 b 221 444 209 441 214 444 b 222 444 221 444 222 444 b 226 444 223 444 224 444 b 240 457 233 444 239 450 b 240 459 240 458 240 458 b 240 460 240 459 240 460 z "},"~":{"ha":819,"x_min":0,"x_max":0,"o":"m 740 384 b 397 378 690 467 541 421 b 126 340 287 344 173 310 b 102 379 113 348 105 361 b 90 401 101 387 100 398 b 75 397 85 402 78 401 b 77 333 64 386 71 347 b 204 262 96 280 143 262 b 451 313 276 262 366 288 b 714 326 571 347 696 383 b 729 310 717 316 722 311 b 745 318 735 309 741 312 b 740 384 753 330 753 363 z "}," ":{"ha":354,"x_min":0,"x_max":0,"o":""},"©":{"ha":514,"x_min":0,"x_max":0,"o":"m 257 920 b 69 681 153 920 69 812 b 257 442 69 549 153 442 b 406 537 318 442 372 479 b 407 538 406 537 406 537 b 422 567 414 549 419 559 b 423 570 422 568 422 569 b 444 681 436 603 444 641 b 257 920 444 812 360 920 z m 381 550 b 381 550 381 550 381 550 b 270 479 361 518 323 479 b 109 685 192 479 109 551 b 250 891 109 805 180 886 b 253 891 251 891 252 891 b 257 891 254 891 256 891 b 415 681 344 891 415 797 b 381 550 415 631 403 586 z m 273 554 b 206 685 229 554 206 620 b 225 779 206 720 213 755 b 275 817 238 804 255 817 b 291 812 282 817 287 815 b 298 787 297 805 298 794 b 298 787 298 787 298 787 b 287 758 297 777 294 767 b 289 738 282 752 283 743 b 309 741 296 733 305 735 b 326 783 319 753 325 768 b 327 785 326 783 327 784 b 327 787 327 786 327 786 b 327 787 327 787 327 787 b 320 821 327 799 325 811 b 272 851 311 840 293 851 b 186 794 237 851 206 831 b 159 679 169 763 159 722 b 262 519 159 602 191 519 b 352 575 296 519 327 544 b 353 577 352 576 353 576 b 355 579 354 577 354 578 b 356 580 355 579 355 580 b 384 622 366 594 376 608 b 379 642 388 629 386 638 b 359 637 372 646 363 643 b 326 588 348 618 337 602 b 273 554 314 575 289 554 z "},"­":{"ha":0,"x_min":0,"x_max":0,"o":""},"®":{"ha":514,"x_min":0,"x_max":0,"o":"m 257 684 b 310 720 277 691 296 703 b 340 797 329 741 340 770 b 290 855 340 832 320 855 b 237 825 266 855 249 843 b 237 839 237 831 237 836 b 217 860 237 849 229 859 b 194 841 206 861 196 853 b 190 665 192 831 190 744 b 194 539 190 610 191 558 b 214 519 195 526 205 519 b 215 519 214 519 215 519 b 228 525 220 519 224 521 b 234 541 232 529 234 534 b 235 640 234 548 235 590 b 342 528 260 598 300 541 b 343 527 343 528 343 528 b 343 527 343 527 343 527 b 344 527 343 527 344 527 b 346 527 345 527 345 527 b 348 527 346 527 347 527 b 350 527 349 527 349 527 b 351 527 350 527 351 527 b 354 528 352 527 353 528 b 356 529 355 528 355 529 b 357 530 356 529 357 530 b 358 531 357 530 358 530 b 358 531 358 531 358 531 b 359 532 359 532 359 532 b 360 534 360 533 360 534 b 361 535 361 535 361 535 b 361 536 361 535 361 536 b 361 537 361 536 361 536 b 362 538 362 537 362 538 b 362 539 362 539 362 539 b 362 544 362 541 362 542 b 361 545 362 544 361 545 b 360 549 361 547 360 548 b 359 550 359 549 359 550 b 358 551 359 550 358 550 b 357 552 358 551 357 552 b 355 553 356 552 356 553 b 354 553 355 553 355 553 b 353 554 354 554 354 554 b 353 554 353 554 353 554 b 257 684 319 567 273 651 z m 257 802 b 257 802 257 802 257 802 b 281 821 261 809 270 821 b 290 817 286 821 289 819 b 295 798 293 813 295 806 b 237 710 295 752 264 720 b 257 802 240 741 244 778 z m 257 920 b 69 681 153 920 69 812 b 257 442 69 549 153 442 b 405 535 317 442 371 478 b 405 535 405 535 405 535 b 422 567 413 547 419 559 b 423 570 422 568 423 569 b 444 681 436 603 444 641 b 257 920 444 812 360 920 z m 381 550 b 381 550 381 550 381 550 b 270 479 361 518 323 479 b 109 685 192 479 109 551 b 250 891 109 805 180 886 b 253 891 251 891 252 891 b 257 891 254 891 256 891 b 415 681 344 891 415 797 b 381 550 415 631 403 586 z "},"±":{"ha":760,"x_min":0,"x_max":0,"o":"m 79 426 b 104 416 85 421 93 416 b 306 413 122 416 207 415 b 341 413 317 413 329 413 b 350 127 341 296 343 181 b 382 93 353 103 368 93 b 383 93 382 93 382 93 b 403 102 390 93 397 96 b 413 130 408 108 412 118 b 415 357 413 150 414 246 b 416 412 415 375 416 393 b 658 408 525 410 629 409 b 659 408 658 408 659 408 b 690 440 675 408 688 421 b 662 483 693 461 681 479 b 417 493 639 488 520 492 b 420 753 418 611 419 721 b 388 787 421 770 407 785 b 350 756 372 789 354 779 b 341 493 346 733 343 619 b 101 483 262 493 155 491 b 69 447 79 480 69 463 b 79 426 70 440 73 432 z m 662 29 b 410 39 638 34 515 38 b 101 29 341 40 173 40 b 69 -7 79 26 69 9 b 79 -28 70 -14 73 -22 b 104 -38 85 -34 93 -38 b 306 -41 122 -38 207 -40 b 658 -46 446 -43 619 -45 b 659 -46 658 -46 659 -46 b 690 -14 675 -46 688 -33 b 662 29 693 7 681 25 z "},"´":{"ha":249,"x_min":0,"x_max":0,"o":"m 179 892 b 170 905 178 897 175 902 b 141 917 162 908 151 913 b 116 928 131 921 122 925 b 104 928 112 929 108 929 b 96 918 100 926 97 922 b 80 760 58 770 69 765 b 87 759 81 760 84 759 b 101 764 91 759 95 760 b 179 892 123 780 181 871 z "},"×":{"ha":600,"x_min":0,"x_max":0,"o":"m 356 445 b 522 627 431 528 502 605 b 520 677 536 641 532 664 b 474 681 507 691 489 693 b 304 504 457 668 384 592 b 128 687 234 582 165 656 b 84 689 111 702 93 698 b 85 639 72 678 69 657 b 226 476 97 624 157 556 b 252 446 234 466 243 456 b 77 236 178 363 107 280 b 81 186 64 216 69 196 b 99 180 86 182 92 180 b 112 183 103 180 108 181 b 125 192 116 185 121 188 b 270 351 138 206 199 273 b 303 387 280 363 292 375 b 471 192 379 300 451 216 b 493 182 477 186 485 182 b 514 189 500 182 507 184 b 524 242 528 200 537 221 b 356 445 512 262 438 351 z "},"÷":{"ha":760,"x_min":0,"x_max":0,"o":"m 662 483 b 410 493 638 488 515 492 b 101 483 341 494 173 494 b 70 447 79 480 69 463 b 79 426 70 440 73 432 b 104 416 85 421 93 416 b 306 413 122 416 207 415 b 658 408 445 411 619 409 b 659 408 658 408 659 408 b 690 440 675 408 688 421 b 662 483 693 461 681 479 z m 380 562 b 430 617 408 562 430 587 b 380 672 430 647 408 672 b 330 617 352 672 330 647 b 380 562 330 587 352 562 z m 380 236 b 430 291 408 236 430 261 b 380 345 430 321 408 345 b 330 291 352 345 330 321 b 380 236 330 261 352 236 z "},"‘":{"ha":240,"x_min":0,"x_max":0,"o":"m 120 900 b 113 899 118 900 115 900 b 125 934 115 916 121 930 b 126 934 125 934 125 934 b 126 934 126 934 126 934 b 141 949 134 934 141 941 b 126 963 141 956 134 963 b 123 963 125 963 124 963 b 120 962 122 962 121 962 b 104 953 114 961 109 957 b 104 952 104 953 104 953 b 101 949 103 952 102 950 b 70 845 81 927 66 876 b 120 791 70 815 93 791 b 170 845 148 791 170 815 b 120 900 170 875 148 900 z "},"’":{"ha":239,"x_min":0,"x_max":0,"o":"m 170 908 b 170 909 170 908 170 909 b 120 963 169 939 147 963 b 69 908 92 963 69 938 b 120 854 69 878 92 854 b 127 854 122 854 125 854 b 114 820 125 837 118 823 b 113 819 114 819 114 819 b 99 805 105 819 99 813 b 113 791 99 797 105 791 b 116 791 114 791 115 791 b 117 791 117 791 117 791 b 120 792 118 791 119 791 b 132 798 124 793 128 795 b 134 799 133 798 133 799 b 138 803 135 800 137 802 b 170 908 158 825 172 873 z "},"“":{"ha":357,"x_min":0,"x_max":0,"o":"m 237 900 b 230 899 235 900 232 900 b 244 934 232 918 240 933 b 258 949 252 934 258 941 b 244 963 258 956 252 963 b 242 963 243 963 243 963 b 241 963 242 963 241 963 b 238 962 240 963 239 962 b 234 961 237 962 236 962 b 233 961 234 961 233 961 b 231 960 232 960 232 960 b 229 959 230 960 230 959 b 215 946 225 957 220 953 b 188 838 197 926 181 883 b 188 835 188 837 188 836 b 188 834 188 835 188 834 b 237 791 193 809 213 791 b 288 845 265 791 288 815 b 237 900 288 875 265 900 z m 120 900 b 113 899 118 900 115 900 b 126 934 115 918 122 933 b 141 949 134 934 141 941 b 126 963 141 956 134 963 b 124 963 125 963 125 963 b 121 962 123 963 122 963 b 119 962 120 962 120 962 b 119 962 119 962 119 962 b 98 949 113 960 106 957 b 70 845 78 927 67 886 b 70 845 70 845 70 845 b 120 791 70 815 93 791 b 170 845 148 791 170 815 b 120 900 170 875 148 900 z "},"”":{"ha":357,"x_min":0,"x_max":0,"o":"m 287 908 b 287 908 287 908 287 908 b 237 963 287 938 265 963 b 187 908 209 963 187 938 b 237 854 187 878 209 854 b 244 854 240 854 242 854 b 231 819 242 835 235 820 b 216 805 223 819 216 813 b 231 791 216 797 223 791 b 241 793 234 791 238 791 b 258 805 246 795 252 798 b 287 908 278 827 291 872 z m 120 963 b 69 908 92 963 69 938 b 120 854 69 878 92 854 b 127 854 122 854 125 854 b 113 819 125 835 117 820 b 99 805 105 819 99 813 b 113 791 99 797 105 791 b 116 791 114 791 115 791 b 118 791 117 791 118 791 b 125 793 121 792 123 792 b 141 805 130 796 136 799 b 170 909 159 826 174 870 b 120 963 169 939 147 963 z "},"„":{"ha":357,"x_min":0,"x_max":0,"o":"m 287 1 b 287 1 287 1 287 1 b 237 55 287 31 265 55 b 187 1 209 55 187 31 b 237 -54 187 -29 209 -54 b 244 -53 240 -54 242 -54 b 231 -88 242 -72 235 -87 b 216 -103 223 -88 216 -95 b 231 -117 216 -110 223 -117 b 236 -116 233 -117 234 -117 b 239 -115 237 -116 238 -116 b 241 -115 240 -115 240 -115 b 243 -114 242 -115 243 -114 b 245 -113 244 -114 244 -113 b 258 -103 249 -111 253 -108 b 287 1 278 -80 291 -35 z m 169 9 b 169 9 169 9 169 9 b 120 55 165 35 145 55 b 69 1 92 55 69 31 b 120 -54 69 -29 92 -54 b 127 -53 122 -54 125 -54 b 113 -88 125 -72 117 -87 b 99 -103 105 -88 99 -95 b 113 -117 99 -110 105 -117 b 120 -116 116 -117 118 -117 b 122 -116 121 -116 121 -116 b 125 -114 123 -115 124 -115 b 126 -114 125 -114 126 -114 b 127 -113 126 -114 127 -114 b 140 -104 131 -111 135 -108 b 170 6 160 -81 173 -36 b 169 9 170 7 169 8 z "},"‰":{"ha":624,"x_min":0,"x_max":0,"o":"m 476 216 b 475 216 476 216 475 216 b 473 216 474 216 474 216 b 473 216 473 216 473 216 b 396 102 430 214 396 165 b 473 -12 396 39 430 -11 b 473 -12 473 -12 473 -12 b 475 -12 474 -12 475 -12 b 476 -12 476 -12 476 -12 b 554 102 520 -11 554 38 b 476 216 554 165 520 215 z m 476 16 b 435 105 456 20 435 52 b 476 187 435 143 448 183 b 525 102 503 186 525 148 b 476 16 525 56 503 17 z m 367 876 b 342 916 371 892 360 910 b 298 896 327 922 308 917 b 82 3 282 858 96 135 b 107 -38 79 -22 93 -36 b 112 -38 108 -38 110 -38 b 144 -10 124 -38 139 -30 l 144 -10 b 219 289 149 8 181 138 b 367 876 280 531 355 833 z m 301 216 b 300 216 301 216 300 216 b 298 216 299 216 299 216 b 298 216 298 216 298 216 b 221 102 255 214 221 165 b 298 -12 221 39 255 -11 b 298 -12 298 -12 298 -12 b 300 -12 299 -12 299 -12 b 301 -12 300 -12 301 -12 b 379 102 345 -11 379 38 b 301 216 379 165 345 215 z m 301 16 b 260 105 281 20 259 52 b 301 187 260 143 273 183 b 350 102 328 186 350 148 b 301 16 350 56 328 17 z m 146 693 b 146 693 146 693 146 693 b 148 692 147 692 148 692 b 149 692 149 692 149 692 b 227 806 193 693 227 743 b 149 920 227 870 193 920 b 148 921 149 920 148 921 b 146 920 147 921 147 920 b 146 920 146 920 146 920 b 69 806 103 919 69 870 b 146 693 69 744 103 694 z m 149 892 b 198 806 176 891 198 852 b 149 721 198 761 176 722 b 108 810 129 725 108 757 b 149 892 108 848 121 888 z "},"™":{"ha":824,"x_min":0,"x_max":0,"o":"m 746 591 b 727 583 739 594 730 590 b 724 574 727 582 726 579 b 687 496 708 528 695 506 l 687 496 b 685 494 686 496 686 495 b 683 492 685 493 684 493 b 683 492 683 492 683 492 b 675 487 679 488 676 487 b 640 642 647 487 643 577 b 581 818 636 732 632 818 b 514 736 552 818 530 791 b 513 731 514 734 513 733 l 513 731 b 513 730 513 731 513 730 b 501 675 508 714 504 696 b 434 794 487 756 466 794 b 374 708 409 794 389 767 b 375 801 375 754 375 792 b 355 823 376 812 367 822 b 330 804 343 824 333 816 b 330 471 327 784 324 522 b 351 451 332 458 342 451 b 352 451 352 451 352 451 b 366 457 357 451 362 453 b 372 474 369 461 372 466 b 372 474 372 474 372 474 b 372 477 372 475 372 476 b 389 636 373 497 378 568 b 400 696 392 660 396 680 b 429 758 413 745 427 758 b 462 646 430 758 449 753 b 471 517 470 582 471 518 b 481 500 471 510 474 504 b 505 500 488 496 498 496 b 515 515 511 504 515 509 b 515 517 515 516 515 516 b 515 517 515 517 515 517 b 515 517 515 517 515 517 b 540 723 515 574 524 662 b 540 723 540 723 540 723 l 540 724 b 578 782 550 758 565 782 b 595 659 589 774 593 705 b 667 452 600 557 606 452 b 707 477 685 452 703 470 b 708 477 708 477 708 477 b 751 565 725 497 739 531 b 753 572 752 568 753 571 b 746 591 756 579 753 588 z m 449 874 b 441 893 452 882 448 890 b 274 905 412 903 344 907 b 255 916 270 911 263 915 b 230 903 244 917 235 912 b 73 872 156 899 89 888 b 74 852 68 867 68 858 b 84 848 77 849 80 848 b 94 852 87 848 91 849 b 226 874 103 861 160 870 b 227 439 222 793 219 501 b 251 416 229 424 240 416 b 252 416 251 416 251 416 b 274 442 262 416 273 425 b 275 610 274 453 275 525 b 278 877 276 710 277 832 b 431 866 340 879 401 876 b 449 874 439 863 447 867 z "},"≠":{"ha":760,"x_min":0,"x_max":0,"o":"m 662 412 b 410 422 638 417 515 421 b 408 422 409 422 408 422 b 427 500 414 448 421 474 b 658 496 532 499 630 497 b 659 496 658 496 659 496 b 690 529 675 496 688 510 b 662 571 693 550 681 567 b 448 581 641 576 543 579 b 522 876 484 727 515 849 b 498 916 526 892 516 910 b 454 896 483 922 463 917 b 369 582 447 880 410 744 b 101 572 289 582 161 581 b 69 536 79 568 69 551 b 79 515 70 528 73 521 b 104 505 85 509 93 505 b 306 502 122 504 207 503 b 349 501 320 502 334 501 b 329 422 342 475 336 448 b 101 412 251 422 152 420 b 69 376 79 409 69 391 b 79 355 70 369 73 361 b 104 345 85 349 93 345 b 306 342 122 344 207 343 b 310 342 307 342 308 342 b 237 3 273 190 242 53 b 262 -38 235 -22 248 -36 b 267 -38 264 -38 266 -38 b 299 -10 280 -38 294 -30 b 374 289 304 8 337 138 b 387 341 379 306 383 323 b 658 336 506 339 627 338 b 659 336 658 336 659 336 b 690 369 675 336 688 350 b 662 412 693 390 681 407 z "},"≤":{"ha":660,"x_min":0,"x_max":0,"o":"m 562 29 b 101 29 519 38 217 47 b 69 -7 79 26 69 9 b 104 -38 70 -22 82 -37 b 265 -41 121 -38 188 -39 b 559 -46 378 -43 519 -45 b 560 -46 559 -46 559 -46 b 591 -14 575 -46 588 -33 b 562 29 593 7 581 25 z m 106 411 b 284 265 122 399 201 334 b 519 73 385 182 489 95 b 535 67 524 69 530 67 b 561 79 544 67 554 71 b 560 134 573 93 577 116 b 170 450 536 159 296 371 b 313 575 203 479 257 526 b 547 780 415 662 520 753 b 547 830 561 793 558 817 b 501 836 535 845 516 847 b 100 477 463 810 176 579 b 90 451 95 469 91 460 b 106 411 87 438 90 423 z "},"≥":{"ha":660,"x_min":0,"x_max":0,"o":"m 560 29 b 98 29 443 47 141 38 b 70 -14 79 25 67 7 b 101 -46 72 -33 85 -46 b 102 -46 101 -46 101 -46 b 395 -41 141 -45 282 -43 b 498 -39 434 -40 470 -40 b 557 -38 527 -39 548 -38 b 591 -7 578 -37 590 -22 b 560 29 592 9 581 26 z m 105 67 b 122 73 111 67 117 69 b 357 265 152 95 256 182 b 471 359 399 300 439 333 b 535 411 503 386 527 405 b 550 451 550 423 554 438 b 540 477 549 460 546 469 b 140 836 465 579 177 810 b 94 830 125 847 106 845 b 94 780 83 817 80 793 b 328 575 121 753 226 662 b 440 477 369 539 409 505 b 471 450 452 467 462 458 b 81 134 345 371 105 159 b 80 79 64 116 68 93 b 105 67 87 71 96 67 z "},"":{"ha":685,"x_min":0,"x_max":0,"o":"m 718 283 b 699 277 711 287 702 284 b 689 258 697 274 693 267 b 599 96 657 190 627 136 b 596 93 598 95 597 94 b 528 34 571 60 545 34 b 416 424 464 34 416 202 b 416 447 416 431 416 439 b 611 734 495 459 578 608 b 625 831 620 769 625 803 b 606 909 625 864 619 890 b 539 943 592 931 568 943 b 393 769 478 943 427 883 b 349 417 365 676 349 547 b 355 283 349 370 351 325 b 350 277 353 281 351 280 b 334 238 347 271 342 258 b 265 80 321 205 296 140 b 262 74 264 78 263 76 b 175 -31 247 45 206 -31 b 67 385 114 -31 67 148 b 68 447 67 405 68 426 b 262 734 147 459 230 608 b 276 831 271 769 276 803 b 258 909 276 864 270 890 b 191 943 243 931 220 943 b 44 757 129 943 79 878 b 0 378 16 656 0 518 b 146 -85 0 164 38 -85 b 292 69 199 -85 248 -19 b 295 74 293 71 294 73 b 296 77 295 75 296 76 b 360 228 319 124 340 176 b 361 229 361 228 361 229 b 382 124 366 190 374 155 b 494 -14 400 61 434 -14 b 626 85 542 -14 586 28 b 632 94 628 88 630 91 b 658 134 646 113 655 130 b 658 136 658 135 658 136 b 715 246 680 173 699 211 b 724 264 719 254 722 261 b 718 283 727 271 725 280 z m 456 747 b 561 890 482 839 520 890 b 583 880 571 890 578 887 b 583 741 591 871 606 839 b 582 736 582 739 582 738 b 417 476 551 619 474 491 b 456 747 421 578 434 674 z m 107 735 b 213 890 134 835 171 890 b 235 880 223 890 230 887 b 234 741 242 871 257 839 b 234 736 234 739 234 738 b 70 476 203 619 126 493 b 107 735 75 573 88 664 z "},"":{"ha":829,"x_min":0,"x_max":0,"o":"m 861 284 b 843 276 854 287 846 283 b 714 38 822 215 762 90 b 712 37 713 38 713 37 b 696 22 707 31 701 26 b 676 14 689 17 682 14 b 630 212 631 14 631 115 b 533 474 630 335 629 474 b 389 292 480 474 433 415 b 383 277 387 287 385 282 l 383 275 b 383 275 383 275 383 275 b 380 267 382 273 381 270 b 343 139 365 223 353 179 b 345 448 342 230 341 340 b 532 702 413 463 492 584 b 562 687 545 698 555 693 b 569 674 569 681 569 677 b 581 657 568 666 573 659 b 583 657 581 657 582 657 b 597 669 590 657 596 662 b 580 709 598 680 597 695 b 540 729 571 717 557 723 b 557 836 551 767 557 804 b 538 910 557 867 551 892 b 473 943 524 932 501 943 b 380 903 437 943 406 929 b 308 750 347 869 324 816 b 75 740 232 750 150 746 b 88 896 78 790 83 842 b 90 919 89 909 89 917 b 58 950 91 936 77 948 b 17 922 36 952 19 940 l 17 920 b 1 734 14 892 7 823 b -189 708 -99 725 -175 714 b -198 690 -197 706 -201 698 b -180 682 -195 683 -187 679 b -1 706 -166 687 -96 697 b -11 498 -5 642 -9 571 b 51 8 -19 227 2 62 b 97 -14 64 -7 79 -14 b 273 203 172 -14 231 98 b 274 141 274 182 274 161 b 276 0 275 91 276 44 b 289 -26 276 -16 284 -24 b 302 -30 293 -29 297 -30 b 322 -24 308 -30 315 -28 b 342 -4 329 -20 337 -13 b 342 -4 342 -4 342 -4 b 343 -1 342 -3 342 -2 b 343 -1 343 -1 343 -1 b 345 9 344 2 345 5 b 345 10 345 9 345 9 b 409 266 358 87 381 184 l 410 267 b 414 279 411 271 413 276 b 521 429 448 372 488 429 b 562 234 562 429 562 325 b 572 61 562 173 562 110 b 655 -30 585 1 613 -30 b 718 3 673 -30 699 -13 b 721 6 719 4 720 5 b 729 13 724 8 726 10 b 733 17 730 14 732 15 b 734 18 733 17 733 17 b 799 113 754 39 776 71 b 870 266 834 176 862 244 b 861 284 873 273 869 282 z m 439 865 b 495 890 455 882 474 890 b 515 881 504 890 510 887 b 512 736 533 857 526 792 b 382 749 477 743 432 747 b 439 865 396 800 414 840 z m 376 721 b 504 709 428 719 471 715 b 347 477 467 603 399 496 b 376 721 351 566 360 651 z m 273 279 b 271 276 272 278 272 277 b 266 262 270 273 268 268 b 182 83 237 184 209 125 b 182 83 182 83 182 83 l 181 81 b 122 38 170 66 150 38 b 106 47 119 38 113 39 b 73 712 59 99 47 338 b 178 718 107 714 142 717 b 302 722 223 721 264 722 b 273 279 276 597 272 435 z "},"":{"ha":551,"x_min":0,"x_max":0,"o":"m 583 284 b 565 276 576 287 568 283 b 560 262 564 273 562 268 b 476 83 531 184 503 125 b 476 83 476 83 476 83 l 474 81 b 416 38 464 66 444 38 b 400 47 413 38 407 39 b 367 721 352 99 341 342 b 545 689 460 718 522 707 b 552 675 552 683 552 678 b 564 658 551 667 556 659 b 566 658 564 658 565 658 b 580 670 573 658 579 663 b 563 711 582 681 580 697 b 369 750 532 736 456 747 b 381 896 373 797 377 845 b 383 919 383 909 383 917 b 351 950 384 936 371 948 b 311 922 330 952 312 940 l 310 920 b 296 751 308 893 302 831 b 174 747 255 750 213 749 b 86 741 144 746 115 744 b 99 896 90 791 94 842 b 101 919 100 909 101 917 b 69 950 102 936 88 948 b 28 922 47 952 30 940 l 28 920 b 12 735 25 892 18 823 b -178 708 -85 726 -160 715 b -187 690 -186 706 -190 698 b -169 682 -184 683 -176 679 b 10 706 -154 687 -85 697 b 0 498 6 643 2 571 b 62 8 -8 227 13 62 b 108 -14 75 -7 90 -14 b 288 212 185 -14 246 105 b 345 8 298 107 317 39 b 390 -14 358 -7 373 -14 b 587 252 478 -14 544 138 b 591 266 589 258 590 262 b 583 284 594 273 591 281 z m 283 498 b 284 279 280 415 281 342 b 282 276 283 278 283 277 b 277 262 281 273 279 268 b 193 83 248 184 220 125 b 193 83 193 83 193 83 l 192 81 b 133 38 181 66 161 38 b 117 47 130 38 124 39 b 84 713 69 99 58 338 b 176 719 113 715 144 717 b 294 722 218 721 258 722 b 283 498 289 655 285 577 z "},"":{"ha":992,"x_min":0,"x_max":0,"o":"m 1095 -452 b 990 -305 1072 -399 1034 -346 b 855 -234 958 -276 910 -242 b 865 -201 860 -223 863 -211 b 825 -116 873 -156 859 -125 b 758 -125 801 -108 777 -112 b 734 -149 748 -132 740 -140 b 715 -121 730 -139 724 -129 b 651 -101 698 -105 676 -98 b 597 -178 616 -105 596 -133 b 604 -227 597 -193 599 -210 b 590 -227 599 -227 595 -227 b 479 -209 554 -225 517 -219 b 286 -115 409 -191 343 -159 b 133 177 187 -37 133 66 b 362 488 133 374 246 472 b 524 456 419 494 475 484 b 442 371 492 439 465 410 b 391 169 410 314 391 241 b 504 -14 391 58 435 -14 b 598 46 536 -14 567 6 b 719 307 638 98 678 185 b 721 311 720 308 720 310 b 727 331 723 318 725 324 b 777 7 723 219 728 61 b 822 -14 790 -7 805 -14 b 1018 252 909 -14 976 138 b 1023 266 1020 258 1022 262 b 1015 284 1026 273 1022 281 b 997 276 1008 287 1000 283 b 992 262 995 273 994 268 b 908 83 963 184 935 125 b 907 83 908 83 908 83 l 904 79 b 843 28 894 63 868 28 b 827 36 839 28 833 29 b 791 260 813 51 791 101 b 800 446 791 358 800 445 b 790 467 801 454 797 461 b 751 472 781 474 764 478 b 738 459 745 469 740 465 b 737 459 738 459 738 459 b 735 455 737 458 736 457 b 729 433 734 452 732 445 b 710 370 723 413 717 392 b 598 474 694 418 660 474 b 555 468 583 474 569 472 b 551 472 554 470 553 471 b 397 518 505 502 452 518 b 397 518 397 518 397 518 b 395 518 396 518 396 518 b 358 516 382 518 370 517 b 355 515 357 516 356 516 b 245 480 318 511 280 499 b 69 172 135 420 69 305 b 259 -142 69 53 137 -59 b 464 -235 319 -184 391 -216 b 465 -235 464 -235 465 -235 b 600 -255 509 -247 555 -254 b 611 -255 604 -255 607 -255 b 612 -255 611 -255 612 -255 b 634 -306 618 -273 625 -290 b 713 -382 648 -333 678 -378 b 714 -382 714 -382 714 -382 b 716 -382 715 -382 715 -382 b 718 -383 717 -383 717 -383 b 843 -262 762 -383 814 -322 b 1068 -463 915 -268 1018 -343 b 1082 -472 1071 -468 1076 -472 b 1087 -470 1083 -472 1085 -471 b 1095 -452 1094 -467 1098 -459 z m 608 434 b 682 362 649 434 671 395 l 683 360 b 683 360 683 360 683 360 b 692 317 689 342 692 326 b 577 66 661 224 621 124 b 576 64 577 65 576 65 b 522 24 566 52 543 24 b 480 59 505 24 490 36 b 463 156 469 83 463 116 b 608 434 463 288 523 434 z "},"":{"ha":975,"x_min":0,"x_max":0,"o":"m 716 598 b 503 692 653 640 578 673 b 498 693 501 693 500 693 b 379 711 459 703 419 709 b 386 737 383 720 385 729 b 347 822 395 782 380 813 b 279 813 322 830 299 826 b 256 789 270 806 262 798 b 237 817 251 799 245 808 b 172 837 220 833 198 840 b 118 760 137 833 118 805 b 124 718 119 747 120 733 b -94 918 53 728 -45 803 b -113 926 -97 926 -106 929 b -120 907 -120 923 -123 914 b -16 761 -98 855 -60 801 b 132 689 19 729 72 692 b 156 632 138 669 146 650 b 235 556 170 605 199 560 b 236 556 235 556 236 556 b 237 556 236 556 237 556 b 240 555 238 555 239 555 b 368 682 285 555 339 620 b 384 682 373 682 379 682 b 496 665 420 680 458 674 b 688 570 565 646 632 614 b 842 278 787 493 842 389 b 610 -33 842 80 726 -18 b 609 -33 610 -33 609 -33 b 517 -27 578 -36 547 -34 b 452 17 492 -19 470 -4 b 398 443 377 103 375 294 b 398 446 398 444 398 445 b 388 467 399 454 395 461 b 349 472 379 474 362 478 b 336 459 343 469 338 465 b 336 459 336 459 336 459 b 333 455 335 458 334 457 b 327 433 332 452 330 445 b 308 370 321 413 315 392 b 196 474 292 418 258 474 b 40 371 133 474 79 439 b -11 169 8 314 -11 241 b 102 -14 -11 58 33 -14 b 196 46 134 -14 165 6 b 317 307 236 98 276 185 b 319 311 318 308 319 310 b 394 11 314 178 340 74 b 421 -16 402 1 411 -8 b 569 -63 460 -47 510 -63 b 571 -62 569 -63 570 -63 b 577 -63 573 -63 575 -63 b 580 -63 578 -63 579 -63 b 613 -61 591 -63 602 -62 b 614 -61 613 -61 613 -61 b 729 -24 653 -56 692 -44 b 905 283 839 35 905 150 b 716 598 905 403 838 515 z m 175 66 b 174 64 175 65 174 65 b 121 24 164 52 141 24 b 78 59 103 24 89 36 b 62 156 67 83 62 116 b 206 434 62 288 121 434 b 280 362 247 434 269 395 l 281 360 b 281 360 281 360 281 360 b 290 317 287 342 290 326 b 175 66 259 224 219 124 z "},"":{"ha":1061,"x_min":0,"x_max":0,"o":"m 1100 -452 b 996 -305 1078 -399 1040 -346 b 856 -234 963 -275 913 -239 b 865 -201 860 -222 863 -211 b 825 -116 873 -156 859 -125 b 758 -125 801 -108 777 -112 b 734 -149 748 -132 741 -140 b 715 -121 730 -139 724 -129 b 651 -101 698 -105 676 -98 b 597 -178 616 -105 596 -133 b 604 -227 597 -193 600 -210 b 590 -227 599 -227 595 -227 b 483 -210 556 -225 519 -219 b 480 -210 482 -210 481 -210 b 286 -115 410 -191 343 -159 b 133 177 187 -37 133 66 b 362 488 133 374 246 472 b 534 449 423 495 483 482 b 533 133 531 344 532 234 b 535 -9 534 83 535 35 b 548 -35 535 -25 543 -32 b 561 -38 552 -37 556 -38 b 581 -32 568 -38 574 -36 b 604 0 592 -26 604 -14 b 604 0 604 0 604 0 b 604 1 604 0 604 0 b 608 65 604 16 606 38 b 675 356 616 148 636 272 b 677 361 676 358 676 359 b 759 429 695 397 722 429 b 805 394 779 429 794 417 b 822 299 816 371 822 338 b 807 187 822 262 817 223 b 672 145 739 182 696 162 b 618 64 640 123 621 94 b 617 61 618 63 617 62 b 617 59 617 60 617 60 b 617 55 617 58 617 56 b 693 -14 617 15 649 -14 b 872 160 779 -14 842 63 b 1093 266 1005 164 1062 193 b 1086 284 1096 273 1093 281 b 1067 277 1079 287 1070 284 b 880 188 1042 217 994 193 b 892 289 887 221 892 255 b 865 416 892 340 882 384 b 774 475 844 454 813 475 b 641 351 720 475 675 433 b 636 337 639 346 638 342 b 633 331 635 335 634 333 b 608 243 624 305 616 276 b 602 214 606 233 604 223 b 605 439 601 285 601 362 b 816 827 700 460 816 689 b 798 902 816 859 810 884 b 732 934 783 923 761 934 b 639 894 697 934 665 921 b 535 482 569 823 544 662 b 398 518 493 505 446 518 b 397 518 398 518 398 518 b 395 518 397 518 396 518 b 358 516 382 518 370 517 b 355 515 357 516 356 516 b 246 480 318 511 281 499 b 69 172 135 420 69 305 b 259 -142 69 53 137 -59 b 464 -235 319 -184 391 -216 b 466 -235 464 -235 465 -235 b 600 -255 510 -248 555 -254 b 611 -255 604 -255 607 -255 b 612 -255 611 -255 612 -255 b 634 -306 618 -273 625 -290 b 713 -382 648 -333 678 -378 b 715 -382 714 -382 714 -382 b 716 -382 715 -382 715 -382 b 718 -383 717 -383 717 -383 b 844 -262 762 -383 814 -322 b 1074 -463 915 -264 1022 -340 b 1087 -472 1076 -468 1082 -472 b 1093 -470 1089 -472 1091 -471 b 1100 -452 1100 -467 1103 -459 z m 782 115 b 681 26 766 81 731 26 b 646 59 657 26 646 36 b 688 122 647 81 663 104 b 799 158 708 136 743 152 b 782 115 794 142 788 128 z m 698 856 b 754 881 715 873 733 881 b 774 872 763 881 769 879 b 769 720 793 848 785 778 b 769 719 769 719 769 719 b 606 469 735 607 661 489 b 698 856 615 638 638 796 z "},"":{"ha":1160,"x_min":0,"x_max":0,"o":"m 849 704 b 860 743 854 718 858 731 b 820 829 869 788 854 819 b 753 819 796 836 773 832 b 730 795 744 812 736 804 b 711 823 725 805 719 815 b 646 843 694 839 671 846 b 592 766 611 839 592 811 b 598 724 592 753 594 739 b 378 924 527 733 427 808 b 359 932 375 932 366 935 b 351 913 352 929 348 921 b 456 767 374 861 412 808 b 605 695 491 735 545 697 b 629 638 612 675 620 656 b 708 562 644 611 673 566 b 710 562 709 562 709 562 b 714 562 711 562 712 562 b 836 676 756 562 806 618 b 1028 428 891 674 1028 646 b 870 134 1028 319 968 206 b 426 82 753 48 596 30 b 342 134 395 96 367 113 b 341 135 342 135 342 135 b 341 135 341 135 341 135 b 334 142 339 137 337 139 b 363 298 353 190 363 244 b 246 483 363 410 317 483 b 115 364 192 483 149 443 b 110 353 113 361 112 357 b 106 343 109 350 108 346 b 105 339 106 341 105 340 b 80 252 96 313 87 284 b 70 204 76 236 73 220 b 73 439 69 278 69 359 b 284 827 168 460 284 689 b 266 902 284 859 278 884 b 200 934 251 923 229 934 b 107 894 165 934 133 921 b 2 133 -7 778 -2 420 b 3 -9 2 83 3 35 b 16 -35 3 -25 11 -32 b 29 -38 20 -37 24 -38 b 50 -32 36 -38 43 -36 b 72 0 60 -26 72 -14 b 76 9 74 2 76 5 b 81 83 76 25 78 51 b 146 365 89 165 109 284 b 147 365 147 365 147 365 b 231 437 165 403 192 437 b 277 403 250 437 265 426 b 294 308 288 380 294 347 b 276 185 294 267 287 224 b 216 196 260 192 241 196 b 90 82 145 196 96 139 b 89 70 89 78 89 74 b 89 68 89 69 89 68 b 94 41 89 58 91 49 b 95 39 94 40 94 40 b 108 18 98 31 102 24 b 165 -5 121 3 141 -5 b 322 114 234 -5 288 45 b 323 113 322 114 323 114 b 323 113 323 113 323 113 b 412 58 350 91 379 72 b 416 56 413 57 415 56 b 418 55 416 56 417 56 b 616 16 477 30 546 16 b 846 66 694 16 774 33 b 1089 432 1000 137 1089 271 b 849 704 1089 512 1065 693 z m 166 856 b 222 881 183 873 201 881 b 242 872 231 881 237 879 b 237 720 261 848 253 778 b 237 719 237 719 237 719 b 74 469 203 607 129 489 b 166 856 83 638 106 796 z m 253 123 b 152 34 237 90 203 34 b 121 50 136 34 126 39 b 121 50 121 50 121 50 b 118 70 118 57 118 64 b 216 168 118 110 153 168 b 268 158 238 168 254 164 b 253 123 263 146 258 134 z "},"":{"ha":813,"x_min":0,"x_max":0,"o":"m 1100 -452 b 996 -305 1078 -399 1040 -346 b 856 -234 963 -275 913 -239 b 865 -201 860 -222 863 -211 b 825 -116 873 -156 859 -125 b 758 -125 801 -108 777 -112 b 734 -149 748 -132 740 -140 b 715 -121 730 -139 724 -129 b 651 -101 698 -105 676 -98 b 597 -178 616 -105 596 -133 b 604 -227 597 -193 599 -210 b 590 -227 599 -227 595 -227 b 479 -209 554 -225 517 -219 b 286 -115 409 -191 343 -159 b 133 177 187 -37 133 66 b 362 488 133 374 246 472 b 517 459 416 494 470 485 b 446 390 489 445 465 422 b 404 215 419 343 404 281 b 439 60 404 156 416 101 b 549 -14 465 11 504 -14 b 708 74 608 -14 662 24 b 732 102 718 85 726 95 l 733 103 b 733 104 733 103 733 104 b 832 265 782 165 817 233 b 825 284 836 272 833 280 b 807 277 818 287 810 284 b 695 102 794 252 752 168 b 685 91 692 98 688 94 b 561 25 656 61 613 25 b 498 77 535 25 514 43 b 474 207 483 110 474 156 b 592 434 474 317 516 434 b 660 375 628 434 648 404 b 662 370 660 373 661 371 b 663 365 662 368 663 367 b 673 314 670 344 673 323 b 686 299 672 306 679 299 b 701 313 694 299 701 305 b 692 367 701 322 699 343 b 692 369 692 368 692 369 l 691 370 b 690 373 691 371 691 372 b 689 377 690 374 689 376 b 688 380 689 378 688 379 b 686 385 688 381 687 383 b 651 445 679 406 667 428 b 583 474 632 464 609 474 b 552 471 573 474 562 473 b 551 472 552 472 552 472 b 397 518 505 502 452 518 b 397 518 397 518 397 518 b 395 518 396 518 396 518 b 358 516 382 518 370 517 b 355 515 357 516 356 516 b 245 480 318 511 280 499 b 69 172 135 420 69 305 b 259 -142 69 53 137 -59 b 464 -235 319 -184 391 -216 b 465 -235 464 -235 465 -235 b 600 -255 509 -247 555 -254 b 611 -255 604 -255 607 -255 b 612 -255 611 -255 612 -255 b 634 -306 618 -273 625 -290 b 713 -382 648 -333 678 -378 b 714 -382 714 -382 714 -382 b 716 -382 715 -382 715 -382 b 718 -383 717 -383 717 -383 b 844 -262 762 -383 814 -322 b 1074 -463 915 -264 1022 -340 b 1087 -472 1076 -468 1082 -472 b 1093 -470 1089 -472 1091 -471 b 1100 -452 1100 -467 1103 -459 z "},"":{"ha":897,"x_min":0,"x_max":0,"o":"m 638 598 b 427 692 575 640 501 673 b 301 711 385 703 343 709 b 309 737 305 720 307 729 b 269 822 317 782 302 813 b 201 813 244 830 221 826 b 178 789 192 806 184 798 b 159 817 173 799 167 808 b 94 837 142 833 120 840 b 40 760 59 833 40 805 b 46 718 41 747 42 733 b -172 918 -25 728 -123 803 b -191 926 -175 926 -183 929 b -198 907 -198 923 -201 914 b -94 761 -176 855 -138 801 b 54 689 -59 729 -6 692 b 78 632 60 669 68 650 b 157 556 92 605 121 560 b 158 556 157 556 158 556 b 159 556 158 556 159 556 b 162 555 160 555 161 555 b 290 682 207 555 261 620 b 306 682 295 682 301 682 b 418 665 342 680 380 674 b 610 570 487 646 554 614 b 764 278 709 493 764 389 b 502 -34 764 63 628 -34 b 501 -34 501 -34 501 -34 b 500 -34 501 -34 500 -34 b 473 -33 491 -34 482 -34 b 349 131 362 -21 349 86 b 349 134 349 132 349 133 b 349 135 349 135 349 135 b 349 136 349 135 349 136 b 348 138 348 137 348 137 b 347 139 348 138 347 139 b 346 140 347 140 347 140 b 344 143 345 141 345 142 b 342 144 343 143 342 144 b 340 145 341 144 340 145 b 337 145 339 145 338 145 b 335 146 337 146 336 146 b 334 145 335 146 334 146 b 332 145 333 145 333 145 b 331 145 332 145 332 145 b 326 142 329 144 327 143 b 325 141 325 142 325 141 b 323 139 324 141 324 140 b 318 131 322 137 320 134 b 298 105 312 124 306 115 b 159 25 254 51 209 25 b 96 77 133 25 112 43 b 72 207 81 110 72 156 b 190 434 72 317 114 434 b 262 363 231 434 251 396 b 262 362 262 363 262 362 l 262 361 b 271 314 268 341 271 323 b 284 299 270 306 277 299 b 299 313 292 299 299 305 b 290 367 299 322 297 343 b 290 368 290 368 290 368 b 290 369 290 369 290 369 l 289 370 b 287 377 289 373 288 375 b 286 381 287 379 286 380 b 284 385 285 383 285 384 b 249 445 277 406 265 428 b 181 474 230 464 207 474 b 44 390 124 474 77 445 b 2 215 17 343 2 281 b 37 60 2 156 14 101 b 147 -14 63 11 102 -14 b 324 91 231 -14 290 48 b 379 -22 330 43 348 5 b 470 -61 411 -51 450 -59 b 502 -63 481 -62 491 -63 b 508 -63 504 -63 506 -63 b 509 -63 508 -63 509 -63 b 520 -62 513 -63 516 -63 b 715 21 591 -58 659 -29 b 827 283 787 86 827 179 b 638 598 827 403 760 515 z "},"":{"ha":1061,"x_min":0,"x_max":0,"o":"m 1100 -452 b 996 -305 1078 -399 1040 -346 b 856 -234 963 -275 913 -239 b 865 -201 860 -222 863 -211 b 825 -116 873 -156 859 -125 b 758 -125 801 -108 777 -112 b 734 -149 748 -132 741 -140 b 715 -121 730 -139 724 -129 b 651 -101 698 -105 676 -98 b 597 -178 616 -105 596 -133 b 604 -227 597 -193 600 -210 b 590 -227 599 -227 595 -227 b 479 -209 554 -225 517 -219 b 286 -115 409 -191 343 -159 b 133 177 187 -37 133 66 b 363 488 133 374 247 472 b 524 455 419 494 476 484 b 379 162 432 416 379 287 b 404 37 379 112 387 69 b 488 -21 423 -1 452 -21 b 597 47 529 -21 566 7 b 688 223 636 96 666 165 b 710 117 694 184 701 148 b 822 -21 728 54 762 -21 b 953 78 869 -21 914 22 b 954 80 954 79 954 79 b 985 128 971 103 982 123 b 986 129 985 128 986 129 b 986 129 986 129 986 129 b 1042 239 1007 166 1026 204 b 1051 257 1046 247 1050 254 b 1045 277 1055 264 1052 273 b 1026 271 1038 280 1030 278 b 1017 251 1024 267 1021 260 b 925 87 984 181 953 127 b 924 86 924 87 924 86 b 855 28 899 53 873 28 b 744 417 792 28 744 195 b 744 440 744 425 744 432 b 938 727 822 452 906 601 b 953 824 947 763 953 796 b 934 902 953 857 946 883 b 867 936 919 924 896 936 b 721 762 806 936 755 876 b 676 410 692 669 676 540 b 676 399 676 406 676 402 b 584 468 653 444 622 468 b 557 465 575 468 566 467 b 551 472 556 468 554 470 b 398 518 505 502 452 518 b 397 518 398 518 398 518 b 395 518 397 518 396 518 b 369 517 386 518 378 518 b 358 516 366 517 362 516 b 355 515 357 516 356 516 b 246 480 318 511 281 499 b 69 172 135 420 69 305 b 259 -142 69 53 137 -59 b 464 -235 319 -184 391 -216 b 467 -236 465 -235 466 -235 b 600 -255 510 -248 555 -254 b 611 -255 604 -255 607 -255 b 612 -255 611 -255 612 -255 b 634 -306 618 -273 625 -290 b 713 -382 648 -333 678 -378 b 715 -382 714 -382 714 -382 b 716 -382 715 -382 715 -382 b 718 -383 717 -383 717 -383 b 844 -262 762 -383 814 -322 b 1074 -463 915 -264 1022 -340 b 1087 -472 1076 -468 1082 -472 b 1093 -470 1089 -472 1091 -471 b 1100 -452 1100 -467 1103 -459 z m 783 741 b 889 883 810 833 847 883 b 911 874 899 883 906 880 b 910 734 918 864 933 832 b 910 729 910 732 910 731 b 745 469 879 612 802 484 b 783 741 748 571 762 668 z m 598 425 b 662 359 634 425 652 387 l 664 356 b 664 355 664 356 664 355 b 680 284 674 326 679 297 b 575 65 652 203 616 119 b 575 65 575 65 575 65 b 505 19 550 34 526 19 b 466 52 489 19 476 30 b 451 147 456 75 451 109 b 598 425 451 260 503 425 z "},"":{"ha":1385,"x_min":0,"x_max":0,"o":"m 1074 716 b 1086 754 1079 729 1083 742 b 1046 840 1094 799 1079 830 b 978 831 1021 847 998 844 b 955 806 969 824 961 815 b 936 834 950 816 944 826 b 871 855 919 851 897 858 b 817 777 836 851 817 823 b 823 735 818 764 819 750 b 603 936 752 744 652 819 b 584 943 600 943 591 946 b 577 925 577 940 574 932 b 681 778 599 872 637 819 b 831 706 716 746 770 708 b 855 649 837 687 845 667 b 934 573 869 623 898 577 b 935 573 934 573 935 573 b 936 573 935 573 936 573 b 939 573 937 573 938 573 b 1061 688 981 573 1031 630 b 1253 439 1116 685 1253 657 b 1113 179 1253 326 1201 229 b 726 221 1052 145 921 104 b 664 279 704 238 683 258 b 663 280 664 280 663 280 b 662 282 663 281 662 281 b 662 282 662 282 662 282 b 660 283 661 282 660 282 b 659 283 660 283 659 283 b 658 284 659 283 658 283 b 657 284 657 284 657 284 b 655 284 656 284 655 284 b 653 284 654 284 654 284 b 649 284 652 284 651 284 b 648 283 649 284 648 283 b 646 282 647 283 647 283 b 644 281 645 282 645 282 b 644 281 644 281 644 281 b 643 280 643 280 643 280 b 642 278 643 279 642 279 b 642 278 642 278 642 278 b 641 277 641 278 641 277 b 640 276 641 276 640 276 b 631 257 638 272 635 266 b 541 95 599 189 569 135 b 538 91 540 94 539 92 b 470 34 513 58 487 34 b 358 423 406 34 358 201 b 358 446 358 431 358 438 b 553 733 437 458 520 607 b 567 830 562 769 567 802 b 548 908 567 863 561 889 b 481 942 534 930 510 942 b 335 769 420 942 369 882 b 291 416 307 675 291 546 b 291 405 291 412 291 408 b 199 474 268 450 236 474 b -7 168 70 474 -7 318 b 18 43 -7 118 2 75 b 103 -15 38 5 67 -15 b 212 53 144 -15 180 13 b 303 229 250 102 281 171 b 324 123 308 190 315 154 b 436 -15 342 60 376 -15 b 572 90 485 -15 531 31 b 574 93 573 91 573 92 b 600 134 588 113 597 129 b 600 135 600 134 600 135 b 600 135 600 135 600 135 b 657 245 622 172 641 210 b 709 199 673 228 690 213 b 711 197 709 198 710 198 b 711 197 711 197 711 197 b 988 102 792 136 892 102 b 1117 125 1033 102 1076 109 b 1314 444 1191 152 1314 231 b 1074 716 1314 523 1290 704 z m 398 747 b 503 889 424 839 462 889 b 525 880 513 889 520 886 b 525 740 533 870 548 838 b 524 735 524 738 524 737 b 359 475 493 618 416 490 b 398 747 363 577 376 674 z m 190 71 b 190 71 190 71 190 71 b 120 25 164 40 141 25 b 81 58 104 25 91 36 b 65 153 71 81 65 115 b 213 431 65 266 118 431 b 277 365 248 431 266 393 l 278 362 b 279 361 278 362 278 361 b 294 290 289 332 294 303 b 190 71 267 209 231 125 z "},"":{"ha":796,"x_min":0,"x_max":0,"o":"m 1100 -452 b 996 -305 1078 -399 1040 -346 b 856 -234 963 -275 913 -239 b 865 -201 860 -222 863 -211 b 825 -116 873 -156 859 -125 b 758 -125 801 -108 777 -112 b 734 -149 748 -132 741 -140 b 715 -121 730 -139 724 -129 b 651 -101 698 -105 676 -98 b 597 -178 616 -105 596 -133 b 604 -227 597 -193 599 -210 b 590 -227 599 -227 595 -227 b 479 -209 554 -225 517 -219 b 286 -115 409 -191 343 -159 b 133 177 187 -37 133 66 b 362 488 133 374 246 472 b 524 455 419 494 476 484 b 459 387 499 441 476 418 b 416 209 431 340 416 276 b 448 58 416 151 427 97 b 550 -14 473 11 508 -14 b 724 83 611 -14 669 19 b 724 84 724 84 724 84 b 730 91 727 86 728 89 b 738 100 733 94 736 98 b 741 104 739 102 740 103 b 741 104 741 104 741 104 b 741 105 741 105 741 105 b 830 266 794 175 824 251 b 822 284 833 273 829 281 b 803 276 814 287 806 283 b 710 112 801 270 767 183 b 708 109 710 111 709 110 b 575 25 686 82 633 25 b 512 77 549 25 528 43 b 489 207 497 110 489 156 b 491 257 489 223 489 240 b 623 304 558 260 599 283 b 662 358 641 319 654 338 b 663 359 663 358 663 359 b 665 364 663 360 664 361 b 665 365 665 364 665 365 b 671 399 669 376 671 388 b 597 474 671 444 641 474 b 555 469 583 474 569 472 b 551 472 554 470 553 471 b 398 518 505 502 452 518 l 397 518 b 395 518 397 518 396 518 b 358 516 382 518 370 517 b 355 515 357 516 356 516 b 246 480 318 511 281 499 b 69 172 135 420 69 305 b 259 -142 69 53 137 -59 b 464 -235 319 -184 391 -216 b 465 -235 464 -235 465 -235 b 600 -255 509 -247 555 -254 b 611 -255 604 -255 607 -255 b 612 -255 611 -255 612 -255 b 634 -306 618 -273 625 -290 b 713 -382 648 -333 678 -378 b 715 -382 714 -382 714 -382 b 716 -382 715 -382 715 -382 b 718 -383 717 -383 717 -383 b 844 -262 762 -383 814 -322 b 1074 -463 915 -264 1022 -340 b 1087 -472 1076 -468 1082 -472 b 1093 -470 1089 -472 1091 -471 b 1100 -452 1100 -467 1103 -459 z m 606 434 b 637 422 621 434 631 430 b 639 375 645 409 642 386 b 638 375 638 375 638 375 b 604 325 633 357 621 339 b 496 286 585 308 551 289 b 606 434 510 366 548 434 z "},"":{"ha":763,"x_min":0,"x_max":0,"o":"m 503 598 b 291 692 441 640 366 673 b 167 711 251 703 209 709 b 174 737 170 720 173 729 b 134 822 182 782 168 813 b 67 813 110 830 86 826 b 44 789 57 806 50 798 b 24 817 39 799 33 808 b -40 837 8 833 -15 840 b -94 760 -75 833 -95 805 b -89 718 -94 747 -92 733 b -306 918 -160 728 -257 803 b -325 926 -310 926 -318 929 b -333 907 -332 923 -336 914 b -228 761 -310 855 -272 801 b -81 689 -194 729 -141 692 b -57 632 -75 669 -66 650 b 22 556 -42 605 -13 560 b 24 556 23 556 23 556 b 25 556 24 556 24 556 b 27 555 26 555 27 555 b 156 682 72 555 127 620 b 172 682 161 682 166 682 b 279 666 206 680 243 675 b 282 665 280 666 281 665 b 476 570 352 647 419 614 b 629 278 575 493 629 389 b 389 -63 629 90 486 -38 b 389 -63 389 -63 389 -63 b 337 -68 372 -66 355 -68 b 316 -67 332 -68 324 -68 b 314 -67 315 -67 315 -67 b 139 11 235 -62 178 -32 b 66 227 84 69 64 152 b 68 257 67 237 67 247 b 200 304 135 259 177 283 b 240 358 218 319 232 338 b 241 359 240 358 240 359 b 242 364 241 360 241 361 b 242 365 242 364 242 365 b 249 399 246 376 249 388 b 175 474 249 444 219 474 b 36 387 117 474 69 444 b -6 209 9 340 -6 276 b 23 63 -6 154 4 102 b 25 59 23 62 24 60 b 33 45 27 54 30 50 b 33 45 33 45 33 45 b 44 29 37 39 40 34 b 314 -95 121 -72 250 -92 b 314 -96 314 -96 314 -96 b 315 -96 315 -96 315 -96 b 316 -96 315 -96 315 -96 b 316 -96 316 -96 316 -96 b 337 -96 324 -96 332 -96 b 356 -96 344 -96 350 -96 b 356 -96 356 -96 356 -96 b 358 -96 357 -96 357 -96 b 395 -91 369 -96 382 -94 b 395 -91 395 -91 395 -91 b 693 283 548 -61 693 82 b 503 598 693 403 625 515 z m 184 434 b 214 422 199 434 209 430 b 216 375 223 409 219 386 b 216 375 216 375 216 375 b 182 325 210 357 198 339 b 72 285 163 308 128 289 b 184 434 89 371 133 434 z "},"":{"ha":1042,"x_min":0,"x_max":0,"o":"m 1065 281 b 1046 276 1058 285 1050 283 b 825 95 1028 247 938 108 b 825 122 825 104 825 113 b 838 391 825 212 829 304 b 998 545 908 402 972 501 b 1057 675 1022 587 1042 632 b 1083 814 1074 725 1083 774 b 1060 900 1083 850 1076 879 b 982 936 1043 924 1017 936 b 806 676 909 936 849 846 b 757 336 782 579 765 460 b 673 436 734 375 706 409 b 672 437 673 436 672 437 b 672 437 672 437 672 437 b 614 475 654 452 634 464 b 389 502 546 508 468 518 b 69 115 235 472 69 338 b 124 -89 69 66 84 -17 b 323 -217 171 -171 240 -216 b 355 -306 329 -246 340 -278 b 435 -382 370 -333 399 -378 b 436 -382 435 -382 435 -382 b 437 -382 436 -382 437 -382 b 440 -383 438 -383 439 -383 b 565 -262 483 -383 535 -322 b 796 -463 636 -264 743 -340 b 809 -472 798 -468 803 -472 b 814 -470 810 -472 812 -471 b 822 -452 821 -467 825 -459 b 717 -305 799 -399 761 -346 b 577 -234 684 -275 634 -239 b 586 -201 581 -222 584 -211 b 546 -116 595 -156 580 -125 b 479 -125 522 -108 499 -112 b 456 -149 470 -132 462 -140 b 437 -121 451 -139 445 -129 b 372 -101 420 -105 397 -98 b 318 -178 337 -105 318 -133 b 319 -188 318 -181 318 -185 b 130 120 200 -179 130 -65 b 303 434 130 251 198 374 b 657 413 406 494 532 486 b 658 413 657 413 657 413 b 753 277 696 381 729 337 b 751 163 752 239 751 201 b 781 -170 751 32 762 -86 b 885 -322 804 -271 839 -322 b 950 -246 919 -322 939 -289 b 950 -245 950 -246 950 -246 b 956 -213 953 -235 955 -224 b 957 -205 956 -210 957 -208 b 958 -188 957 -199 958 -193 b 959 -170 959 -182 959 -176 b 959 -170 959 -170 959 -170 b 959 -165 959 -168 959 -166 b 924 6 959 -103 946 -41 b 868 76 909 37 890 61 b 1070 262 950 104 1024 185 b 1065 281 1074 268 1072 277 z m 1009 884 b 1037 871 1022 884 1031 880 b 1030 683 1065 834 1044 729 b 1029 682 1029 683 1029 683 b 841 421 988 562 905 439 b 1009 884 868 676 929 884 z m 898 -7 b 930 -165 919 -49 930 -107 b 930 -169 930 -166 930 -168 b 930 -170 930 -169 930 -170 b 898 -275 929 -232 916 -275 b 846 -165 883 -275 862 -246 b 826 64 835 -106 828 -26 b 898 -7 862 55 885 22 z "},"":{"ha":1142,"x_min":0,"x_max":0,"o":"m 831 710 b 843 748 837 723 841 736 b 803 834 851 793 837 824 b 736 824 778 841 755 838 b 712 800 726 818 718 809 b 693 828 708 810 702 820 b 629 849 676 844 654 852 b 575 771 594 845 574 817 b 580 729 575 758 577 744 b 360 930 509 738 410 813 b 342 937 357 937 349 940 b 334 919 334 934 331 926 b 438 772 356 866 394 813 b 588 700 473 740 527 702 b 612 643 594 681 602 661 b 691 567 626 616 656 571 b 692 567 691 567 692 567 b 694 567 693 567 693 567 b 696 567 695 567 695 567 b 818 682 738 567 788 623 b 1011 433 873 679 1011 651 b 807 120 1011 311 929 185 b 410 148 734 80 585 32 b 320 274 373 179 342 220 l 320 274 b 319 276 320 275 320 275 b 319 277 319 276 319 277 b 318 278 318 277 318 278 b 318 278 318 278 318 278 b 316 279 317 279 317 279 b 316 280 316 279 316 279 b 315 281 316 280 315 280 b 315 281 315 281 315 281 b 314 281 315 281 314 281 b 313 282 314 281 313 282 b 313 282 313 282 313 282 b 311 282 312 282 312 282 b 311 283 311 283 311 283 b 309 283 310 283 310 283 b 307 283 308 283 308 283 b 305 283 306 283 306 283 b 303 283 304 283 304 283 b 302 282 303 283 302 282 l 301 282 b 300 281 301 282 300 282 b 299 281 300 281 299 281 b 298 280 299 281 298 280 b 298 280 298 280 298 280 b 297 279 297 279 297 279 b 296 278 296 279 296 278 b 295 276 295 278 295 277 b 74 95 277 247 187 108 b 74 122 74 104 74 113 b 87 391 74 212 79 304 b 247 545 157 402 222 501 b 306 675 271 587 291 632 b 332 814 323 725 332 774 b 310 900 332 850 325 879 b 231 936 292 924 266 936 b 55 676 159 936 98 846 b 0 163 20 535 0 348 b 30 -170 0 32 11 -86 b 134 -322 53 -271 88 -322 b 198 -249 167 -322 187 -291 b 199 -246 198 -248 199 -247 b 206 -200 203 -232 205 -216 b 206 -199 206 -200 206 -199 b 207 -188 207 -195 207 -191 b 208 -170 207 -182 208 -176 b 208 -170 208 -170 208 -170 b 208 -165 208 -168 208 -166 b 173 6 208 -103 195 -41 b 117 76 158 37 139 61 b 305 239 191 101 258 170 b 391 127 326 195 356 157 b 394 124 392 126 393 125 b 395 124 394 124 394 124 b 633 42 459 71 541 42 b 723 51 662 42 692 45 b 1072 438 891 84 1072 219 b 831 710 1072 517 1048 698 z m 259 884 b 287 871 271 884 280 880 b 279 683 314 834 293 729 b 278 682 279 683 278 683 b 90 421 237 562 154 439 b 259 884 117 676 178 884 z m 147 -7 b 179 -165 168 -49 179 -107 b 179 -169 179 -166 179 -168 b 179 -170 179 -169 179 -170 b 147 -275 178 -232 165 -275 b 95 -165 132 -275 111 -246 b 75 64 84 -106 77 -26 b 147 -7 111 55 134 22 z "},"":{"ha":1322,"x_min":0,"x_max":0,"o":"m 1354 284 b 1336 276 1347 287 1339 283 b 1154 79 1298 169 1229 123 b 1151 417 1157 179 1156 291 b 1150 448 1150 432 1150 444 b 1138 474 1150 459 1146 468 b 1115 482 1132 479 1124 482 b 1081 454 1097 482 1083 470 b 1074 433 1079 451 1078 444 b 1055 370 1069 413 1062 392 b 944 474 1040 418 1005 474 b 788 371 881 474 827 439 b 764 321 779 355 771 339 b 674 436 741 367 711 405 b 672 437 673 436 673 437 b 672 437 672 437 672 437 b 614 475 654 452 634 464 b 389 502 546 508 468 518 b 69 115 235 472 69 338 b 124 -89 69 66 84 -17 b 323 -217 171 -171 240 -216 b 355 -306 329 -246 340 -278 b 435 -382 370 -333 399 -378 b 436 -382 435 -382 435 -382 b 437 -382 436 -382 437 -382 b 440 -383 438 -383 439 -383 b 565 -262 483 -383 535 -322 b 796 -463 636 -264 743 -340 b 809 -472 798 -468 803 -472 b 814 -470 810 -472 812 -471 b 822 -452 821 -467 825 -459 b 717 -305 799 -399 761 -346 b 577 -234 684 -275 634 -239 b 586 -201 581 -222 584 -211 b 547 -116 595 -156 580 -125 b 479 -125 522 -108 499 -112 b 456 -149 470 -132 462 -140 b 437 -121 451 -139 445 -129 b 372 -101 420 -105 397 -98 b 318 -178 337 -105 318 -133 b 319 -188 318 -181 318 -184 b 130 120 200 -178 130 -65 b 303 434 130 251 198 374 b 657 413 406 494 532 486 b 658 413 657 413 657 413 b 752 282 695 382 728 339 b 737 169 742 245 737 207 b 850 -14 737 58 781 -14 b 944 46 881 -14 912 6 b 1065 307 984 98 1024 185 b 1067 311 1066 308 1066 310 b 1085 369 1073 330 1079 349 b 1084 40 1088 289 1090 166 b 898 -140 1017 0 951 -49 b 857 -312 866 -197 854 -258 b 863 -356 857 -324 859 -339 b 884 -415 867 -378 875 -399 b 967 -469 905 -450 934 -469 b 1043 -434 995 -469 1021 -457 b 1153 46 1106 -368 1143 -207 b 1363 266 1239 94 1319 143 b 1354 284 1366 273 1362 282 z m 923 66 b 921 64 923 65 922 65 b 868 24 912 52 888 24 b 826 59 851 24 836 36 b 809 156 815 83 809 116 b 954 434 809 288 869 434 b 1026 368 992 434 1014 399 b 1028 362 1027 366 1027 364 l 1029 360 b 1029 360 1029 360 1029 360 b 1038 317 1035 342 1037 326 b 923 66 1007 224 966 124 z m 992 -404 b 949 -425 978 -418 964 -425 b 920 -412 938 -425 928 -421 b 885 -309 894 -386 885 -330 b 885 -306 885 -308 885 -307 b 923 -155 884 -252 900 -195 b 1083 5 968 -76 1024 -31 b 992 -404 1073 -169 1048 -341 z "},"":{"ha":989,"x_min":0,"x_max":0,"o":"m 729 598 b 518 692 667 640 593 673 b 393 711 477 703 435 709 b 400 737 396 720 399 729 b 360 822 409 782 394 813 b 293 813 336 830 313 826 b 270 789 284 806 276 798 b 251 817 265 799 259 808 b 186 837 234 833 211 840 b 132 760 151 833 132 805 b 138 718 132 747 134 733 b -80 918 67 728 -31 803 b -99 926 -83 926 -92 929 b -106 907 -106 923 -109 914 b -2 761 -84 855 -46 801 b 146 689 32 729 85 692 b 170 632 152 669 160 650 b 249 556 184 605 213 560 b 250 556 249 556 249 556 b 251 556 250 556 251 556 b 254 555 252 555 253 555 b 382 682 299 555 353 620 b 398 682 387 682 392 682 b 509 665 434 680 472 674 b 702 570 579 646 646 614 b 855 278 801 493 855 389 b 624 -33 855 81 740 -18 b 623 -33 624 -33 623 -33 b 452 7 563 -39 503 -26 b 452 7 452 7 452 7 b 396 31 441 14 421 24 b 394 417 401 141 400 270 b 393 448 394 432 393 444 b 382 474 393 459 389 468 b 359 482 375 479 367 482 b 324 454 340 482 326 470 b 318 433 323 451 321 444 b 299 370 312 413 306 392 b 188 474 283 418 249 474 b 31 371 124 474 70 439 b -20 169 -1 314 -20 241 b 94 -14 -20 58 25 -14 b 187 46 125 -14 156 6 b 309 307 227 98 268 185 b 310 311 309 308 310 310 b 329 369 316 330 322 349 b 328 34 332 288 333 162 b 306 29 320 32 313 31 b 141 -141 241 9 185 -48 b 135 -424 96 -239 93 -358 b 210 -469 154 -453 180 -469 b 287 -434 239 -469 264 -457 b 394 2 346 -372 382 -226 b 437 -17 413 -4 428 -11 b 437 -17 437 -17 437 -17 b 591 -63 483 -47 537 -62 b 594 -63 592 -63 593 -63 b 626 -61 605 -63 616 -62 b 628 -61 627 -61 627 -61 b 743 -24 667 -56 706 -44 b 919 283 853 35 919 150 b 729 598 919 403 852 515 z m 167 66 b 165 64 166 65 166 65 b 112 24 155 52 132 24 b 69 59 94 24 80 36 b 53 156 59 83 53 116 b 197 434 53 288 112 434 b 269 368 236 434 258 399 b 272 362 270 366 271 364 l 272 360 b 272 360 272 360 272 360 b 282 317 278 342 281 326 b 167 66 250 224 210 124 z m 235 -404 b 193 -425 222 -418 208 -425 b 168 -414 184 -425 176 -422 b 134 -295 142 -387 133 -321 b 134 -294 134 -295 134 -294 b 167 -154 135 -250 145 -201 b 314 1 207 -68 257 -16 b 326 4 318 3 322 4 b 235 -404 317 -170 292 -342 z "},"":{"ha":1086,"x_min":0,"x_max":0,"o":"m 528 133 b 530 -9 529 83 530 35 b 543 -35 530 -25 538 -32 b 556 -38 547 -37 551 -38 b 576 -32 562 -38 569 -36 b 599 -2 586 -27 598 -15 b 600 1 599 -1 599 0 b 667 271 613 82 637 184 b 673 286 669 276 671 281 b 777 429 706 374 745 429 b 818 234 818 429 818 325 b 829 61 819 173 819 110 b 912 -30 841 1 869 -30 b 974 3 929 -30 955 -13 b 975 3 974 3 974 3 b 985 13 978 6 981 9 b 989 17 986 14 988 15 b 1056 113 1009 38 1032 70 b 1126 266 1090 176 1119 244 b 1118 284 1129 273 1125 282 b 1100 276 1110 287 1102 283 b 970 38 1078 215 1019 90 b 969 37 970 37 969 37 b 952 22 963 31 957 26 b 933 14 945 17 939 14 b 887 212 887 14 887 115 b 789 474 886 335 886 474 b 639 275 734 474 685 409 b 636 267 638 273 637 270 b 598 131 620 220 608 173 b 600 439 596 221 595 331 b 811 827 695 460 811 689 b 793 902 811 859 805 884 b 727 934 778 923 756 934 b 634 894 692 934 660 921 b 531 484 564 824 539 664 b 398 518 490 506 444 518 b 397 518 398 518 398 518 b 395 518 397 518 396 518 b 358 516 382 518 370 517 b 355 515 357 516 356 516 b 246 480 318 511 281 499 b 69 172 135 420 69 305 b 259 -142 69 53 137 -59 b 464 -235 319 -184 391 -216 b 465 -235 464 -235 465 -235 b 600 -255 510 -247 555 -254 b 611 -255 604 -255 607 -255 b 612 -255 612 -255 612 -255 b 634 -306 618 -273 625 -290 b 713 -382 649 -333 678 -378 b 715 -382 714 -382 714 -382 b 716 -382 715 -382 715 -382 b 718 -383 717 -383 717 -383 b 844 -262 762 -383 814 -322 b 1074 -463 915 -264 1022 -340 b 1087 -472 1076 -468 1082 -472 b 1093 -470 1089 -472 1091 -471 b 1100 -452 1100 -467 1103 -459 b 996 -305 1078 -399 1040 -346 b 856 -234 963 -275 913 -239 b 865 -201 860 -222 863 -211 b 825 -116 873 -156 859 -125 b 758 -125 801 -108 777 -112 b 734 -149 748 -132 741 -140 b 715 -121 730 -139 724 -129 b 651 -101 698 -105 676 -98 b 597 -178 616 -105 596 -133 b 604 -227 597 -193 600 -210 b 590 -227 599 -227 595 -227 b 483 -210 556 -225 519 -219 b 480 -210 482 -210 481 -210 b 286 -115 410 -191 343 -159 b 133 177 187 -37 133 66 b 363 488 133 374 247 472 b 529 452 421 495 480 483 b 528 133 525 346 527 235 z m 693 856 b 749 881 710 873 728 881 b 769 872 758 881 764 879 b 764 720 788 848 780 778 b 764 719 764 719 764 719 b 601 469 730 607 656 489 b 693 856 610 638 633 796 z "},"":{"ha":1356,"x_min":0,"x_max":0,"o":"m 1044 710 b 1056 748 1050 723 1054 736 b 1016 834 1064 793 1050 824 b 949 824 992 841 969 838 b 926 800 940 818 932 809 b 906 828 921 810 915 820 b 842 849 890 844 867 852 b 788 771 807 845 788 817 b 793 729 788 758 790 744 b 574 930 722 738 623 813 b 555 937 571 937 562 940 b 547 919 548 934 544 926 b 652 772 570 866 608 813 b 801 700 687 740 740 702 b 825 643 808 681 816 661 b 904 567 840 616 869 571 b 906 567 905 567 905 567 b 907 567 906 567 907 567 b 910 567 908 567 909 567 b 1032 682 952 567 1002 623 b 1224 433 1086 679 1224 651 b 1030 109 1224 303 1144 170 b 699 139 926 54 808 65 b 697 140 698 140 697 140 b 697 140 697 140 697 140 b 601 276 658 172 625 216 b 586 285 598 282 592 286 l 586 285 b 572 276 580 285 574 282 b 442 38 550 215 491 90 b 442 38 442 38 442 38 b 441 37 442 37 441 37 b 424 22 436 31 430 26 b 405 14 417 17 411 14 b 359 212 360 14 359 115 b 262 474 358 335 358 474 b 116 290 209 474 161 414 b 112 277 115 285 113 281 l 111 275 b 111 275 111 275 111 275 b 108 267 110 272 109 270 b 71 134 93 221 81 175 b 73 439 69 224 68 333 b 284 827 168 460 284 689 b 266 902 284 859 278 884 b 200 934 251 923 229 934 b 107 894 165 934 133 921 b 2 133 -7 778 -2 420 b 3 -9 2 83 3 35 b 16 -35 3 -25 11 -32 b 29 -38 20 -37 24 -38 b 50 -32 36 -38 43 -36 b 72 1 60 -26 72 -14 b 72 2 72 1 72 1 b 138 266 85 81 109 181 b 140 271 139 268 139 269 b 143 279 141 274 142 277 b 250 429 177 372 217 429 b 291 234 291 429 291 325 b 301 61 291 173 291 110 b 384 -30 314 1 341 -30 b 447 3 402 -30 428 -13 b 450 6 448 4 449 5 b 458 13 452 8 455 10 b 461 17 459 14 460 16 b 462 18 462 17 462 17 b 528 113 483 39 504 71 b 587 237 552 158 574 205 b 681 117 611 189 643 149 b 683 116 681 117 682 116 b 683 115 683 116 683 115 b 741 78 701 101 720 89 b 892 44 787 55 839 44 b 965 51 916 44 941 46 b 1285 438 1119 81 1285 215 b 1044 710 1285 517 1261 698 z m 166 856 b 223 881 183 873 201 881 b 242 872 231 881 237 879 b 237 720 261 848 253 778 b 237 719 237 719 237 719 b 74 469 203 607 129 489 b 166 856 83 638 106 796 z "},"":{"ha":796,"x_min":0,"x_max":0,"o":"m 1100 -452 b 996 -305 1078 -399 1040 -346 b 856 -234 963 -275 913 -239 b 865 -201 860 -222 863 -211 b 825 -116 873 -156 859 -125 b 758 -125 801 -108 777 -112 b 734 -149 748 -132 741 -140 b 715 -121 730 -139 724 -129 b 651 -101 698 -105 676 -98 b 597 -178 616 -105 596 -133 b 604 -227 597 -193 599 -210 b 590 -227 599 -227 595 -227 b 483 -210 556 -225 519 -219 b 480 -210 482 -210 481 -210 b 286 -115 410 -191 343 -159 b 133 177 187 -37 133 66 b 363 488 133 374 246 472 b 529 452 421 495 480 483 b 529 449 529 451 529 450 b 571 7 527 434 494 93 b 616 -14 584 -7 599 -14 b 813 252 704 -14 770 138 b 818 266 815 258 816 262 b 809 284 820 273 817 281 b 791 276 802 287 794 283 b 786 262 790 273 788 268 b 702 83 757 184 729 125 b 702 83 702 83 702 83 l 699 79 b 637 28 688 63 663 28 b 621 36 633 28 628 29 b 585 260 607 51 585 101 b 594 446 586 358 594 445 b 584 467 595 454 592 461 b 549 473 576 473 562 477 b 398 518 504 503 451 518 b 397 518 398 518 398 518 b 395 518 397 518 396 518 b 369 517 386 518 378 518 b 358 516 366 517 362 516 b 355 515 357 516 356 516 b 246 480 318 511 281 499 b 69 172 135 420 69 305 b 259 -142 69 53 137 -59 b 464 -235 319 -184 391 -216 b 466 -235 464 -235 465 -235 b 600 -255 510 -248 555 -254 b 611 -255 604 -255 607 -255 b 612 -255 611 -255 612 -255 b 634 -306 618 -273 625 -290 b 713 -382 648 -333 678 -378 b 715 -382 714 -382 714 -382 b 716 -382 715 -382 715 -382 b 718 -383 717 -383 717 -383 b 844 -262 762 -383 814 -322 b 1074 -463 915 -264 1022 -340 b 1087 -472 1076 -468 1082 -472 b 1093 -470 1089 -472 1091 -471 b 1100 -452 1100 -467 1103 -459 z m 568 494 b 621 547 597 494 621 518 b 568 599 621 575 597 599 b 516 547 540 599 516 575 b 568 494 516 518 540 494 z "},"":{"ha":664,"x_min":0,"x_max":0,"o":"m 405 598 b 193 692 342 640 268 673 b 68 711 152 703 110 709 b 76 737 72 720 74 729 b 36 822 84 782 69 813 b -31 813 11 830 -12 826 b -55 789 -41 806 -49 798 b -74 817 -59 799 -66 808 b -139 837 -91 833 -113 840 b -193 760 -174 833 -193 805 b -187 718 -192 747 -191 733 b -405 918 -258 728 -356 803 b -424 926 -408 926 -416 929 b -431 907 -431 923 -434 914 b -327 761 -409 855 -371 801 b -179 689 -292 729 -239 692 b -155 632 -173 669 -165 650 b -76 556 -141 605 -112 560 b -75 556 -76 556 -75 556 b -74 556 -75 556 -74 556 b -71 555 -73 555 -72 555 b 57 682 -26 555 28 620 b 73 682 62 682 68 682 b 181 666 108 680 144 675 b 184 665 182 666 183 665 b 377 570 254 647 321 614 b 531 278 476 493 531 389 b 299 -33 531 81 416 -18 b 298 -33 299 -33 299 -33 b 202 -26 266 -36 233 -34 b 71 224 115 5 83 127 b 69 446 58 338 69 445 b 59 467 70 454 66 461 b 20 472 49 474 33 478 b 3 449 10 468 4 459 l 3 446 b 109 -14 -7 358 -25 88 b 109 -14 109 -14 109 -14 b 112 -17 110 -15 111 -16 b 114 -18 113 -17 114 -18 b 159 -41 128 -28 142 -35 b 159 -42 159 -41 159 -42 b 192 -53 170 -46 181 -50 b 195 -53 193 -53 194 -53 b 198 -54 196 -54 197 -54 b 266 -63 220 -60 243 -62 b 269 -63 267 -63 268 -63 b 302 -61 280 -63 291 -62 b 303 -61 302 -61 302 -61 b 418 -24 342 -56 381 -44 b 594 283 528 35 594 150 b 405 598 594 403 527 515 z m 43 494 b 95 547 72 494 95 518 b 43 599 95 575 72 599 b -9 547 14 599 -9 575 b 43 494 -9 518 14 494 z "},"":{"ha":1086,"x_min":0,"x_max":0,"o":"m 873 494 b 925 547 902 494 925 518 b 873 599 925 575 902 599 b 821 547 844 599 821 575 b 873 494 821 518 844 494 z m 1117 284 b 1099 276 1110 287 1102 283 b 917 79 1061 169 992 123 b 914 417 920 179 919 291 b 912 448 913 432 912 444 b 901 474 912 459 908 468 b 878 482 895 479 887 482 b 854 473 868 482 860 479 b 841 485 850 477 846 481 b 738 556 810 512 775 536 b 737 557 738 557 737 557 b 525 632 671 593 598 620 b 171 536 380 657 254 623 b 85 192 79 440 47 312 b 139 91 97 155 116 121 b 144 85 141 89 142 87 b 166 61 151 77 158 69 b 168 60 167 61 168 60 b 168 60 168 60 168 60 b 304 -12 206 24 253 -1 b 290 -84 297 -35 292 -60 b 317 -192 288 -115 288 -170 b 359 -204 327 -200 342 -204 b 491 -160 398 -204 449 -185 b 576 -454 566 -211 593 -352 b 588 -471 575 -462 580 -469 b 590 -471 588 -471 589 -471 b 604 -459 597 -471 603 -466 b 606 -335 611 -420 611 -377 b 595 -279 603 -316 600 -297 b 516 -143 584 -236 561 -179 b 541 -121 525 -136 534 -128 b 554 -27 572 -88 577 -54 b 492 1 537 -8 516 2 b 459 -7 481 1 470 -2 b 458 27 461 4 461 16 b 415 79 453 50 438 68 b 328 43 384 95 352 82 b 314 15 323 35 318 25 b 139 141 241 29 178 76 b 138 144 139 142 138 143 b 214 489 74 260 126 397 b 526 593 290 569 401 606 b 730 528 597 586 668 563 b 831 456 768 507 802 483 b 838 449 833 454 836 452 b 844 446 840 448 842 447 b 847 40 848 399 855 222 b 661 -140 780 0 714 -49 b 620 -312 629 -197 617 -258 b 621 -333 620 -318 620 -325 b 625 -356 622 -340 624 -348 b 647 -415 630 -378 638 -399 b 730 -469 667 -450 697 -469 b 806 -434 758 -469 784 -457 b 916 46 869 -368 906 -207 b 1126 266 1002 94 1082 143 b 1117 284 1128 273 1125 282 z m 755 -404 b 712 -425 741 -418 727 -425 b 683 -412 701 -425 691 -421 b 648 -309 656 -386 648 -330 b 648 -306 648 -308 648 -307 b 686 -155 647 -252 663 -195 b 845 5 731 -76 787 -31 b 755 -404 836 -169 811 -341 z "},"":{"ha":656,"x_min":0,"x_max":0,"o":"m 396 598 b 183 692 333 640 258 673 b 178 693 181 693 180 693 b 59 711 139 703 99 709 b 67 737 63 720 65 729 b 27 822 75 782 60 813 b -40 813 2 830 -21 826 b -64 789 -50 806 -58 798 b -83 817 -68 799 -75 808 b -148 837 -100 833 -122 840 b -201 760 -183 833 -202 805 b -196 718 -201 747 -199 733 b -414 918 -267 728 -365 803 b -433 926 -417 926 -425 929 b -440 907 -440 923 -443 914 b -336 761 -418 855 -380 801 b -188 689 -301 729 -248 692 b -164 632 -182 669 -174 650 b -85 556 -150 605 -121 560 b -84 556 -85 556 -84 556 b -83 556 -84 556 -83 556 b -80 555 -82 555 -81 555 b -14 591 -59 555 -36 570 b 48 682 10 616 33 650 b 64 682 53 682 59 682 b 176 665 100 680 138 674 b 368 570 245 646 312 614 b 522 278 467 493 522 389 b 290 -33 522 80 406 -18 b 289 -33 290 -33 290 -33 b 119 7 229 -39 169 -26 b 118 7 118 7 118 7 b 118 8 118 7 118 7 b 76 28 108 13 93 22 b 74 417 81 140 80 269 b 73 448 74 432 73 444 b 62 474 73 459 69 468 b 39 482 56 479 47 482 b 37 482 38 482 38 482 b 4 451 18 481 4 468 b 4 449 4 450 4 450 b 8 41 8 408 16 228 b -28 34 -4 40 -15 38 b -176 -128 -84 17 -134 -38 b -213 -299 -201 -181 -213 -243 b -213 -302 -213 -300 -213 -301 b -213 -308 -213 -304 -213 -306 b -182 -425 -211 -354 -201 -395 b -109 -469 -164 -454 -139 -469 b -33 -434 -81 -469 -56 -457 b 74 -2 26 -373 62 -228 b 104 -17 84 -6 94 -12 b 104 -17 104 -17 104 -17 b 257 -63 150 -47 203 -62 b 260 -63 258 -63 259 -63 b 293 -61 271 -63 282 -62 b 294 -61 293 -61 293 -61 b 409 -24 333 -56 372 -44 b 585 283 519 35 585 150 b 396 598 585 403 518 515 z m -85 -404 b -127 -425 -98 -418 -112 -425 b -171 -381 -134 -425 -156 -425 b -185 -301 -180 -354 -183 -323 b -185 -299 -185 -300 -185 -299 b -150 -140 -185 -249 -175 -193 b -19 7 -112 -58 -67 -8 b 7 12 -10 10 -2 12 b -85 -404 -3 -164 -27 -341 z m 37 494 b 86 547 64 496 86 519 b 34 599 86 575 63 599 b 1 587 21 599 10 594 b -18 547 -11 577 -18 563 b 34 494 -18 518 5 494 b 37 494 35 494 36 494 z "},"":{"ha":989,"x_min":0,"x_max":0,"o":"m 1100 -452 b 996 -305 1078 -399 1040 -346 b 856 -234 963 -275 913 -239 b 865 -201 860 -222 863 -211 b 825 -116 873 -156 859 -125 b 758 -125 801 -108 777 -112 b 734 -149 748 -132 741 -140 b 715 -121 730 -139 724 -129 b 651 -101 698 -105 676 -98 b 597 -178 616 -105 596 -133 b 604 -227 597 -193 600 -210 b 590 -227 599 -227 595 -227 b 479 -209 554 -225 517 -219 b 286 -115 409 -191 343 -159 b 133 177 187 -37 133 66 b 363 488 133 374 247 472 b 531 451 422 495 481 482 b 530 132 527 345 528 234 b 531 -9 531 82 531 35 b 544 -36 531 -26 539 -33 b 558 -39 548 -38 553 -39 b 578 -33 564 -39 571 -37 b 596 -15 584 -29 592 -23 b 599 -8 598 -13 599 -11 b 600 -6 600 -7 600 -7 b 600 -3 600 -5 600 -4 b 635 161 610 52 622 108 b 790 -23 671 70 725 -23 b 944 97 848 -23 902 33 b 1024 247 980 152 1008 212 l 1028 255 b 1022 274 1032 263 1029 271 b 1003 268 1014 278 1006 275 l 999 259 b 921 114 984 228 956 168 b 921 114 921 114 921 114 l 921 114 b 915 106 919 111 917 109 b 825 26 899 84 858 26 b 689 199 768 26 700 151 b 790 266 726 211 760 233 b 851 400 827 307 851 360 b 789 465 851 440 827 465 b 662 332 743 465 701 421 b 659 325 661 330 660 327 b 634 258 651 305 643 282 b 620 209 629 242 624 225 b 599 131 612 182 605 156 b 601 438 598 222 597 331 b 813 826 696 460 813 689 b 794 901 813 858 806 883 b 729 933 780 922 757 933 b 636 894 693 933 662 920 b 532 484 566 823 540 663 b 397 518 491 506 445 518 b 397 518 397 518 397 518 b 395 518 397 518 396 518 b 369 517 386 518 378 518 b 358 516 366 517 362 516 b 355 515 357 516 356 516 b 246 480 318 511 281 499 b 69 172 135 420 69 305 b 259 -142 69 53 137 -59 b 464 -235 319 -184 391 -216 b 467 -236 465 -235 466 -235 b 600 -255 510 -248 555 -254 b 611 -255 604 -255 607 -255 b 612 -255 611 -255 612 -255 b 634 -306 618 -273 625 -290 b 713 -382 648 -333 678 -378 b 715 -382 714 -382 714 -382 b 716 -382 715 -382 715 -382 b 718 -383 717 -383 717 -383 b 844 -262 762 -383 814 -322 b 1074 -463 915 -264 1022 -340 b 1087 -472 1076 -468 1082 -472 b 1093 -470 1089 -472 1091 -471 b 1100 -452 1100 -467 1103 -459 z m 699 343 b 699 343 699 343 699 343 b 777 416 723 390 751 416 b 785 413 783 416 784 414 b 789 398 787 410 789 405 b 652 221 789 346 725 237 b 699 343 667 267 682 308 z m 694 856 b 751 881 711 872 730 881 b 771 872 760 881 766 878 b 766 719 789 847 782 777 b 765 718 766 719 765 718 b 602 468 731 607 658 488 b 694 856 611 637 635 795 z "},"":{"ha":1260,"x_min":0,"x_max":0,"o":"m 949 710 b 961 748 954 723 958 736 b 921 834 969 793 954 824 b 853 824 896 841 873 838 b 830 800 844 818 836 809 b 811 828 825 810 819 820 b 746 849 794 844 772 852 b 692 771 711 845 692 817 b 698 729 693 758 694 744 b 478 930 627 738 527 813 b 459 937 475 937 466 940 b 452 919 452 934 449 926 b 556 772 474 866 512 813 b 706 700 591 740 645 702 b 730 643 712 681 720 661 b 809 567 744 616 773 571 b 810 567 809 567 810 567 b 811 567 810 567 811 567 b 814 567 812 567 813 567 b 936 682 856 567 906 623 b 1128 433 991 679 1128 651 b 934 109 1128 303 1049 170 b 603 139 830 54 713 65 b 601 140 602 140 602 140 b 601 140 601 140 601 140 b 505 276 563 172 529 216 b 487 284 502 283 494 287 b 478 272 481 282 478 277 b 474 268 476 271 475 269 l 470 259 b 393 114 456 228 428 168 b 392 114 393 114 393 114 b 387 106 391 111 389 109 b 296 26 371 84 329 26 b 161 199 239 26 171 151 b 322 400 256 229 322 331 b 261 465 322 440 299 465 b 134 332 214 465 173 421 b 131 325 133 330 132 327 l 130 323 b 106 258 122 303 114 282 b 91 209 101 242 96 225 b 71 131 83 182 77 156 b 73 438 69 222 68 331 b 284 826 168 460 284 689 b 266 901 284 858 278 883 b 200 933 251 922 229 933 b 107 894 165 933 133 920 b 2 132 -7 777 -2 420 b 3 -9 2 82 3 35 b 16 -36 3 -26 11 -33 b 29 -39 20 -38 24 -39 b 49 -33 36 -39 43 -37 b 68 -15 56 -29 63 -23 b 71 -8 69 -13 71 -11 b 107 161 81 48 93 106 b 261 -23 143 70 196 -23 b 415 97 320 -23 373 33 b 491 237 449 147 475 202 b 585 117 515 189 547 149 b 587 116 585 117 586 116 b 588 115 587 116 587 115 b 645 78 605 101 625 89 b 796 44 692 55 743 44 b 870 51 820 44 845 46 b 1189 438 1024 81 1189 215 b 949 710 1189 517 1165 698 z m 166 856 b 222 881 183 872 201 881 b 242 872 231 881 237 878 b 237 719 261 847 253 777 b 237 718 237 719 237 718 b 74 468 203 607 129 488 b 166 856 83 637 106 795 z m 170 341 b 248 416 194 389 222 416 b 257 413 254 416 256 414 b 260 398 259 410 260 404 b 124 221 260 346 197 237 b 170 341 138 266 153 307 z "},"":{"ha":876,"x_min":0,"x_max":0,"o":"m 1100 -452 b 996 -305 1078 -399 1040 -346 b 856 -234 963 -275 913 -239 b 865 -201 860 -222 863 -211 b 825 -116 873 -156 859 -125 b 758 -125 801 -108 777 -112 b 734 -149 748 -132 741 -140 b 715 -121 730 -139 724 -129 b 651 -101 698 -105 676 -98 b 597 -178 616 -105 596 -133 b 604 -227 597 -193 599 -210 b 590 -227 599 -227 595 -227 b 479 -209 554 -225 517 -219 b 286 -115 409 -191 343 -159 b 133 177 187 -37 133 66 b 362 488 133 374 246 472 b 536 448 423 495 485 482 b 542 446 538 447 540 446 b 542 412 542 435 542 424 b 575 120 542 300 554 196 b 687 -18 593 57 627 -18 b 819 81 734 -18 779 24 b 825 89 821 84 823 87 b 850 130 838 109 848 126 b 851 132 851 131 851 131 b 851 132 851 132 851 132 b 908 242 872 168 892 207 b 917 260 912 250 915 257 b 911 279 920 267 918 275 b 892 273 904 283 895 280 b 882 254 890 269 886 263 b 792 92 850 185 820 131 b 789 88 791 91 790 89 b 721 30 764 55 738 30 b 609 420 657 30 609 198 b 609 442 609 427 609 435 b 804 730 688 454 771 603 b 818 827 813 765 818 799 b 799 905 818 860 812 886 b 732 938 784 927 761 938 b 586 765 671 938 620 878 b 543 477 563 687 547 585 b 397 518 499 504 449 518 b 397 518 397 518 397 518 b 395 518 396 518 396 518 b 358 516 382 518 370 517 b 355 515 357 516 356 516 b 246 480 318 511 281 499 b 69 172 135 420 69 305 b 259 -142 69 53 137 -59 b 464 -235 319 -184 391 -216 b 465 -235 464 -235 465 -235 b 600 -255 509 -247 555 -254 b 611 -255 604 -255 607 -255 b 612 -255 611 -255 612 -255 b 634 -306 618 -273 625 -290 b 713 -382 648 -333 678 -378 b 715 -382 714 -382 714 -382 b 716 -382 715 -382 715 -382 b 718 -383 717 -383 717 -383 b 844 -262 762 -383 814 -322 b 1074 -463 915 -264 1022 -340 b 1087 -472 1076 -468 1082 -472 b 1093 -470 1089 -472 1091 -471 b 1100 -452 1100 -467 1103 -459 z m 648 743 b 754 886 675 835 713 886 b 776 876 764 886 771 883 b 776 737 784 867 799 834 b 775 732 775 735 775 733 b 610 472 744 614 667 487 b 648 743 614 573 627 670 z "},"":{"ha":1132,"x_min":0,"x_max":0,"o":"m 821 710 b 833 748 826 723 830 736 b 793 834 841 793 826 824 b 726 824 768 841 745 838 b 702 800 716 818 708 809 b 683 828 698 810 691 820 b 618 849 666 844 644 852 b 565 771 584 845 564 817 b 570 729 565 758 567 744 b 350 930 499 738 400 813 b 331 937 347 937 339 940 b 324 919 324 934 321 926 b 428 772 346 866 384 813 b 578 700 463 740 517 702 b 602 643 584 681 592 661 b 681 567 616 616 645 571 b 682 567 681 567 682 567 b 683 567 683 567 683 567 b 686 567 684 567 685 567 b 808 682 728 567 778 623 b 1001 433 863 679 1001 651 b 806 109 1001 303 921 170 b 475 139 702 54 585 65 b 473 140 474 140 474 140 b 473 140 473 140 473 140 b 377 276 435 172 401 216 b 359 284 374 283 366 287 b 350 274 354 282 351 278 b 350 273 350 273 350 273 b 341 254 348 269 345 263 b 250 92 308 185 278 131 b 248 88 249 91 248 89 b 179 30 223 55 196 30 b 68 420 116 30 68 198 b 68 442 68 427 68 435 b 262 730 146 454 229 604 b 276 827 271 765 276 799 b 257 905 276 860 270 886 b 191 938 243 927 220 938 b 44 765 129 938 79 878 b 0 412 16 671 0 543 b 34 120 0 300 12 196 b 146 -18 51 57 85 -18 b 280 85 194 -18 240 26 b 283 89 281 86 282 88 b 309 130 297 109 306 126 b 310 132 309 131 309 131 b 310 132 310 132 310 132 b 364 237 330 167 348 203 b 457 117 388 189 419 149 b 459 116 458 117 458 116 b 460 115 459 116 460 115 b 517 78 478 101 497 89 b 669 44 564 55 615 44 b 742 51 693 44 717 46 b 1061 438 896 81 1061 215 b 821 710 1061 517 1037 698 z m 107 743 b 213 886 134 835 171 886 b 235 876 223 886 229 883 b 234 737 242 867 257 834 b 234 732 234 735 233 733 b 69 472 202 614 125 487 b 107 743 72 573 85 670 z "},"":{"ha":1288,"x_min":0,"x_max":0,"o":"m 1319 284 b 1301 277 1312 287 1304 284 l 1295 262 b 1171 42 1272 210 1220 90 b 1167 39 1170 41 1168 40 b 1157 29 1164 35 1160 32 b 1134 21 1149 24 1141 21 b 1087 215 1088 21 1088 119 b 990 474 1087 337 1086 474 b 879 340 946 474 909 430 b 879 339 879 340 879 340 b 860 274 866 305 860 275 b 859 271 859 273 859 272 b 842 187 853 245 848 217 b 773 447 835 288 817 401 b 725 469 759 462 743 469 b 598 246 658 469 620 359 b 597 372 598 292 598 337 b 597 448 597 415 597 444 b 563 477 597 465 583 477 b 548 474 558 477 553 476 b 398 518 503 503 451 518 b 397 518 398 518 398 518 b 395 518 397 518 396 518 b 369 517 386 518 378 518 b 358 516 366 517 362 516 b 355 515 357 516 356 516 b 246 480 318 511 281 499 b 69 172 135 420 69 305 b 259 -142 69 53 137 -59 b 464 -235 319 -184 391 -216 b 467 -236 465 -235 466 -235 b 600 -255 510 -248 555 -254 b 611 -255 604 -255 607 -255 b 612 -255 611 -255 612 -255 b 634 -306 618 -273 625 -290 b 713 -382 648 -333 678 -378 b 715 -382 714 -382 714 -382 b 716 -382 715 -382 715 -382 b 718 -383 717 -383 717 -383 b 844 -262 762 -383 814 -322 b 1074 -463 915 -264 1022 -340 b 1087 -472 1076 -468 1082 -472 b 1093 -470 1089 -472 1091 -471 b 1100 -452 1100 -467 1103 -459 b 996 -305 1078 -399 1040 -346 b 856 -234 963 -275 913 -239 b 865 -201 860 -222 863 -211 b 825 -116 873 -156 859 -125 b 758 -125 801 -108 777 -112 b 734 -149 748 -132 741 -140 b 715 -121 730 -139 724 -129 b 651 -101 698 -105 676 -98 b 597 -178 616 -105 596 -133 b 604 -227 597 -193 600 -210 b 590 -227 599 -227 595 -227 b 479 -209 554 -225 517 -219 b 286 -115 409 -191 343 -159 b 133 177 187 -37 133 66 b 363 488 133 374 246 472 b 531 451 422 495 481 482 b 531 448 531 450 531 449 l 531 0 b 543 -24 531 -10 535 -19 b 565 -32 549 -29 557 -32 b 600 -2 584 -32 599 -19 b 600 0 600 -1 600 -1 b 642 310 600 61 613 203 b 643 311 642 311 642 311 l 643 312 b 709 429 675 420 702 429 b 727 420 716 429 721 426 b 781 14 765 382 785 233 b 781 5 781 10 781 7 b 812 -26 781 -13 794 -26 b 814 -26 813 -26 813 -26 b 846 2 831 -26 845 -14 b 847 3 846 2 847 3 l 847 4 l 847 10 b 901 317 862 154 881 252 b 903 322 901 318 902 320 b 978 429 920 373 948 429 b 1021 234 1020 429 1020 325 b 1112 -23 1022 108 1023 -23 b 1177 9 1131 -23 1157 -8 b 1321 251 1229 50 1278 153 l 1327 265 b 1319 284 1330 272 1327 281 z "},"":{"ha":1154,"x_min":0,"x_max":0,"o":"m 894 598 b 683 692 832 640 757 673 b 558 711 642 703 600 709 b 565 737 561 720 564 729 b 525 822 573 782 559 813 b 458 813 501 830 478 826 b 435 789 449 806 441 798 b 415 817 430 799 424 808 b 351 837 399 833 376 840 b 297 760 316 833 296 805 b 302 718 297 747 299 733 b 85 918 232 728 134 803 b 66 926 82 926 73 929 b 58 907 59 923 55 914 b 163 761 81 855 119 801 b 310 689 197 729 250 692 b 334 632 317 669 325 650 b 413 556 349 605 378 560 b 415 556 414 556 414 556 b 416 556 415 556 416 556 b 419 555 417 555 418 555 b 547 682 463 555 518 620 b 563 682 552 682 557 682 b 674 665 599 680 636 674 b 867 570 744 646 810 614 b 1020 278 966 493 1020 389 b 788 -33 1020 80 905 -18 b 788 -33 788 -33 788 -33 b 722 -32 766 -35 744 -35 b 557 273 581 -8 568 141 b 459 474 547 377 539 474 b 347 338 414 474 377 429 b 328 274 335 304 329 275 b 328 270 328 273 328 272 b 311 187 322 245 316 217 b 242 447 304 288 285 401 b 194 469 228 462 212 469 b 67 246 127 469 89 359 b 66 372 67 292 66 337 b 66 448 66 415 66 444 b 32 477 66 465 51 477 b 11 471 24 477 17 475 b 0 448 4 465 0 457 l 0 0 b 11 -24 0 -10 4 -19 b 34 -32 17 -29 25 -32 b 68 -2 53 -32 68 -19 b 68 0 68 -1 68 -1 b 111 310 68 61 82 203 b 111 311 111 311 111 311 l 112 312 b 178 429 144 420 171 429 b 196 420 184 429 190 426 b 250 14 234 382 254 233 b 250 5 250 10 250 7 b 281 -26 250 -13 263 -26 b 282 -26 282 -26 282 -26 b 315 3 300 -26 314 -14 b 315 3 315 3 315 3 l 315 4 l 316 10 b 371 321 331 157 351 256 b 371 322 371 321 371 321 b 447 429 389 373 416 429 b 488 293 477 429 482 366 b 756 -63 500 151 517 -63 b 757 -63 756 -63 756 -63 b 757 -63 757 -63 757 -63 b 758 -63 757 -63 758 -63 b 791 -61 769 -63 780 -62 b 792 -61 792 -61 792 -61 b 908 -24 832 -56 871 -44 b 1084 283 1018 35 1084 150 b 894 598 1084 403 1016 515 z "},"":{"ha":1110,"x_min":0,"x_max":0,"o":"m 1142 284 b 1124 277 1135 287 1127 284 l 1117 263 b 990 42 1092 206 1039 90 b 985 39 988 41 987 40 b 973 29 981 35 977 32 b 950 21 965 23 957 21 b 901 215 902 21 902 119 b 801 474 901 337 900 474 b 650 292 740 474 689 390 b 650 292 650 292 650 292 b 648 288 649 290 649 289 l 647 284 b 647 283 647 284 647 283 b 599 132 627 232 611 179 b 597 372 599 212 598 308 b 597 448 597 415 597 444 b 563 477 597 465 583 477 b 548 474 558 477 553 476 b 398 518 503 503 451 518 b 397 518 398 518 398 518 b 395 518 397 518 396 518 b 369 517 386 518 378 518 b 358 516 366 517 362 516 b 355 515 357 516 356 516 b 246 480 318 511 281 499 b 69 172 135 420 69 305 b 259 -142 69 53 137 -59 b 464 -235 319 -184 391 -216 b 467 -236 465 -235 466 -235 b 600 -255 510 -248 555 -254 b 611 -255 604 -255 607 -255 b 612 -255 611 -255 612 -255 b 634 -306 618 -273 625 -290 b 713 -382 648 -333 678 -378 b 715 -382 714 -382 714 -382 b 716 -382 715 -382 715 -382 b 718 -383 717 -383 717 -383 b 844 -262 762 -383 814 -322 b 1074 -463 915 -264 1022 -340 b 1087 -472 1076 -468 1082 -472 b 1093 -470 1089 -472 1091 -471 b 1100 -452 1100 -467 1103 -459 b 996 -305 1078 -399 1040 -346 b 856 -234 963 -275 913 -239 b 865 -201 860 -222 863 -211 b 825 -116 873 -156 859 -125 b 758 -125 801 -108 777 -112 b 734 -149 748 -132 741 -140 b 715 -121 730 -139 724 -129 b 651 -101 698 -105 676 -98 b 597 -178 616 -105 596 -133 b 604 -227 597 -193 600 -210 b 590 -227 599 -227 595 -227 b 479 -209 554 -225 517 -219 b 286 -115 409 -191 343 -159 b 133 177 187 -37 133 66 b 363 488 133 374 247 472 b 531 451 422 495 481 482 b 531 448 531 450 531 449 l 531 0 b 543 -24 531 -10 535 -19 b 565 -32 549 -29 557 -32 b 600 -1 584 -32 599 -19 b 677 284 604 41 634 174 b 678 286 678 284 678 285 b 789 429 727 404 765 429 b 833 234 832 429 833 330 b 928 -23 834 108 835 -23 b 994 9 945 -23 972 -10 b 1143 251 1048 49 1099 153 l 1150 265 b 1142 284 1153 272 1150 280 z "}}}
